<?xml version="1.0" encoding="UTF-8" standalone="no"?>
<!-- Created with Inkscape (http://www.inkscape.org/) -->

<svg
   xmlns:dc="http://purl.org/dc/elements/1.1/"
   xmlns:cc="http://creativecommons.org/ns#"
   xmlns:rdf="http://www.w3.org/1999/02/22-rdf-syntax-ns#"
   xmlns:svg="http://www.w3.org/2000/svg"
   xmlns="http://www.w3.org/2000/svg"
   xmlns:sodipodi="http://sodipodi.sourceforge.net/DTD/sodipodi-0.dtd"
   xmlns:inkscape="http://www.inkscape.org/namespaces/inkscape"
   version="1.1"
   id="svg2"
   xml:space="preserve"
   width="412"
   height="197.33333"
   viewBox="0 0 412 197.33333"
   sodipodi:docname="nadniprianichka.svg"
   inkscape:version="0.92.2 (5c3e80d, 2017-08-06)"><metadata
     id="metadata8"><rdf:RDF><cc:Work
         rdf:about=""><dc:format>image/svg+xml</dc:format><dc:type
           rdf:resource="http://purl.org/dc/dcmitype/StillImage" /><dc:title></dc:title></cc:Work></rdf:RDF></metadata><defs
     id="defs6" /><sodipodi:namedview
     pagecolor="#ffffff"
     bordercolor="#666666"
     borderopacity="1"
     objecttolerance="10"
     gridtolerance="10"
     guidetolerance="10"
     inkscape:pageopacity="0"
     inkscape:pageshadow="2"
     inkscape:window-width="640"
     inkscape:window-height="480"
     id="namedview4"
     showgrid="false"
     inkscape:zoom="0.96116505"
     inkscape:cx="187.79293"
     inkscape:cy="98.666664"
     inkscape:window-x="0"
     inkscape:window-y="0"
     inkscape:window-maximized="0"
     inkscape:current-layer="g10" /><g
     id="g10"
     inkscape:groupmode="layer"
     inkscape:label="ink_ext_XXXXXX"
     transform="matrix(1.3333333,0,0,-1.3333333,0,197.33333)"><g
       id="g12"
       transform="scale(0.1)"><path
         d="m 2380.14,130.477 -7.1,14.503 c -13.76,22.688 -36.24,36.415 -63.34,36.415 H 700.785 c -20.828,0 -41.597,-10.954 -56.445,-29.438 l -9.742,-14.785 c -7.305,-13.817 -11.774,-30.379 -11.774,-48.6642 0,-46.3555 38.883,-85.0703 77.961,-85.0703 H 2309.7 c 45.32,0 77.89,38.7148 77.89,85.0703 0,15.4022 -2.64,29.5972 -7.45,41.9692 z M 819.742,72.457 c -0.492,-2.6172 -1.617,-5.3359 -3.367,-8.1718 -2.469,-4.1368 -6.66,-7.9102 -12.527,-11.2579 -5.91,-3.4101 -14.668,-5.1328 -26.133,-5.1328 h -64.496 v 8.6875 h 3.824 c 4.348,0 6.797,0.7891 7.523,2.2578 0.688,1.5235 1.039,3.0938 1.039,4.7149 0.118,0.9961 0.29,1.6797 0.317,2.1523 0.09,0.4141 0.129,0.6758 0.129,0.836 0,0.1562 0,0.2578 0,0.4179 0,0.1094 0,0.1602 0,0.3125 v 76.1216 c 0,0.203 0,0.308 0,0.418 0,0.054 0,0.257 0,0.363 0,0.16 -0.039,0.422 -0.129,0.836 -0.027,0.527 -0.199,1.156 -0.317,2.101 0.008,1.887 -0.351,3.512 -1.039,4.926 -0.726,1.359 -3.175,2.09 -7.523,2.09 h -3.824 v 8.699 h 57.511 c 2.391,0 5.129,-0.105 8.407,-0.105 3.265,-0.055 6.633,-0.473 10.043,-1.149 6.218,-1.156 11.89,-3.726 17.168,-7.656 5.312,-4.031 7.945,-10.738 7.945,-20.223 0,-1.3 -0.117,-2.664 -0.387,-4.187 -0.176,-1.52 -0.633,-3.094 -1.301,-4.707 -1.218,-2.992 -3.707,-5.926 -7.546,-8.703 -3.782,-2.828 -9.661,-4.926 -17.813,-6.235 v -1.254 c 8.684,-1.156 15.317,-3.351 19.922,-6.449 4.625,-3.1912 7.883,-6.4881 9.91,-9.9491 1.356,-2.5195 2.356,-4.9804 2.77,-7.3867 0.472,-2.3515 0.707,-4.3984 0.707,-6.0781 0,-1.4648 -0.235,-3.5117 -0.813,-6.2891 z m 154.188,81.672 h -3.723 c -4.371,0 -6.91,-0.731 -7.633,-2.09 -0.691,-1.414 -1.019,-3.039 -1.019,-4.926 -0.145,-0.945 -0.325,-1.574 -0.344,-2.101 -0.09,-0.414 -0.133,-0.676 -0.133,-0.836 0,-0.098 0,-0.309 0,-0.363 0,-0.11 0,-0.215 0,-0.418 V 67.2734 c 0,-0.1523 0,-0.2031 0,-0.3125 0,-0.1601 0,-0.2617 0,-0.4179 0,-0.1602 0.043,-0.4219 0.133,-0.836 0.019,-0.4726 0.199,-1.1562 0.344,-2.1523 0,-1.6211 0.328,-3.1914 1.019,-4.7149 0.723,-1.4687 3.262,-2.2578 7.633,-2.2578 h 3.723 v -8.6875 h -54.246 v 8.6875 h 3.718 c 3.262,0 5.496,0.6875 6.828,1.8907 1.293,1.2617 1.977,3.5117 1.977,6.8164 v 57.9839 h -1.406 L 892.137,67.5391 v -3.7149 c 0,-3.1484 0.754,-5.1445 2.136,-5.9804 1.403,-0.836 3.575,-1.2618 6.508,-1.2618 0.657,0 1.309,0 1.942,0 0.703,0 1.39,0 1.961,0 v -8.6875 h -53.981 v 8.6875 h 3.715 c 3.297,0 5.582,0.6875 6.891,1.8907 1.355,1.2617 2.027,3.5117 2.027,6.8164 v 80.1449 c 0,3.304 -0.672,5.609 -2.027,6.812 -1.309,1.25 -3.594,1.883 -6.891,1.883 h -3.715 v 8.699 h 53.981 v -8.699 h -3.68 c -3.293,0 -5.512,-0.633 -6.836,-1.883 -1.324,-1.203 -2.031,-3.508 -2.031,-6.812 V 90.4336 h 1.691 l 38.379,55.7344 v 3.043 c 0,1.617 -0.539,2.828 -1.516,3.394 -0.964,0.743 -2.105,1.106 -3.39,1.313 -0.602,0.156 -1.199,0.211 -1.832,0.211 -0.621,0 -1.164,0 -1.664,0 -0.114,0 -0.27,0 -0.403,0 h -3.718 v 8.699 H 973.93 Z M 1119.75,16.5625 c -4.82,11.5781 -10.15,19.75 -15.96,24.3672 -5.77,4.6601 -14.29,6.9648 -25.52,6.9648 h -24.86 c -2.34,0 -4.9,-0.0547 -7.7,-0.0547 -2.83,-0.1601 -5.58,-0.5781 -8.4,-1.4648 -5.57,-1.3125 -10.88,-4.1406 -15.94,-8.3789 -5.04,-4.3516 -8.41,-11.4219 -10.15,-21.2266 l -7.13,-0.207 4.12,38.3477 c 0.18,0 0.31,0 0.36,0 0.05,0 0.18,0 0.33,0 3.91,0 7.08,0.8867 9.59,2.7773 2.43,1.9375 4.49,3.9805 6.02,6.1367 0.94,1.4649 1.7,2.875 2.24,4.3399 0.49,1.414 0.93,2.5703 1.25,3.3476 0.63,1.8399 1.31,4.3008 2.16,7.3399 0.77,3.0859 1.58,6.5468 2.3,10.3711 1.41,6.4492 2.7,13.9333 3.97,22.3673 1.2,8.488 1.98,17.238 2.3,26.351 0,0.684 0,1.309 0,1.942 0,0.523 0,1.047 0,1.57 0,0.313 0,0.625 0,0.945 0,0.364 0,0.625 0,0.782 -0.32,4.508 -1.19,7.445 -2.55,8.859 -1.42,1.359 -4.35,2.09 -8.85,2.09 H 1025 v 8.699 h 91.27 v -8.699 c -0.18,0 -0.29,0 -0.5,0 -0.13,0 -0.26,0 -0.45,0 -0.12,0 -0.34,0 -0.46,0 -0.16,0 -0.32,0 -0.47,0 -4.98,0 -7.9,-0.524 -8.82,-1.566 -0.96,-1.102 -1.44,-2.516 -1.66,-4.399 v -0.269 -0.207 c -0.2,-0.836 -0.25,-1.52 -0.34,-2.149 -0.11,-0.57 -0.11,-1.105 -0.11,-1.621 V 64.2852 c 0,-0.3125 0,-0.625 0,-0.9961 0,-0.2578 0.07,-0.6797 0.2,-0.9336 0.32,-1.8438 1.25,-3.5157 2.83,-5.086 1.57,-1.6172 3.9,-2.3593 7.01,-2.3593 h 8.34 l 4.9,-38.3477 z m 137.36,31.8555 c -4.73,-2.043 -9.72,-2.9883 -14.78,-2.9883 -1.21,0 -2.69,0.0547 -4.31,0.2656 -1.65,0.1016 -3.38,0.4727 -5.24,0.9375 -2.21,0.6289 -4.23,1.7852 -6.16,3.2539 -1.92,1.4688 -3.48,3.6641 -4.58,6.6953 h -1.13 c -6.36,-4.2343 -12.16,-7.2226 -17.35,-8.7422 -5.21,-1.6718 -10.15,-2.4101 -14.76,-2.4101 -0.94,0 -1.94,0.0547 -2.87,0.1055 -1.11,0.1015 -2,0.1601 -2.99,0.1601 -6.49,0.7813 -12.5,3.1406 -17.89,7.1797 -5.47,3.9727 -8.17,10.6289 -8.17,19.9023 0.01,10.5821 3.96,19.1758 11.85,25.7188 7.97,6.6019 16.62,11.6839 26.12,15.3559 4.81,1.773 9.51,3.242 14.19,4.336 4.66,1.05 8.77,1.945 12.33,2.625 v 17.453 c 0,6.07 -1.38,10.047 -4.17,11.781 -2.87,1.726 -6.87,2.558 -12.13,2.558 -3.84,0 -6.81,-0.73 -8.74,-2.351 -1.9,-1.574 -3.36,-3.246 -4.35,-5.082 -0.53,-1.359 -1,-2.516 -1.25,-3.719 -0.21,-1.152 -0.43,-2.094 -0.54,-2.773 0,-0.414 -0.09,-0.95 -0.12,-1.317 -0.1,-0.418 -0.19,-0.886 -0.32,-1.414 -0.68,-2.613 -1.85,-5.133 -3.58,-7.437 -1.69,-2.301 -4.56,-3.512 -8.6,-3.512 -3.89,0 -6.76,1.266 -8.84,3.621 -2.03,2.461 -3.01,5.445 -3.01,9.109 0,1.258 0.22,2.727 0.55,4.348 0.43,1.52 1,3.094 1.78,4.613 2.68,4.821 7.29,9.172 14.09,13.039 6.81,3.883 16.08,5.872 28.06,5.872 12.93,0 22.08,-2.043 27.59,-6.125 5.53,-4.09 9.12,-8.543 10.82,-13.52 0.57,-2.039 1.01,-4.027 1.26,-6.074 0.22,-2.153 0.35,-3.985 0.35,-5.66 V 75.7109 c 0,-3.9296 0.44,-7.4961 1.2,-10.6367 0.76,-3.1406 2.63,-4.7109 5.59,-4.7109 0.45,0 0.94,0.0508 1.66,0.2031 0.6,0.2149 1.21,0.418 1.79,0.793 0.63,0.3086 1.21,0.625 1.66,0.9961 0.46,0.2539 0.9,0.6758 1.37,0.9336 0.47,0.3711 0.9,0.6289 1.29,0.8984 0.42,0.3125 0.72,0.5664 1.08,0.8867 l 4.61,-6.0273 c -4.17,-5.0781 -8.61,-8.6367 -13.36,-10.6289 z m 150.01,24.039 c -0.55,-2.6172 -1.66,-5.3359 -3.38,-8.1718 -2.46,-4.1368 -6.63,-7.9102 -12.56,-11.2579 -5.85,-3.4101 -14.59,-5.1328 -26.02,-5.1328 h -64.49 v 8.6875 h 3.72 c 4.27,0 6.84,0.7891 7.49,2.2578 0.73,1.5235 1.13,3.0938 1.13,4.7149 0.13,0.9961 0.22,1.6797 0.31,2.1523 0.1,0.4141 0.13,0.6758 0.13,0.836 0,0.1562 0,0.2578 0,0.4179 0,0.1094 0,0.1602 0,0.3125 v 76.1216 c 0,0.203 0,0.308 0,0.418 0,0.054 0,0.257 0,0.363 0,0.16 -0.03,0.422 -0.13,0.836 -0.09,0.527 -0.18,1.156 -0.31,2.101 0,1.887 -0.4,3.512 -1.13,4.926 -0.64,1.359 -3.22,2.09 -7.49,2.09 h -3.72 v 8.699 h 57.45 c 2.37,0 5.15,-0.105 8.37,-0.105 3.27,-0.055 6.66,-0.473 10.03,-1.149 6.23,-1.156 11.98,-3.726 17.27,-7.656 5.25,-4.031 7.94,-10.738 7.94,-20.223 0,-1.3 -0.14,-2.664 -0.4,-4.187 -0.25,-1.52 -0.68,-3.094 -1.28,-4.707 -1.22,-2.992 -3.77,-5.926 -7.58,-8.703 -3.81,-2.828 -9.73,-4.926 -17.78,-6.235 v -1.254 c 8.63,-1.156 15.27,-3.351 19.9,-6.449 4.58,-3.1912 7.82,-6.4881 9.87,-9.9491 1.42,-2.5195 2.29,-4.9804 2.79,-7.3867 0.48,-2.3515 0.73,-4.3984 0.73,-6.0781 0,-1.4648 -0.32,-3.5117 -0.86,-6.2891 z m 152.78,81.672 h -3.72 c -3.25,0 -5.6,-0.633 -6.86,-1.883 -1.36,-1.203 -2.02,-3.508 -2.02,-6.812 l 0.01,-80.1449 c 0,-3.3047 0.65,-5.5547 2.01,-6.8164 1.26,-1.2032 3.61,-1.8907 6.86,-1.8907 h 3.72 v -8.6875 h -54.01 v 8.6875 h 3.72 c 3.23,0 5.55,0.6875 6.87,1.8907 1.36,1.2617 1.98,3.5117 1.98,6.8164 V 102.902 H 1479.6 V 65.2891 c 0,-3.3047 0.59,-5.5547 1.94,-6.8164 1.3,-1.2032 3.61,-1.8907 6.89,-1.8907 h 3.7 v -8.6875 h -53.98 v 8.6875 h 3.72 c 3.24,0 5.59,0.6875 6.84,1.8907 1.3,1.2617 1.98,3.5117 1.98,6.8164 v 80.1449 c 0,3.304 -0.68,5.609 -1.98,6.812 -1.25,1.25 -3.6,1.883 -6.84,1.883 h -3.72 v 8.699 h 53.98 v -8.699 h -3.7 c -3.28,0 -5.59,-0.633 -6.89,-1.883 -1.35,-1.203 -1.94,-3.508 -1.94,-6.812 v -29.602 h 38.86 v 29.602 c 0,3.304 -0.62,5.609 -1.98,6.812 -1.31,1.25 -3.64,1.883 -6.87,1.883 h -3.72 v 8.699 h 54.01 z m 163.33,0 h -3.76 c -4.29,0 -6.76,-0.731 -7.52,-2.09 -0.7,-1.414 -1.02,-3.039 -1.02,-4.926 -0.2,-0.945 -0.23,-1.574 -0.36,-2.101 -0.07,-0.414 -0.16,-0.676 -0.16,-0.836 0,-0.098 0,-0.309 0,-0.363 0,-0.11 0,-0.215 0,-0.418 V 67.2734 c 0,-0.1523 0,-0.2031 0,-0.3125 0,-0.1601 0,-0.2617 0,-0.4179 0,-0.1602 0.07,-0.4219 0.16,-0.836 0.13,-0.4726 0.15,-1.1562 0.36,-2.1523 0,-1.6211 0.32,-3.1914 1.02,-4.7149 0.76,-1.4687 3.23,-2.2578 7.52,-2.2578 h 3.76 v -8.6875 h -54.2 v 8.6875 h 3.71 c 3.25,0 5.55,0.6875 6.87,1.8907 1.39,1.2617 1.98,3.5117 1.98,6.8164 v 57.9839 h -1.38 l -38.66,-55.7339 v -3.7149 c 0,-3.1484 0.7,-5.1445 2.12,-5.9804 1.36,-0.836 3.51,-1.2618 6.5,-1.2618 0.57,0 1.31,0 1.96,0 0.73,0 1.39,0 1.96,0 v -8.6875 h -53.99 v 8.6875 h 3.7 c 3.31,0 5.56,0.6875 6.92,1.8907 1.25,1.2617 1.99,3.5117 1.99,6.8164 v 80.1449 c 0,3.304 -0.74,5.609 -1.99,6.812 -1.36,1.25 -3.61,1.883 -6.92,1.883 h -3.7 v 8.699 h 53.99 v -8.699 h -3.71 c -3.23,0 -5.51,-0.633 -6.82,-1.883 -1.36,-1.203 -2.01,-3.508 -2.01,-6.812 V 90.4336 h 1.65 l 38.39,55.7344 v 3.043 c 0,1.617 -0.52,2.828 -1.51,3.394 -1.05,0.743 -2.15,1.106 -3.41,1.313 -0.6,0.156 -1.21,0.211 -1.94,0.211 -0.52,0 -1.04,0 -1.57,0 -0.11,0 -0.26,0 -0.42,0 h -3.71 v 8.699 h 54.2 z M 1889.65,16.5625 c -2.96,8.5977 -6.56,15.1992 -10.66,19.5898 -4.22,4.5079 -8.57,7.6563 -13.05,9.543 -2.35,0.9375 -4.69,1.5664 -7.06,1.8242 -2.26,0.3203 -4.49,0.375 -6.69,0.375 h -90.53 v 8.6875 h 3.94 c 3.27,0 5.53,0.6875 6.83,1.8907 1.37,1.2617 2.05,3.5117 2.05,6.8164 v 80.1449 c 0,3.304 -0.68,5.609 -2.05,6.812 -1.3,1.25 -3.56,1.883 -6.83,1.883 h -3.94 v 8.699 h 54.23 v -8.699 h -3.75 c -3.28,0 -5.55,-0.633 -6.86,-1.883 -1.28,-1.203 -1.96,-3.508 -1.96,-6.812 V 69.5781 c 0,-3.3554 0.6,-5.6054 1.74,-6.707 1.16,-1.2031 2.42,-1.8867 3.8,-2.0352 0.51,0 0.98,0 1.3,0 0.36,0 0.83,0 1.25,0 0.18,0 0.32,0 0.39,0 0.02,0 0.18,0 0.34,0 h 23.76 c 0.21,0 0.26,0 0.39,0 0.05,0 0.18,0 0.29,0 0.45,0 0.89,0 1.34,0 0.36,0 0.78,0 1.25,0 1.39,0.1485 2.73,0.8321 3.82,2.0352 1.18,1.1016 1.74,3.3516 1.74,6.707 v 75.8559 c 0,3.304 -0.68,5.609 -1.94,6.812 -1.33,1.25 -3.62,1.883 -6.89,1.883 h -3.69 v 8.699 h 53.98 v -8.699 h -3.75 c -3.2,0 -5.57,-0.633 -6.89,-1.883 -1.25,-1.203 -1.96,-3.508 -1.96,-6.812 V 65.2891 c 0,-2.2578 0.71,-3.9297 1.96,-4.9258 1.32,-1.0508 2.81,-1.6836 4.35,-2.043 0.6,-0.1094 1.31,-0.2695 1.99,-0.3711 0.69,-0.0547 1.2,-0.1054 1.7,-0.1054 1.11,-0.2032 2,-0.3086 2.68,-0.3633 0.68,-0.0547 1.36,-0.0547 1.96,0.0976 0.32,0 0.66,0 0.95,0 0.2,0 0.39,0 0.7,0 0.19,0 0.37,0.0625 0.57,0.1094 0.3,0.1055 0.54,0.1563 0.87,0.1563 l 5.35,-41.2813 z m 116.24,112.2105 c -5.47,10.11 -10.29,16.09 -14.37,17.918 -4.07,1.832 -7.37,2.887 -9.7,3.196 h -0.19 c -0.15,0 -0.34,0 -0.58,0 -0.24,0 -0.48,0 -0.59,0 -0.21,0 -0.37,0 -0.55,0 -0.23,0 -0.5,0 -0.63,0 -1.25,0 -2.28,-0.418 -3.01,-1.309 -0.76,-0.941 -1.21,-3.144 -1.21,-6.648 V 65.2891 c 0,-3.3047 0.74,-5.5547 2.05,-6.8164 1.28,-1.2032 3.64,-1.8907 7.04,-1.8907 h 3.77 v -8.6875 h -54.3 v 8.6875 h 3.81 c 3.24,0 5.55,0.6875 6.83,1.8907 1.31,1.2617 1.94,3.5117 1.94,6.8164 v 79.8829 c 0,2.195 -0.4,3.508 -1.26,4.137 -0.81,0.578 -1.91,0.839 -3.14,0.839 -0.13,0 -0.29,0 -0.45,0 -0.18,0 -0.31,0 -0.44,0 -0.18,-0.101 -0.32,-0.261 -0.55,-0.261 -0.14,0 -0.27,0 -0.45,0 -0.31,0 -2.02,-0.364 -5.05,-1.102 -3.15,-0.785 -6.45,-2.926 -10.01,-6.547 -1.6,-1.519 -3.24,-3.406 -4.82,-5.601 -1.6,-2.254 -3.04,-4.875 -4.24,-7.864 h -7.34 l 8.46,34.055 h 87.73 l 8.18,-34.055 z m 143.7,-56.316 c -0.68,-2.6172 -1.68,-5.3359 -3.46,-8.1718 -2.49,-4.1368 -6.66,-7.9102 -12.57,-11.2579 -5.92,-3.4101 -14.59,-5.1328 -26.1,-5.1328 h -64.45 v 8.6875 h 3.75 c 4.26,0 6.83,0.7891 7.54,2.2578 0.67,1.5235 1.07,3.0938 1.07,4.7149 0.11,0.9961 0.29,1.6797 0.31,2.1523 0.16,0.4141 0.16,0.6758 0.16,0.836 0,0.1562 0,0.2578 0,0.4179 0,0.1094 0,0.1602 0,0.3125 v 76.1216 c 0,0.203 0,0.308 0,0.418 0,0.054 0,0.257 0,0.363 0,0.16 -0.02,0.422 -0.16,0.836 -0.02,0.527 -0.2,1.156 -0.31,2.101 0,1.887 -0.4,3.512 -1.07,4.926 -0.71,1.359 -3.28,2.09 -7.54,2.09 h -3.75 v 8.699 h 57.51 c 2.34,0 5.09,-0.105 8.36,-0.105 3.22,-0.055 6.58,-0.473 9.95,-1.149 6.24,-1.156 11.98,-3.726 17.29,-7.656 5.33,-4.031 7.94,-10.738 7.94,-20.223 0,-1.3 -0.13,-2.664 -0.42,-4.187 -0.21,-1.52 -0.63,-3.094 -1.26,-4.707 -1.15,-2.992 -3.77,-5.926 -7.51,-8.703 -3.76,-2.828 -9.8,-4.926 -17.84,-6.235 l 0.02,-1.254 c 8.65,-1.156 15.3,-3.351 19.88,-6.449 4.59,-3.1912 7.89,-6.4881 9.93,-9.9491 1.42,-2.5195 2.26,-4.9804 2.8,-7.3867 0.45,-2.3515 0.69,-4.3984 0.69,-6.0781 0,-1.4648 -0.31,-3.5117 -0.76,-6.2891 z m 140.11,26.2032 c -0.11,-2.2071 -0.49,-4.3047 -0.93,-6.4493 -2.01,-11.7851 -7.34,-22.5781 -15.88,-32.2695 -8.52,-9.7461 -21.11,-14.5117 -37.72,-14.5117 v -0.3125 c -16.23,0.207 -28.69,5.0273 -37.23,14.6172 -8.46,9.5273 -13.86,20.0586 -16.04,31.6953 -0.47,2.3516 -0.83,4.6055 -1.04,6.8555 -0.26,2.2498 -0.42,4.4028 -0.42,6.6018 0,2.676 0.19,5.398 0.52,8.226 0.33,2.828 0.84,5.602 1.66,8.43 2.64,10.949 8.15,21.066 16.63,30.23 8.43,9.223 20.38,13.829 35.92,13.829 15.6,0 27.54,-4.606 35.97,-13.829 8.46,-9.164 13.99,-19.281 16.64,-30.23 0.86,-2.828 1.35,-5.602 1.67,-8.43 0.27,-2.828 0.45,-5.55 0.45,-8.226 0,-1.985 -0.08,-4.082 -0.2,-6.2268 z m -50.74,53.4298 c -0.66,0.258 -1.3,0.371 -1.9,0.473 -0.66,0.042 -1.19,0.042 -1.88,0.042 -5.86,0 -10.97,-3.242 -15.49,-9.843 -4.38,-6.504 -6.57,-18.91 -6.57,-37.137 0.01,-12.1602 1.41,-23.1055 4.35,-32.8477 2.99,-9.746 8.87,-14.7265 17.71,-14.7265 7.73,0 13.17,3.9258 16.29,11.7422 3.12,7.7968 4.94,16.4492 5.58,25.875 0,1.6172 0.02,3.3047 0.18,4.973 0.04,1.629 0.07,3.246 0.07,4.984 0.02,17.074 -1.93,28.855 -5.72,35.305 -3.77,6.492 -8.05,10.16 -12.62,11.16 z m -141.82,-38.242 c 1.45,0.152 3,0.519 4.52,0.941 2.66,0.836 5.05,2.363 7.22,4.504 2.15,2.148 3.59,5.508 4.22,9.949 0,0.321 0.02,0.633 0.08,0.891 0.1,0.215 0.16,0.476 0.16,0.898 0,0.258 0,0.571 0,0.887 0,0.207 0,0.477 0,0.785 0,0.367 0,0.637 0,0.887 0,0.273 0,0.476 0,0.633 -0.16,0.363 -0.24,0.636 -0.24,0.89 0,0.258 0,0.422 0,0.578 -0.52,3.668 -1.54,6.547 -3.25,8.485 -1.7,1.992 -3.49,3.41 -5.45,4.242 -1.31,0.633 -2.74,1.051 -4.11,1.258 -1.44,0.211 -2.52,0.211 -3.25,0.211 -3.43,0 -6.33,-0.317 -8.77,-0.996 -2.41,-0.629 -3.59,-2.672 -3.59,-5.965 v -29.344 h 8.57 c 1.09,0 2.38,0.109 3.89,0.266 z m 13.48,-16.5628 c -4.7,2.4179 -9.96,3.6798 -15.7,3.8828 -0.37,0 -0.69,0 -1.04,0 -0.38,0 -0.79,0 -1.29,0 h -7.91 V 67.8008 c 0,-1.7813 0.49,-3.461 1.36,-4.8242 0.94,-1.4688 3.81,-2.1485 8.64,-2.1485 7.6,0 12.97,1.5703 16.17,4.6094 3.16,3.0469 5.29,6.3984 6.18,10.0117 0.31,1.5703 0.49,2.9883 0.6,4.3985 0.08,1.414 0.18,2.6718 0.18,3.9336 0,6.5976 -2.49,11.0429 -7.19,13.5039 z m -742.37,0 c -4.71,2.4179 -9.97,3.6798 -15.7,3.8828 -0.3,0 -0.66,0 -1.08,0 -0.36,0 -0.78,0 -1.26,0 h -7.86 V 67.8008 c 0,-1.7813 0.45,-3.461 1.38,-4.8242 0.9,-1.4688 3.79,-2.1485 8.61,-2.1485 7.58,0 12.99,1.5703 16.13,4.6094 3.21,3.0469 5.26,6.3984 6.22,10.0117 0.25,1.5703 0.47,2.9883 0.56,4.3985 0.1,1.414 0.14,2.6718 0.14,3.9336 0,6.5976 -2.43,11.0429 -7.14,13.5039 z m -13.46,16.5628 c 1.46,0.152 2.92,0.519 4.53,0.941 2.64,0.836 4.99,2.363 7.17,4.504 2.2,2.148 3.61,5.508 4.22,9.949 0,0.321 0.09,0.633 0.09,0.891 0.1,0.215 0.1,0.476 0.1,0.898 0,0.258 0,0.571 0,0.887 0,0.207 0,0.477 0,0.785 0,0.367 0,0.637 0,0.887 0,0.273 0,0.476 0,0.633 -0.1,0.363 -0.19,0.636 -0.19,0.89 0,0.258 0,0.422 0,0.578 -0.44,3.668 -1.55,6.547 -3.27,8.485 -1.7,1.992 -3.5,3.41 -5.36,4.242 -1.39,0.633 -2.76,1.051 -4.15,1.258 -1.44,0.211 -2.49,0.211 -3.27,0.211 -3.41,0 -6.36,-0.317 -8.8,-0.996 -2.36,-0.629 -3.51,-2.672 -3.51,-5.965 v -29.344 h 8.59 c 1.07,0 2.36,0.109 3.85,0.266 z M 1189.43,76.0742 c 0,-4.2383 1.46,-7.5898 4.34,-10.1094 2.84,-2.625 6.49,-3.9335 10.83,-3.9335 1.11,0 2.24,0.1601 3.46,0.4179 1.29,0.2735 2.46,0.5821 3.54,1.1055 1.65,0.6797 3.4,1.5781 5.11,2.625 1.71,1.0391 3.28,2.3047 4.66,3.6133 v 38.031 c -8.87,-1.633 -16.39,-5.5 -22.56,-11.531 -6.24,-6.0742 -9.38,-12.7774 -9.38,-20.2188 z M 1068.3,149.887 h -12.78 c -3.24,0 -5.25,-0.887 -5.84,-2.828 -0.65,-1.938 -1.03,-4.821 -1.17,-8.539 0,-0.215 0,-0.473 0,-0.629 0,-0.313 0,-0.582 0,-0.942 0,-0.152 0,-0.312 0,-0.472 0,-0.153 0,-0.309 0,-0.528 0,-0.094 0,-0.258 0,-0.469 0,-0.148 0,-0.367 0,-0.472 -0.18,-3.246 -0.53,-8.121 -1.17,-14.828 -0.63,-6.703 -1.47,-13.875 -2.55,-21.5198 -1.07,-7.1289 -2.29,-13.9922 -3.64,-20.5391 -1.27,-6.5547 -2.83,-11.4805 -4.5,-14.832 v -2.461 h 29.09 c 2.78,0 4.81,0.6407 6.02,1.8946 1.26,1.1953 2.06,2.5664 2.39,4.082 0.12,0.7891 0.25,1.5664 0.35,2.2578 0.09,0.6758 0.09,1.1992 0.09,1.7266 v 70.9259 c 0,3.824 -0.63,6.07 -1.87,6.965 -1.27,0.789 -2.7,1.207 -4.42,1.207 z M 767.375,113.848 c 1.473,0.152 2.957,0.519 4.52,0.941 2.609,0.836 5.035,2.363 7.238,4.504 2.172,2.148 3.543,5.508 4.18,9.949 0,0.321 0.035,0.633 0.125,0.891 0.089,0.215 0.089,0.476 0.089,0.898 0,0.258 0,0.571 0,0.887 0,0.207 0,0.477 0,0.785 0,0.367 0,0.637 0,0.887 0,0.273 0,0.476 0,0.633 -0.089,0.363 -0.214,0.636 -0.214,0.89 0,0.258 0,0.422 0,0.578 -0.469,3.668 -1.563,6.547 -3.29,8.485 -1.656,1.992 -3.453,3.41 -5.293,4.242 -1.441,0.633 -2.835,1.051 -4.179,1.258 -1.43,0.211 -2.516,0.211 -3.27,0.211 -3.457,0 -6.355,-0.317 -8.699,-0.996 -2.437,-0.629 -3.672,-2.672 -3.672,-5.965 v -29.344 h 8.625 c 1.074,0 2.356,0.109 3.84,0.266 z M 780.93,97.2852 c -4.813,2.4179 -10.016,3.6798 -15.797,3.8828 -0.254,0 -0.688,0 -1.035,0 -0.356,0 -0.789,0 -1.215,0 H 754.91 V 67.8008 c 0,-1.7813 0.449,-3.461 1.426,-4.8242 0.894,-1.4688 3.766,-2.1485 8.574,-2.1485 7.578,0 13.031,1.5703 16.172,4.6094 3.231,3.0469 5.266,6.3984 6.164,10.0117 0.32,1.5703 0.543,2.9883 0.637,4.3985 0.035,1.414 0.125,2.6718 0.125,3.9336 0,6.5976 -2.375,11.0429 -7.078,13.5039 v 0"
         style="fill:#00adef;fill-opacity:1;fill-rule:evenodd;stroke:none"
         id="path14"
         inkscape:connector-curvature="0" /><path
         d="m 1890.38,935.508 c -19.04,-0.899 -51.21,-0.371 -68.92,9.871 -49.08,28.476 -14.37,136.451 8.23,199.191 -14.17,38.07 -28.89,77.32 -39.71,104.7 4.11,-2.45 9.3,-5.49 15.35,-8.95 l 1.47,2.04 1.18,-3.52 c 47.12,-27.02 140,-79.2 162.76,-119.48 4.03,-7.04 -3.4,-14.57 -15.53,-23.04 29.2,-29.03 49.87,-61.27 41.52,-89.75 -13.91,62.79 -82.05,-5.5 -101.11,-42.136 l 7.02,-22.032 110.79,61.978 c -14.02,-19.626 -15.39,-39.478 -19.04,-55.61 -26.55,2.226 -83.32,-57.485 -83.32,-39.297 0,15.41 12.29,47.597 -14.88,21.98 -3.22,-2.226 -6.94,-6.39 -11.13,-11.719 -3.11,-3.957 -1.23,-3.683 -1.52,-8.578 -0.65,-9.73 -9.87,-24.105 -22.6,-37.047 -12.78,6.887 -34.49,11.297 -47.44,18.45 z M 3052.83,160.805 V 150.531 Z M 13.1406,145.453 v 10.215 z M 1520.14,1471.87 c -345.57,0 -627.386,-316.33 -627.386,-704.214 0,-83.828 13.246,-164.351 37.375,-239.105 H 85.5664 V 518.395 H 3080.08 v 10.156 h -969.92 c 24.18,74.754 37.38,155.269 37.38,239.105 0,387.884 -281.84,704.214 -627.4,704.214 z m 495.1,-943.319 c 37.66,86.179 58.93,183.328 58.93,286.109 0.01,352.14 -249.72,639.32 -552.45,639.32 -307.56,0.01 -552.642,-287.18 -552.642,-639.32 0,-102.781 20.922,-199.93 58.132,-286.109 h 52.45 c -22.17,27.445 -35.09,60.035 -35.31,90.156 -0.37,49.191 16.15,44.789 46.13,36.723 9.5,-2.567 19.82,-2.25 29.69,-0.258 143.12,-1.52 359.43,246.789 134.58,215.148 42.96,24.203 85.07,-2.281 144.61,46.274 -8.15,-19.789 -13.27,-39.727 -14.28,-56.438 -1.79,0 25.31,-13.254 37.31,37.77 13.09,55.426 51.3,144.194 114.36,49.613 40.8,-61.312 64.96,-223.09 164.6,-187.363 41.09,17.867 79.68,42.316 113.1,67.605 0.49,-0.578 1.05,-1.125 1.54,-1.726 -2.12,2.398 -4.01,4.613 -5.57,6.273 0.15,-0.183 0.35,-0.473 0.54,-0.617 -32.97,-19.231 -74.09,-39.129 -106.62,-50.223 -91.27,-31.011 -121.8,127.387 -155.54,186.532 -23.16,38.37 -49.19,46.83 -73.48,38.3 v 0 c -13.71,-4.8 -26.86,-15.058 -38.71,-28.347 -3.02,-1.598 -6.26,-3.668 -9.87,-6.778 -74.24,-62.082 -163.54,-72.363 -194.86,-82.047 -16.83,-5.183 -17.96,-15.871 -11.45,-25.875 14.91,-22.824 67.2,-30.043 87.47,-15.558 1.3,0.906 1.84,0.93 2.15,0.418 0.76,-1.176 1.29,-3.766 1.83,-5.266 18.77,-54.781 -58.77,-133.457 -150.31,-150.715 -4.03,0.528 -9.7,0.215 -17.43,-1.203 -39.08,-6.969 -117.24,69.41 -33.52,47.805 32.43,-8.336 72.16,8.351 95.99,20.191 31.55,15.696 44.05,41.414 2.46,81.27 -58.89,56.191 72.53,86.894 4.59,117.484 -47.09,27.981 202.13,39.574 226.48,102.151 -17.31,-32.35 -114.84,-53.93 -90.55,5.14 4.44,15.3 -45.33,30.67 -36.27,45.97 62.25,56.2 137.63,91.96 72.45,132.87 -4.62,71.46 131.34,173.61 221.94,132.75 0.08,0 0.08,0 0.08,0 36.77,-16.03 61.44,-48.63 36.19,-91.97 29.88,40.5 21.84,68.23 0.34,85.28 34.89,-15.64 31.2,-54.82 13.29,-74.98 -7.23,-18.78 23.33,-41.13 37.92,-48.96 3.51,-1.92 5.79,-2.57 3.93,-7.88 -0.39,-1.16 -0.73,-2.45 -1.05,-3.69 -4.5,-9.2 -12.04,-20.71 -7.65,-26.67 0,-5.71 -2.6,-11.13 -6.02,-15.04 2.75,-0.96 5.55,-1.98 8.27,-2.96 0.01,-6.78 -3.74,-10.69 -3.74,-17.48 v -10.14 c 4.74,-5.21 5.93,-9.52 3.07,-17.15 -3.67,-9.84 -18.58,-9.62 -31.77,-11.01 l -57.34,2.6 37.4,-12.64 c -17.13,-20.12 -47.15,-69.28 -50.94,-99.74 l 18.02,-20.47 c -18.01,25.57 36.27,112.41 54.4,122.62 15.53,2.68 32.64,1.8 34.99,20.98 -0.02,-12.89 -4.5,-21.97 -25.93,-26.07 -27.19,-5.12 -58.83,-71.52 -54.35,-102.17 141.26,-10 -78.71,-305.88 190.68,-184.138 0.03,0 0.08,0 0.08,-0.05 -0.15,0.121 -0.31,0.214 -0.47,0.289 1.79,0.183 3.62,0.527 5.4,0.906 -1.42,-0.25 -2.72,-0.484 -4.09,-0.723 6.84,3.117 13.88,6.367 21.33,10.035 l 2.64,-0.613 c -2.52,-1.617 -5.16,-3.242 -7.82,-4.93 -3.94,-1.582 -7.89,-2.839 -11.82,-3.703 40.83,8.758 83.02,61.813 77.7,80.844 -0.69,2.598 -2.09,3.121 -0.27,5.223 4.24,4.929 8.53,9.172 11.1,9.406 10.48,1.051 0.93,-28.055 0.93,-40.348 0,-25.543 67.98,52.817 90.61,47.758 11.68,-4.422 -30.19,-21.387 -50.75,-55.242 -9.91,-16.293 -5.06,-27.262 -23.64,-36.129 -13.17,-6.355 -31.75,-12.652 -43.35,-27.832 -0.15,-0.172 -0.31,-0.316 -0.54,-0.496 C 1824.71,674.758 1684,642.125 1622.3,667.586 c -50.32,20.793 -96.66,90.973 -109.41,144.715 -6.27,26.629 -2.88,-50.078 20.66,-97.965 15.8,-32.082 52.34,-52.254 49.46,-56.231 -23.83,-32.796 -35.13,-79 -39.03,-129.554 z m -205.29,304.254 c 0.04,-0.043 0.12,-0.145 0.21,-0.2 -0.07,0.055 -0.17,0.149 -0.22,0.188 z m -185.84,420.555 c 5.31,7.18 12.49,15.07 17.78,22.25 3.72,1.25 7.23,3.06 10.92,4.34 l -4.45,-17 9.25,-4.15 c -9.48,-10.62 -14.05,-11.3 -27.22,-14.97 3.25,8.85 12.7,22.95 13.07,25.92 -3.22,-1.72 -10.14,-8.89 -19.35,-16.39 z m 192.64,-428.212 c 1.29,-1.425 2.81,-3.07 4.35,-4.621 -1.54,1.551 -3.06,3.196 -4.35,4.621 z m 4.62,-4.91 c 0.38,-0.39 0.75,-0.761 1.09,-1.086 -0.34,0.325 -0.71,0.696 -1.09,1.086 z m 1.88,-1.859 c 0.99,-0.945 2.04,-1.91 3.14,-2.813 -1.1,0.903 -2.15,1.868 -3.14,2.813 z m 14.4,-9.981 c 0.34,-0.105 0.65,-0.234 1.05,-0.343 -0.39,0.109 -0.71,0.238 -1.05,0.343 z M 22.1836,216.961 62.8828,472.398 h 81.6832 l -13.738,-86.804 h 36.27 l 18.16,86.804 h 81.535 L 221.508,216.961 H 139.984 L 158.02,319.164 H 117.328 L 103.719,216.961 Z m 212.9214,0 h 81.512 l 27.207,168.633 c 0,5.023 4.473,10.219 8.949,15.246 0,0 4.625,5.133 9.122,5.133 9.058,0 9.058,-5.133 13.683,-5.133 4.496,-5.027 4.477,-10.223 4.477,-15.246 l -4.477,-25.571 h -22.805 l -13.57,-71.558 h 22.692 l -13.598,-71.504 h 81.562 l 27.254,158.414 c 4.469,25.465 4.469,45.996 -4.625,61.293 -4.476,15.352 -13.597,25.566 -27.097,30.695 -13.594,10.164 -31.754,15.188 -49.813,15.188 -18.18,0 -36.375,-5.024 -54.39,-15.188 -18.165,-10.32 -27.282,-20.535 -40.836,-35.886 -9.067,-15.289 -18.09,-35.664 -18.09,-51.079 z m 235.563,0 h -27.145 l 13.59,76.644 h 27.149 l 18.176,86.793 c 0,15.415 8.976,35.79 18.035,51.079 9.093,15.351 22.621,25.566 40.82,35.886 13.535,10.164 36.176,15.188 54.352,15.188 18.089,0 31.652,-5.024 45.339,-15.188 13.594,-5.129 22.559,-15.343 31.629,-30.695 4.586,-15.297 9.024,-35.828 4.586,-61.293 l -18.148,-81.77 h 27.211 L 692.613,216.961 H 565.762 l 13.597,71.504 h 22.586 l 13.7,97.129 c 0,5.023 0,10.219 0,15.246 -4.512,0 -9.02,5.133 -13.7,5.133 -4.476,0 -8.929,-5.133 -13.527,-5.133 -4.469,-5.027 -4.469,-10.223 -4.469,-15.246 L 552.207,216.961 Z m 258.145,0 h 81.652 l 31.625,168.633 c 0,5.023 4.621,10.219 4.621,15.246 4.441,0 8.926,5.133 13.559,5.133 4.484,0 9.011,-5.133 13.562,-5.133 0,-5.027 4.606,-10.223 0,-15.246 L 860.27,288.465 H 837.602 L 824,216.961 h 126.824 l 13.594,76.644 h -22.641 l 13.618,81.77 c 4.585,25.465 0,45.996 -4.571,61.293 -4.441,15.352 -18.14,25.566 -31.73,30.695 -13.528,10.164 -27.063,15.188 -45.262,15.188 -18.187,0 -36.23,-5.024 -54.363,-15.188 -18.125,-10.32 -31.68,-20.535 -40.746,-35.886 -9.063,-15.289 -18.176,-35.664 -18.176,-51.079 l -13.539,-86.793 h -31.762 l -13.609,-76.644 z m 231.167,0 45.27,255.437 h 81.57 l -18.2,-86.804 h 40.79 l 13.62,86.804 h 81.51 l -45.3,-255.437 h -81.51 l 18.03,102.203 h -36.21 l -18.09,-102.203 z m 212.79,0 h 81.57 l 45.34,255.437 h -81.56 z m 95.28,0 31.63,163.437 c 0,15.415 9.05,35.79 18.15,51.079 9.08,15.351 22.64,25.566 40.76,35.886 18.12,10.164 36.27,15.188 54.32,15.188 18.19,0 31.73,-5.024 45.34,-15.188 13.55,-5.129 27.27,-15.343 31.72,-30.695 9.06,-15.297 9.06,-35.828 4.48,-61.293 l -27.12,-158.414 h -81.56 l 31.75,168.633 c 0,5.023 0,10.219 -4.61,15.246 -4.48,0 -8.95,5.133 -13.55,5.133 -4.5,0 -9.12,-5.133 -13.59,-5.133 0,-5.027 -4.62,-10.223 -4.62,-15.246 l -31.56,-168.633 z m 208.35,0 h 81.49 l 27.23,153.285 c 0,10.16 0,15.348 4.57,20.371 0.01,5.196 4.48,10.223 4.48,10.223 4.55,5.133 9.06,5.133 13.54,5.133 9.11,0 9.11,-5.133 13.72,-5.133 0,-5.027 0,-10.223 0,-15.246 0,-5.188 -4.61,-10.219 -9.09,-15.348 -4.63,-5.137 -9.11,-5.137 -13.62,-5.137 h -4.55 l -13.63,-71.504 h 4.58 c 22.59,0 40.79,5.129 58.86,10.208 18.13,10.222 27.19,20.433 36.3,35.73 8.99,15.402 18.08,30.703 18.08,46.051 v 5.023 c 4.48,15.356 4.48,30.754 0,40.86 -4.5,10.273 -9.09,20.543 -18.08,25.566 -9.1,10.32 -18.17,15.355 -27.29,20.484 -13.51,5.024 -22.6,5.024 -36.17,5.024 h -4.48 c -13.62,0 -27.22,-5.024 -40.86,-10.153 -13.59,-5.035 -22.68,-15.355 -31.72,-20.378 -8.98,-10.27 -18.04,-20.543 -22.65,-30.649 -4.51,-10.269 -8.96,-20.531 -8.96,-30.754 z m 398.68,0 h -77.06 l 22.71,153.285 c 4.48,15.348 4.48,25.567 4.48,30.594 0,5.133 -4.48,5.133 -13.59,5.133 -4.51,0 -9.07,0 -18.07,-5.133 -4.61,-5.027 -4.62,-10.223 -9.07,-15.246 0,-5.188 0,-10.219 4.45,-10.219 4.62,-5.129 9.09,-5.129 13.62,-5.129 h 4.56 c 4.51,0 4.51,0 4.51,0 l -9.07,-61.394 c -9,-5.039 -13.62,-5.039 -18.07,-5.039 l -4.6,-5.079 c -4.52,-5.129 -4.52,-10.269 -8.97,-20.531 l -9.11,-61.242 h -81.52 l 13.58,76.644 c 4.5,15.247 8.98,25.559 13.61,35.727 9.07,10.211 18.11,15.344 27.04,15.344 -8.93,5.137 -13.52,10.269 -17.97,20.433 0,10.266 0,20.485 0,30.704 4.45,15.289 9.04,25.558 17.97,40.855 9.11,10.16 22.68,25.566 36.4,30.695 18.03,10.164 36.2,15.188 54.3,15.188 18.13,0 36.31,-5.024 45.29,-10.153 13.52,-5.035 22.65,-15.355 31.71,-30.648 4.64,-15.301 4.64,-30.648 0,-56.156 z m 8.94,0 h 81.69 l 18.05,102.203 h 36.23 l -18.06,-102.203 h 81.55 l 45.28,255.437 h -81.53 l -18.16,-86.804 h -36.25 l 18.18,86.804 h -81.62 z m 235.66,127.723 c 4.45,20.425 13.61,40.91 27.24,61.289 13.46,20.476 31.62,35.777 54.31,51.07 22.6,10.32 45.26,15.355 72.51,15.355 22.66,0 40.69,0 54.27,-5.035 13.6,-10.32 27.27,-15.343 36.26,-30.695 9.05,-10.219 13.66,-25.566 18.12,-40.855 4.49,-15.407 4.49,-35.79 0,-56.27 -4.46,-20.379 -9.07,-35.73 -18.12,-51.078 -8.99,-20.379 -22.66,-30.586 -36.26,-45.938 -13.58,-10.273 -31.63,-20.535 -45.29,-25.566 -18.07,-10.16 -36.23,-10.16 -49.83,-10.16 -18.16,0 -36.18,0 -49.75,10.16 -18.13,5.031 -27.3,15.293 -40.84,30.699 -9.01,10.219 -18.17,25.559 -22.62,40.805 0,20.387 0,35.781 0,56.211 z m 86.12,-5.141 c -4.57,-10.211 -4.57,-20.379 0,-25.508 4.48,-10.222 8.93,-15.301 13.55,-15.301 9.06,-5.129 18.04,-10.269 22.66,-10.269 8.99,0 18.04,5.14 27.12,10.269 9.09,0 13.59,5.079 22.71,15.301 4.56,5.129 8.95,15.297 8.95,25.508 0.01,10.27 0,20.48 0,25.566 -4.39,10.266 -8.95,15.289 -18.07,20.485 -4.5,5.023 -13.59,5.023 -22.67,5.023 -13.55,0 -22.66,-5.023 -36.22,-15.242 -9.1,-5.129 -18.03,-20.43 -18.03,-35.832 z m 231,-40.809 c -9.1,5.079 -13.68,5.079 -22.61,10.118 -4.51,10.312 -13.62,15.394 -13.62,25.664 -4.59,10.168 -4.59,20.429 -4.59,30.593 l 18.21,107.289 h 81.5 l -13.72,-97.023 c -4.46,0 0,-5.129 0,-5.129 0,-5.137 4.6,-5.137 4.6,-5.137 4.48,0 9.12,0 9.12,5.137 4.48,0 4.48,5.129 4.48,5.129 l 18.17,97.023 h 81.5 l -45.26,-255.437 h -81.51 l 17.98,86.852 c 0,0 -4.48,-5.079 -9.08,-5.079 -4.46,0 -8.9,0 -13.52,0 -4.48,0 -13.6,0 -18.07,0 -4.5,0 -9.08,0 -13.58,0 z m 126.86,-81.773 h 81.5 l 18.08,102.203 c 13.65,0 22.64,0 22.64,-5.129 4.64,-5.183 9.12,-10.222 4.64,-20.43 l -13.63,-76.644 h 81.54 l 13.61,86.852 c 4.58,15.351 -0.03,30.703 -4.51,40.863 -9.1,5.137 -18.19,10.269 -27.28,10.269 9.09,5.078 22.66,20.43 36.37,56.157 l 31.56,61.296 h -81.47 L 2695,411.102 c 0,-5.129 -4.48,-15.289 -9.12,-20.485 -4.49,-10.211 -8.99,-15.242 -8.99,-15.242 l 13.63,97.023 h -81.56 z m 212.96,0 27.09,163.437 c 4.47,15.415 9.01,35.79 22.72,51.079 9.06,15.351 22.66,25.566 40.66,35.886 13.65,10.164 31.75,15.188 54.39,15.188 18.1,0 31.79,-5.024 45.31,-15.188 13.59,-5.129 22.66,-15.343 31.72,-30.695 4.53,-15.297 4.53,-35.828 4.53,-61.293 l -27.16,-158.414 h -81.54 l 13.6,71.504 h -27.2 l 13.6,71.558 h 22.69 l 4.45,25.571 c 0,5.023 0,10.219 -4.45,15.246 0,0 -4.64,5.133 -9.09,5.133 -4.56,0 -9.1,-5.133 -13.6,-5.133 -4.55,-5.027 -4.57,-10.223 -9.07,-15.246 l -27.25,-168.633 h -81.4"
         style="fill:#00adef;fill-opacity:1;fill-rule:evenodd;stroke:none"
         id="path16"
         inkscape:connector-curvature="0" /><path
         d="M 668.164,139.906 H 1.81641 V 151 H 668.164 v -11.094"
         style="fill:#00adef;fill-opacity:1;fill-rule:evenodd;stroke:none"
         id="path18"
         inkscape:connector-curvature="0" /><path
         d="M 2996.21,139.906 H 2337.78 V 151 h 658.43 v -11.094"
         style="fill:#00adef;fill-opacity:1;fill-rule:evenodd;stroke:none"
         id="path20"
         inkscape:connector-curvature="0" /></g></g></svg>