<?xml version="1.0" encoding="UTF-8" standalone="no"?>
<!-- Created with Inkscape (http://www.inkscape.org/) -->

<svg
   xmlns:dc="http://purl.org/dc/elements/1.1/"
   xmlns:cc="http://creativecommons.org/ns#"
   xmlns:rdf="http://www.w3.org/1999/02/22-rdf-syntax-ns#"
   xmlns:svg="http://www.w3.org/2000/svg"
   xmlns="http://www.w3.org/2000/svg"
   xmlns:sodipodi="http://sodipodi.sourceforge.net/DTD/sodipodi-0.dtd"
   xmlns:inkscape="http://www.inkscape.org/namespaces/inkscape"
   width="292"
   height="80"
   viewBox="0 0 77.258334 21.166666"
   version="1.1"
   id="svg8"
   inkscape:version="0.92.2 (5c3e80d, 2017-08-06)"
   sodipodi:docname="alf-print-logo.svg">
  <defs
     id="defs2" />
  <sodipodi:namedview
     id="base"
     pagecolor="#ffffff"
     bordercolor="#666666"
     borderopacity="1.0"
     inkscape:pageopacity="0.0"
     inkscape:pageshadow="2"
     inkscape:zoom="1.979899"
     inkscape:cx="122.37739"
     inkscape:cy="-8.0078431"
     inkscape:document-units="mm"
     inkscape:current-layer="text819"
     showgrid="true"
     fit-margin-top="0"
     fit-margin-left="0"
     fit-margin-right="0"
     fit-margin-bottom="0"
     inkscape:window-width="1440"
     inkscape:window-height="863"
     inkscape:window-x="0"
     inkscape:window-y="0"
     inkscape:window-maximized="1"
     showguides="true"
     inkscape:guide-bbox="true"
     units="px">
    <inkscape:grid
       type="xygrid"
       id="grid815"
       enabled="false"
       originx="-54.446524"
       originy="-226.2395" />
    <sodipodi:guide
       position="63.477497,3.1062827e-07"
       orientation="0,1"
       id="guide1459"
       inkscape:locked="false" />
    <sodipodi:guide
       position="20.959729,20.959796"
       orientation="0,1"
       id="guide1461"
       inkscape:locked="false" />
  </sodipodi:namedview>
  <metadata
     id="metadata5">
    <rdf:RDF>
      <cc:Work
         rdf:about="">
        <dc:format>image/svg+xml</dc:format>
        <dc:type
           rdf:resource="http://purl.org/dc/dcmitype/StillImage" />
        <dc:title></dc:title>
      </cc:Work>
    </rdf:RDF>
  </metadata>
  <g
     inkscape:label="Layer 1"
     inkscape:groupmode="layer"
     id="layer1"
     transform="translate(-54.446521,-49.593803)">
    <g
       aria-label="Alf Print"
       style="font-style:normal;font-weight:normal;font-size:10.14946461px;line-height:1.25;font-family:sans-serif;letter-spacing:0px;word-spacing:0px;fill:#787878;fill-opacity:1;stroke:none;stroke-width:0.25373662"
       id="text819"
       transform="matrix(1.7516131,0,0,1.7516131,-51.924776,-45.002112)">
      <g
         id="g1507"
         transform="matrix(0.51222362,0,0,0.51222362,43.219435,29.471911)"
         style="fill:#868686;fill-opacity:1">
        <path
           inkscape:connector-curvature="0"
           id="path827"
           style="font-style:normal;font-variant:normal;font-weight:normal;font-stretch:normal;font-size:10.14946461px;font-family:'Roboto Condensed';-inkscape-font-specification:'Roboto Condensed, Normal';font-variant-ligatures:normal;font-variant-caps:normal;font-variant-numeric:normal;font-feature-settings:normal;text-align:start;writing-mode:lr-tb;text-anchor:start;fill:#868686;fill-opacity:1;stroke-width:0.28277069"
           d="m 83.243198,61.659962 h -2.717249 l -0.624085,2.098689 H 78.863566 L 81.45379,55.71736 h 0.86709 l 2.595746,8.041291 H 83.878327 Z M 80.791046,60.78735 h 2.192578 l -1.099051,-3.656137 z" />
        <path
           inkscape:connector-curvature="0"
           id="path829"
           style="font-style:normal;font-variant:normal;font-weight:normal;font-stretch:normal;font-size:10.14946461px;font-family:'Roboto Condensed';-inkscape-font-specification:'Roboto Condensed, Normal';font-variant-ligatures:normal;font-variant-caps:normal;font-variant-numeric:normal;font-feature-settings:normal;text-align:start;writing-mode:lr-tb;text-anchor:start;fill:#868686;fill-opacity:1;stroke-width:0.28277069"
           d="M 86.926949,63.758651 H 85.949402 V 55.27553 h 0.977547 z" />
        <path
           inkscape:connector-curvature="0"
           id="path831"
           style="font-style:normal;font-variant:normal;font-weight:normal;font-stretch:normal;font-size:10.14946461px;font-family:'Roboto Condensed';-inkscape-font-specification:'Roboto Condensed, Normal';font-variant-ligatures:normal;font-variant-caps:normal;font-variant-numeric:normal;font-feature-settings:normal;text-align:start;writing-mode:lr-tb;text-anchor:start;fill:#868686;fill-opacity:1;stroke-width:0.28277069"
           d="m 88.887565,63.758651 v -5.18597 h -0.778724 v -0.789769 h 0.778724 v -0.69036 q 0.01657,-0.911272 0.458398,-1.419376 0.447352,-0.513626 1.259214,-0.513626 0.292711,0 0.590946,0.09389 l -0.0497,0.82843 q -0.20987,-0.0497 -0.447353,-0.0497 -0.833952,0 -0.833952,1.187417 v 0.563332 h 1.021729 v 0.789769 h -1.021729 v 5.185971 z" />
        <path
           inkscape:connector-curvature="0"
           id="path833"
           style="font-style:normal;font-variant:normal;font-weight:normal;font-stretch:normal;font-size:10.14946461px;font-family:'Roboto Condensed';-inkscape-font-specification:'Roboto Condensed, Normal';font-variant-ligatures:normal;font-variant-caps:normal;font-variant-numeric:normal;font-feature-settings:normal;text-align:start;writing-mode:lr-tb;text-anchor:start;fill:#868686;fill-opacity:1;stroke-width:0.28277069"
           d="m 95.769056,60.610618 v 3.148033 H 94.758372 V 55.71736 h 2.562609 q 1.121142,0 1.761794,0.673789 0.640652,0.668267 0.640652,1.783886 0,1.159801 -0.613038,1.789408 -0.607516,0.624083 -1.717611,0.646175 z m 0,-0.86709 h 1.551925 q 0.673789,0 1.032775,-0.403169 0.358987,-0.40317 0.358987,-1.154279 0,-0.723495 -0.370033,-1.159801 -0.370032,-0.436307 -1.016207,-0.436307 h -1.557447 z" />
        <path
           inkscape:connector-curvature="0"
           id="path835"
           style="font-style:normal;font-variant:normal;font-weight:normal;font-stretch:normal;font-size:10.14946461px;font-family:'Roboto Condensed';-inkscape-font-specification:'Roboto Condensed, Normal';font-variant-ligatures:normal;font-variant-caps:normal;font-variant-numeric:normal;font-feature-settings:normal;text-align:start;writing-mode:lr-tb;text-anchor:start;fill:#868686;fill-opacity:1;stroke-width:0.28277069"
           d="m 103.36299,58.699706 q -0.20434,-0.03866 -0.44183,-0.03866 -0.7511,0 -1.04934,0.822907 v 4.274697 h -0.97755 v -5.975739 h 0.94994 l 0.0166,0.607514 q 0.39212,-0.717972 1.11009,-0.717972 0.23197,0 0.3866,0.07732 z" />
        <path
           inkscape:connector-curvature="0"
           id="path837"
           style="font-style:normal;font-variant:normal;font-weight:normal;font-stretch:normal;font-size:10.14946461px;font-family:'Roboto Condensed';-inkscape-font-specification:'Roboto Condensed, Normal';font-variant-ligatures:normal;font-variant-caps:normal;font-variant-numeric:normal;font-feature-settings:normal;text-align:start;writing-mode:lr-tb;text-anchor:start;fill:#868686;fill-opacity:1;stroke-width:0.28277069"
           d="m 105.39541,63.758651 h -0.97755 v -5.975739 h 0.97755 z m 0.0773,-7.560802 q 0,0.248529 -0.13807,0.414214 -0.13807,0.165686 -0.41974,0.165686 -0.27614,0 -0.41421,-0.165686 -0.13808,-0.165685 -0.13808,-0.414214 0,-0.248529 0.13808,-0.419738 0.13807,-0.171209 0.41421,-0.171209 0.27614,0 0.41422,0.176731 0.14359,0.17121 0.14359,0.414216 z" />
        <path
           inkscape:connector-curvature="0"
           id="path839"
           style="font-style:normal;font-variant:normal;font-weight:normal;font-stretch:normal;font-size:10.14946461px;font-family:'Roboto Condensed';-inkscape-font-specification:'Roboto Condensed, Normal';font-variant-ligatures:normal;font-variant-caps:normal;font-variant-numeric:normal;font-feature-settings:normal;text-align:start;writing-mode:lr-tb;text-anchor:start;fill:#868686;fill-opacity:1;stroke-width:0.28277069"
           d="m 107.84756,57.782912 0.0276,0.646174 q 0.56885,-0.756632 1.45251,-0.756632 1.58506,0 1.60716,2.115256 v 3.970941 h -0.97203 v -3.926757 q 0,-0.701404 -0.23748,-0.994116 -0.23197,-0.298235 -0.70141,-0.298235 -0.36451,0 -0.65722,0.243006 -0.28719,0.243007 -0.46391,0.63513 v 4.340972 h -0.97756 v -5.975739 z" />
        <path
           inkscape:connector-curvature="0"
           id="path841"
           style="font-style:normal;font-variant:normal;font-weight:normal;font-stretch:normal;font-size:10.14946461px;font-family:'Roboto Condensed';-inkscape-font-specification:'Roboto Condensed, Normal';font-variant-ligatures:normal;font-variant-caps:normal;font-variant-numeric:normal;font-feature-settings:normal;text-align:start;writing-mode:lr-tb;text-anchor:start;fill:#868686;fill-opacity:1;stroke-width:0.28277069"
           d="m 113.68523,56.335921 v 1.446991 h 0.90023 v 0.789769 h -0.90023 v 3.705842 q 0,0.353464 0.11598,0.535718 0.11599,0.182254 0.39765,0.182254 0.19329,0 0.39212,-0.06628 l -0.0112,0.82843 q -0.33137,0.110462 -0.67931,0.110462 -0.5799,0 -0.88366,-0.414215 -0.30376,-0.414215 -0.30376,-1.170848 v -3.711365 h -0.91126 V 57.78291 h 0.91126 v -1.446991 z" />
      </g>
      <rect
         style="opacity:1;vector-effect:none;fill:#ff0000;fill-opacity:1;stroke:none;stroke-width:0.10289921;stroke-linecap:butt;stroke-linejoin:round;stroke-miterlimit:4;stroke-dasharray:none;stroke-dashoffset:0;stroke-opacity:1"
         id="rect838"
         width="4.5456719"
         height="2.2757909"
         x="81.80735"
         y="54.129875" />
      <rect
         y="56.262821"
         x="86.953178"
         height="0.14284427"
         width="6.8006778"
         id="rect840"
         style="opacity:1;vector-effect:none;fill:#ff0000;fill-opacity:1;stroke:none;stroke-width:0.03153219;stroke-linecap:butt;stroke-linejoin:round;stroke-miterlimit:4;stroke-dasharray:none;stroke-dashoffset:0;stroke-opacity:1" />
      <rect
         y="-66.089127"
         x="-104.82247"
         height="2.2836094"
         width="2.2836094"
         id="rect842"
         style="opacity:1;vector-effect:none;fill:#ff0000;fill-opacity:1;stroke:none;stroke-width:0.07305814;stroke-linecap:butt;stroke-linejoin:round;stroke-miterlimit:4;stroke-dasharray:none;stroke-dashoffset:0;stroke-opacity:1"
         transform="scale(-1)" />
      <rect
         style="opacity:1;vector-effect:none;fill:#ff0000;fill-opacity:1;stroke:none;stroke-width:0.04012489;stroke-linecap:butt;stroke-linejoin:round;stroke-miterlimit:4;stroke-dasharray:none;stroke-dashoffset:0;stroke-opacity:1"
         id="rect844"
         width="11.012138"
         height="0.14284427"
         x="-101.91847"
         y="-63.948364"
         transform="scale(-1)" />
    </g>
    <path
       inkscape:connector-curvature="0"
       id="path902"
       style="fill:#868686;fill-opacity:1;stroke:none;stroke-width:0.0294244px;stroke-linecap:butt;stroke-linejoin:miter;stroke-opacity:1"
       d="m 64.107611,62.694611 h 1.553746 v 8.065857 h -1.553746 z m -8.355382,0 h 1.553747 v 8.065857 h -1.553747 z m 2.113826,-1.124219 h 5.679734 v 0.846641 h -5.679734 z"
       sodipodi:nodetypes="ccccccccccccccc" />
    <path
       id="path943"
       d="m 60.706966,49.800671 -6.260445,10.84341 h 11.216962 l 5.840744,10.116363 h 1.303869 z m 2.58e-4,2.258782 4.303952,7.454776 h -8.607989 z"
       style="fill:#ff0016;fill-opacity:1;stroke:none;stroke-width:0.0294244px;stroke-linecap:butt;stroke-linejoin:miter;stroke-opacity:1"
       inkscape:connector-curvature="0" />
  </g>
</svg>
