<?xml version="1.0" encoding="UTF-8" standalone="no"?>
<!-- Created with Inkscape (http://www.inkscape.org/) -->

<svg
   xmlns:dc="http://purl.org/dc/elements/1.1/"
   xmlns:cc="http://creativecommons.org/ns#"
   xmlns:rdf="http://www.w3.org/1999/02/22-rdf-syntax-ns#"
   xmlns:svg="http://www.w3.org/2000/svg"
   xmlns="http://www.w3.org/2000/svg"
   xmlns:sodipodi="http://sodipodi.sourceforge.net/DTD/sodipodi-0.dtd"
   xmlns:inkscape="http://www.inkscape.org/namespaces/inkscape"
   width="500.00003"
   height="500.00003"
   viewBox="0 0 132.29168 132.29168"
   version="1.1"
   id="svg8"
   inkscape:version="0.92.2 (5c3e80d, 2017-08-06)"
   sodipodi:docname="icon_for_icons.svg">
  <defs
     id="defs2" />
  <sodipodi:namedview
     id="base"
     pagecolor="#505050"
     bordercolor="#666666"
     borderopacity="1.0"
     inkscape:pageopacity="0"
     inkscape:pageshadow="2"
     inkscape:zoom="0.70710678"
     inkscape:cx="639.33223"
     inkscape:cy="246.77701"
     inkscape:document-units="px"
     inkscape:current-layer="layer1"
     showgrid="true"
     width="1920mm"
     units="px"
     showguides="true"
     inkscape:guide-bbox="true"
     objecttolerance="10"
     gridtolerance="10"
     guidetolerance="10"
     guidecolor="#00c4ff"
     guideopacity="0.49803922"
     guidehicolor="#ffc87c"
     guidehiopacity="0.49803922"
     inkscape:window-width="1440"
     inkscape:window-height="863"
     inkscape:window-x="0"
     inkscape:window-y="0"
     inkscape:window-maximized="1"
     fit-margin-top="0"
     fit-margin-left="0"
     fit-margin-right="0"
     fit-margin-bottom="0">
    <inkscape:grid
       type="xygrid"
       id="grid1088"
       spacingx="2.6458334"
       spacingy="2.6458334"
       empcolor="#3fb8ff"
       empopacity="0.25098039"
       color="#afe14b"
       opacity="0.1254902"
       originx="0"
       originy="0" />
  </sodipodi:namedview>
  <metadata
     id="metadata5">
    <rdf:RDF>
      <cc:Work
         rdf:about="">
        <dc:format>image/svg+xml</dc:format>
        <dc:type
           rdf:resource="http://purl.org/dc/dcmitype/StillImage" />
        <dc:title></dc:title>
      </cc:Work>
    </rdf:RDF>
  </metadata>
  <g
     inkscape:label="Layer 1"
     inkscape:groupmode="layer"
     id="layer1"
     transform="translate(-181.75111,-94.082207)">
    <path
       style="opacity:1;vector-effect:none;fill:#000f00;fill-opacity:1;stroke:none;stroke-width:31.87779999;stroke-linecap:butt;stroke-linejoin:miter;stroke-miterlimit:4;stroke-dasharray:none;stroke-dashoffset:0;stroke-opacity:0.83884301"
       d="M 67.291016,0 C 26.786236,0 0,27.148693 0,67.291016 V 432.70898 C 0,473.20806 27.124542,500 67.291016,500 H 432.70898 C 472.54067,500 500,472.3004 500,432.70898 V 67.291016 C 500,27.774129 472.68852,0 432.70898,0 Z M 469.998,435.12305 C 469.96403,455.52097 455.3458,470 435.12109,470 H 249.99805 l -185.103519,0.0195 c -20.224702,0 -34.855469,-14.63076 -34.855469,-34.85547 v -54.16601 l 88.646488,-75.71094 c 11.31458,-9.66361 14.81058,-10.65268 27.45703,-0.041 L 187.5625,340 c 21.52343,18.06032 22.43749,18.48243 42.4375,-1.51758 l 130,-130 c 8.48202,-8.48213 13.32626,-8.48209 20,-0.2539 l 90,111.7715 z M 403.16602,190 c -18.40056,-22.68631 -43.16603,-22.53124 -65.69727,0 L 207.69922,319.76953 163.88281,283.00391 C 140.65705,263.51515 123.33057,263.47814 100,283.4043 L 30.039062,343.1582 V 64.835938 c 0,-20.249968 14.550814,-34.800782 34.800787,-34.800782 H 435.1582 C 455.34696,29.997361 470,44.681576 470,64.906278 V 272.40039 Z M 157.44922,60.808594 c -39.53848,-4.47e-4 -71.591167,32.051365 -71.591798,71.589846 -4.42e-4,39.53924 32.052558,71.59224 71.591798,71.59179 39.53848,-6.3e-4 71.59028,-32.05331 71.58984,-71.59179 -6.3e-4,-39.537716 -32.05212,-71.589211 -71.58984,-71.589846 z m 0,29.921875 c 23.01231,6.53e-4 41.66732,18.655661 41.66797,41.667971 4.2e-4,23.01308 -18.65489,41.66927 -41.66797,41.66992 -23.01384,4.2e-4 -41.67034,-18.65608 -41.66992,-41.66992 6.5e-4,-23.01308 18.65684,-41.668395 41.66992,-41.667971 z"
       transform="matrix(0.26458334,0,0,0.26458334,181.75111,94.082207)"
       id="rect3617"
       inkscape:connector-curvature="0"
       sodipodi:nodetypes="ssssssssscsccsccccsccccssccccsccccscccccccccc" />
  </g>
</svg>
