<?xml version="1.0" encoding="UTF-8" standalone="no"?>
<!-- Created with Inkscape (http://www.inkscape.org/) -->

<svg
   xmlns:dc="http://purl.org/dc/elements/1.1/"
   xmlns:cc="http://creativecommons.org/ns#"
   xmlns:rdf="http://www.w3.org/1999/02/22-rdf-syntax-ns#"
   xmlns:svg="http://www.w3.org/2000/svg"
   xmlns="http://www.w3.org/2000/svg"
   xmlns:sodipodi="http://sodipodi.sourceforge.net/DTD/sodipodi-0.dtd"
   xmlns:inkscape="http://www.inkscape.org/namespaces/inkscape"
   width="117.49505mm"
   height="48.782738mm"
   viewBox="0 0 117.49505 48.782738"
   version="1.1"
   id="svg275"
   inkscape:version="0.92.2 (5c3e80d, 2017-08-06)"
   sodipodi:docname="arcelor_mitall.svg">
  <defs
     id="defs269" />
  <sodipodi:namedview
     id="base"
     pagecolor="#ffffff"
     bordercolor="#666666"
     borderopacity="1.0"
     inkscape:pageopacity="0.0"
     inkscape:pageshadow="2"
     inkscape:zoom="0.98994949"
     inkscape:cx="458.11524"
     inkscape:cy="-3.6625467"
     inkscape:document-units="mm"
     inkscape:current-layer="layer1"
     showgrid="false"
     fit-margin-top="0"
     fit-margin-left="0"
     fit-margin-right="0"
     fit-margin-bottom="0"
     inkscape:window-width="1440"
     inkscape:window-height="863"
     inkscape:window-x="0"
     inkscape:window-y="0"
     inkscape:window-maximized="1" />
  <metadata
     id="metadata272">
    <rdf:RDF>
      <cc:Work
         rdf:about="">
        <dc:format>image/svg+xml</dc:format>
        <dc:type
           rdf:resource="http://purl.org/dc/dcmitype/StillImage" />
        <dc:title></dc:title>
      </cc:Work>
    </rdf:RDF>
  </metadata>
  <g
     inkscape:label="Layer 1"
     inkscape:groupmode="layer"
     id="layer1"
     transform="translate(-338.88343,-196.25744)">
    <g
       transform="matrix(0.64055157,0,0,-0.64055157,298.55225,270.53868)"
       id="g1000">
      <path
         d="m 71.8252,58.3691 h -0.06 l -4.087,-11.488 h 8.236 z m -6.326,-17.576 c -0.209,-0.568 -0.568,-0.986 -1.283,-0.986 -0.687,0 -1.253,0.418 -1.253,1.105 0,0.357 0.268,1.045 0.357,1.312 l 6.596,17.578 c 0.328,0.924 0.865,1.611 1.88,1.611 1.014,0 1.551,-0.687 1.88,-1.611 l 6.594,-17.578 c 0.09,-0.267 0.359,-0.955 0.359,-1.312 0,-0.687 -0.568,-1.105 -1.254,-1.105 -0.716,0 -1.074,0.418 -1.283,0.986 l -1.372,3.819 h -9.848 z"
         style="fill:#ee3423;fill-opacity:1;fill-rule:nonzero;stroke:none"
         id="path22"
         inkscape:connector-curvature="0" />
      <path
         d="m 82.6572,54.6387 c 0,0.865 0.508,1.402 1.313,1.402 0.806,0 1.313,-0.537 1.313,-1.402 v -1.343 h 0.061 c 0.596,1.224 2.058,2.745 3.58,2.745 0.925,0 1.462,-0.595 1.462,-1.341 0,-0.747 -0.537,-1.225 -1.641,-1.434 -1.552,-0.268 -3.462,-1.432 -3.462,-4.506 v -7.549 c 0,-0.866 -0.507,-1.403 -1.313,-1.403 -0.805,0 -1.313,0.537 -1.313,1.403 z"
         style="fill:#ee3423;fill-opacity:1;fill-rule:nonzero;stroke:none"
         id="path26"
         inkscape:connector-curvature="0" />
      <path
         d="m 98.5322,56.041 c 2.687,0 4.268,-0.925 4.268,-1.999 0,-0.537 -0.448,-1.105 -1.075,-1.105 -1.014,0 -1.402,0.836 -3.193,0.836 -3.252,0 -4.535,-3.163 -4.535,-5.848 0,-2.687 1.283,-5.849 4.535,-5.849 1.851,0 2.328,0.895 3.163,0.895 0.598,0 1.015,-0.388 1.015,-1.104 0,-0.985 -1.462,-2.059 -4.178,-2.059 -4.834,0 -7.161,3.909 -7.161,8.117 0,4.208 2.327,8.116 7.161,8.116"
         style="fill:#ee3423;fill-opacity:1;fill-rule:nonzero;stroke:none"
         id="path30"
         inkscape:connector-curvature="0" />
      <path
         d="m 115.6914,48.8789 c 0,2.269 -1.313,4.895 -4.207,4.895 -3.253,0.119 -4.417,-2.477 -4.506,-4.895 z m -8.713,-1.969 c 0,-2.716 1.731,-4.834 4.685,-4.834 3.491,0 4.386,2.149 5.371,2.149 0.477,0 0.955,-0.418 0.955,-1.164 0,-1.284 -3.252,-3.253 -6.356,-3.253 -5.073,0 -7.282,3.909 -7.282,8.117 0,4.297 2.687,8.116 7.133,8.116 4.327,0 6.833,-3.908 6.833,-7.728 0,-0.925 -0.328,-1.403 -1.462,-1.403 z"
         style="fill:#ee3423;fill-opacity:1;fill-rule:nonzero;stroke:none"
         id="path34"
         inkscape:connector-curvature="0" />
      <path
         d="m 123.4492,41.2109 c 0,-0.866 -0.507,-1.403 -1.313,-1.403 -0.805,0 -1.313,0.537 -1.313,1.403 v 20.411 c 0,0.865 0.508,1.402 1.313,1.402 0.806,0 1.313,-0.537 1.313,-1.402 z"
         style="fill:#ee3423;fill-opacity:1;fill-rule:nonzero;stroke:none"
         id="path38"
         inkscape:connector-curvature="0" />
      <path
         d="m 133.208,42.0762 c 3.223,0 4.356,3.162 4.356,5.849 0,2.685 -1.133,5.848 -4.356,5.848 -3.223,0 -4.356,-3.163 -4.356,-5.848 0,-2.687 1.133,-5.849 4.356,-5.849 m 0,13.965 c 4.477,0 6.982,-3.908 6.982,-8.116 0,-4.208 -2.505,-8.118 -6.982,-8.118 -4.477,0 -6.982,3.91 -6.982,8.118 0,4.208 2.505,8.116 6.982,8.116"
         style="fill:#ee3423;fill-opacity:1;fill-rule:nonzero;stroke:none"
         id="path42"
         inkscape:connector-curvature="0" />
      <path
         d="m 142.9648,54.6387 c 0,0.865 0.508,1.402 1.313,1.402 0.806,0 1.313,-0.537 1.313,-1.402 v -1.343 h 0.061 c 0.596,1.224 2.058,2.745 3.58,2.745 0.925,0 1.462,-0.595 1.462,-1.341 0,-0.747 -0.537,-1.225 -1.641,-1.434 -1.552,-0.268 -3.462,-1.432 -3.462,-4.506 v -7.549 c 0,-0.866 -0.507,-1.403 -1.313,-1.403 -0.805,0 -1.313,0.537 -1.313,1.403 z"
         style="fill:#ee3423;fill-opacity:1;fill-rule:nonzero;stroke:none"
         id="path46"
         inkscape:connector-curvature="0" />
      <path
         d="m 155.6182,40.9414 c -0.119,-0.925 -0.716,-1.134 -1.402,-1.134 -0.806,0 -1.224,0.537 -1.224,1.343 0,0.299 0.06,0.687 0.149,1.193 l 2.895,17.071 c 0.269,1.492 1.104,1.999 2.06,1.999 1.043,0 1.611,-0.388 1.909,-1.373 l 4.536,-15.548 h 0.059 l 4.537,15.548 c 0.297,0.985 0.865,1.373 1.91,1.373 0.954,0 1.79,-0.507 2.058,-1.999 l 2.895,-17.071 c 0.09,-0.506 0.149,-0.894 0.149,-1.193 0,-0.806 -0.418,-1.343 -1.223,-1.343 -0.687,0 -1.284,0.209 -1.403,1.134 l -2.476,17.07 h -0.061 l -5.072,-17.13 c -0.269,-0.865 -0.746,-1.074 -1.343,-1.074 -0.598,0 -1.075,0.209 -1.344,1.074 l -5.072,17.13 h -0.059 z"
         style="fill:#ee3423;fill-opacity:1;fill-rule:nonzero;stroke:none"
         id="path50"
         inkscape:connector-curvature="0" />
      <path
         d="m 181.6689,41.2109 c 0,-0.866 -0.507,-1.403 -1.313,-1.403 -0.805,0 -1.313,0.537 -1.313,1.403 v 13.428 c 0,0.865 0.508,1.402 1.313,1.402 0.806,0 1.313,-0.537 1.313,-1.402 z m -1.313,20.202 c 0.896,0 1.612,-0.716 1.612,-1.611 0,-0.896 -0.716,-1.612 -1.612,-1.612 -0.895,0 -1.611,0.716 -1.611,1.612 0,0.895 0.716,1.611 1.611,1.611"
         style="fill:#ee3423;fill-opacity:1;fill-rule:nonzero;stroke:none"
         id="path54"
         inkscape:connector-curvature="0" />
      <path
         d="m 186.2646,59.2949 c 0,0.865 0.507,1.402 1.313,1.402 0.806,0 1.313,-0.537 1.313,-1.402 v -3.433 h 1.074 c 0.865,0 1.314,-0.417 1.314,-1.133 0,-0.717 -0.449,-1.134 -1.314,-1.134 h -1.074 v -12.384 c 0,-0.866 -0.507,-1.403 -1.313,-1.403 -0.806,0 -1.313,0.537 -1.313,1.403 v 12.384 h -1.074 c -0.865,0 -1.314,0.417 -1.314,1.134 0,0.716 0.449,1.133 1.314,1.133 h 1.074 z"
         style="fill:#ee3423;fill-opacity:1;fill-rule:nonzero;stroke:none"
         id="path58"
         inkscape:connector-curvature="0" />
      <path
         d="m 194.7695,59.2949 c 0,0.865 0.507,1.402 1.313,1.402 0.806,0 1.313,-0.537 1.313,-1.402 v -3.433 h 1.074 c 0.865,0 1.314,-0.417 1.314,-1.133 0,-0.717 -0.449,-1.134 -1.314,-1.134 h -1.074 v -12.384 c 0,-0.866 -0.507,-1.403 -1.313,-1.403 -0.806,0 -1.313,0.537 -1.313,1.403 v 12.384 h -1.074 c -0.865,0 -1.314,0.417 -1.314,1.134 0,0.716 0.449,1.133 1.314,1.133 h 1.074 z"
         style="fill:#ee3423;fill-opacity:1;fill-rule:nonzero;stroke:none"
         id="path62"
         inkscape:connector-curvature="0" />
      <path
         d="m 208.1387,42.0762 c 3.223,0 4.356,3.162 4.356,5.849 0,2.685 -1.133,5.848 -4.356,5.848 -3.223,0 -4.356,-3.163 -4.356,-5.848 0,-2.687 1.133,-5.849 4.356,-5.849 m 6.834,-0.985 c 0,-0.925 -0.717,-1.284 -1.224,-1.284 -0.537,0 -1.223,0.359 -1.223,1.284 v 1.104 h -0.06 c -1.134,-1.611 -2.626,-2.388 -4.327,-2.388 -4.477,0 -6.982,3.91 -6.982,8.118 0,4.208 2.505,8.116 6.982,8.116 1.82,0 3.104,-0.776 4.327,-2.118 h 0.06 v 0.835 c 0,0.925 0.686,1.283 1.223,1.283 0.507,0 1.224,-0.358 1.224,-1.283 z"
         style="fill:#ee3423;fill-opacity:1;fill-rule:nonzero;stroke:none"
         id="path66"
         inkscape:connector-curvature="0" />
      <path
         d="m 221.208,41.2109 c 0,-0.866 -0.507,-1.403 -1.313,-1.403 -0.805,0 -1.313,0.537 -1.313,1.403 v 20.411 c 0,0.865 0.508,1.402 1.313,1.402 0.806,0 1.313,-0.537 1.313,-1.402 z"
         style="fill:#ee3423;fill-opacity:1;fill-rule:nonzero;stroke:none"
         id="path70"
         inkscape:connector-curvature="0" />
      <path
         d="m 245,90.4824 c -3.318,3.016 -7,5.666 -9.334,7.332 -2.334,1.667 -11.333,7.334 -16.333,10 -3.167,1.689 -10.667,5.334 -17,7.002 -4.384,1.154 -9.333,1.332 -12.667,0.998 -3.334,-0.333 -7.061,-2.102 -8,-6.332 -0.666,-3 1.334,-8 1.334,-8 0,0 1.333,0.332 3.667,0.666 2.529,0.361 2.257,0.045 3.666,0.334 l -1,4.666 c 0.333,2 3.667,3 13,0.334 7.618,-2.177 25.333,-10.668 25.333,-10.668 0,0 -13.666,6 -29,5.334 -10.19,-0.443 -15,-0.834 -27,-5.334 -10.676,-4.003 -22.333,-12.666 -24.333,-14.666 -2.666,-2.666 -1.846,-3.861 -0.667,-5.334 1.334,-1.666 4.081,-1.123 6.667,0.668 4.334,3 12.667,9.332 19.334,12 6.667,2.666 9.605,3.188 15,4.332 1.634,-2.508 10.388,-15.053 12,-16.666 1,-1 2.999,-2.667 4.999,-1.334 2,1.334 2.334,2.668 0.001,6.334 -1.455,2.285 -6.116,9.326 -8.334,12.666 0.088,0.008 -0.056,0 0,0 4,0 10.724,0.177 16,-0.667 8.334,-1.333 14.667,-3.665 18.334,-5.333 3.667,-1.666 6.876,-3.246 9.999,-4.666 3.667,-1.666 8.001,3 4.334,6.334"
         style="fill:#ee3423;fill-opacity:1;fill-rule:nonzero;stroke:none"
         id="path74"
         inkscape:connector-curvature="0" />
    </g>
  </g>
</svg>
