<svg xmlns="http://www.w3.org/2000/svg" width="494.434" height="359.749" viewBox="0 0 494.434 359.749">
  <g id="Group_31" data-name="Group 31" transform="translate(-192.153 -169.195)">
    <g id="Group_22" data-name="Group 22">
      <path id="Path_200" data-name="Path 200" d="M219.665,415.8l-8.81-17.295h-4.248V415.8H192.153v-51.83h21.638c11.952,0,19.378,6.649,19.378,17.349,0,6.242-2.912,11.566-7.746,14.441l10.633,20.04Zm-6.823-29.032c2.561,0,5.612-.91,5.612-5.249,0-3.34-2.082-5.256-5.712-5.256h-6.135v10.505Z"/>
      <path id="Path_201" data-name="Path 201" d="M266.75,416.614c-15.235,0-25.079-10.485-25.079-26.713,0-16.25,9.844-26.75,25.079-26.75s25.079,10.5,25.079,26.75C291.829,406.129,281.985,416.614,266.75,416.614Zm0-40.648c-6.432,0-10.428,5.34-10.428,13.935,0,8.554,4,13.866,10.428,13.866,6.411,0,10.393-5.312,10.393-13.866C277.143,381.306,273.161,375.966,266.75,375.966Z"/>
      <path id="Path_202" data-name="Path 202" d="M301.671,415.8v-51.83h22.851c10.159,0,16.724,5.524,16.724,14.074a12.689,12.689,0,0,1-4.921,9.97,13.394,13.394,0,0,1,7.184,11.979c0,9.6-7.312,15.807-18.628,15.807Zm20.69-11.929c6.5,0,6.5-3.388,6.5-4.664,0-1.231,0-4.5-6.729-4.5h-6v9.166Zm-1.411-20.247c3.987,0,6.008-1.358,6.008-4.039,0-.911,0-3.681-4.991-3.681h-5.842v7.72Z"/>
      <rect id="Rectangle_11" data-name="Rectangle 11" width="14.454" height="51.829" transform="translate(352.631 363.967)"/>
      <path id="Path_203" data-name="Path 203" d="M411.41,415.8l-18.95-26.532V415.8H378.434V363.967H390.14l18.887,26.342V363.967h14.026V415.8Z"/>
      <path id="Path_204" data-name="Path 204" d="M455.721,415.8v-51.83h22.851c10.159,0,16.724,5.524,16.724,14.074a12.689,12.689,0,0,1-4.921,9.97,13.4,13.4,0,0,1,7.183,11.979c0,9.6-7.312,15.807-18.628,15.807Zm20.689-11.929c6.5,0,6.5-3.388,6.5-4.664,0-1.231,0-4.5-6.729-4.5h-6v9.166ZM475,383.621c3.987,0,6.008-1.358,6.008-4.039,0-.911,0-3.681-4.991-3.681h-5.842v7.72Z"/>
      <path id="Path_205" data-name="Path 205" d="M530.283,416.614c-15.234,0-25.078-10.485-25.078-26.713,0-16.25,9.844-26.75,25.078-26.75s25.079,10.5,25.079,26.75C555.362,406.129,545.518,416.614,530.283,416.614Zm0-40.648c-6.432,0-10.428,5.34-10.428,13.935,0,8.554,4,13.866,10.428,13.866,6.411,0,10.394-5.312,10.394-13.866C540.677,381.306,536.694,375.966,530.283,375.966Z"/>
      <path id="Path_206" data-name="Path 206" d="M565.2,415.8v-51.83h22.851c10.16,0,16.724,5.524,16.724,14.074a12.688,12.688,0,0,1-4.921,9.97,13.394,13.394,0,0,1,7.184,11.979c0,9.6-7.312,15.807-18.628,15.807Zm20.69-11.929c6.5,0,6.5-3.388,6.5-4.664,0-1.231,0-4.5-6.729-4.5h-6v9.166Zm-1.411-20.247c3.987,0,6.009-1.358,6.009-4.039,0-.911,0-3.681-4.991-3.681h-5.842v7.72Z"/>
      <rect id="Rectangle_12" data-name="Rectangle 12" width="14.453" height="51.829" transform="translate(616.164 363.967)"/>
      <path id="Path_207" data-name="Path 207" d="M674.944,415.8l-18.95-26.532V415.8H641.967V363.967h11.706l18.888,26.342V363.967h14.026V415.8Z"/>
      <path id="Path_208" data-name="Path 208" d="M204.326,413.516h-9.892V366.248H213.79c10.875,0,17.1,5.735,17.1,15.068,0,6.062-3.145,11.3-8.582,13.433l9.957,18.767h-11.2l-8.809-17.295h-7.927Zm0-24.47h8.516c4.979,0,7.893-2.848,7.893-7.53,0-4.585-3.079-7.537-7.993-7.537h-8.416Z" fill="#6c4d23"/>
      <path id="Path_209" data-name="Path 209" d="M213.79,366.249c10.875,0,17.1,5.734,17.1,15.067,0,6.062-3.145,11.3-8.582,13.433l9.957,18.767h-11.2l-8.809-17.295h-7.927v17.295h-9.892V366.249H213.79m-9.464,22.8h8.516c4.979,0,7.893-2.848,7.893-7.53,0-4.585-3.079-7.537-7.993-7.537h-8.416v15.067m9.464-23.763H193.469v49.2h11.823V397.187h6.369l8.541,16.767.268.528h13.4l-.753-1.418-9.469-17.847c5.09-2.449,8.206-7.677,8.206-13.9,0-10.039-6.753-16.033-18.064-16.033Zm-8.5,9.661h7.45c4.335,0,7.027,2.518,7.027,6.572,0,4.172-2.524,6.565-6.927,6.565h-7.55V374.944Z" fill="#fff"/>
      <path id="Path_210" data-name="Path 210" d="M289.548,389.9c0,15.032-8.814,24.431-22.8,24.431-14.019,0-22.8-9.4-22.8-24.431,0-15.068,8.779-24.47,22.8-24.47C280.734,365.432,289.548,374.834,289.548,389.9Zm-35.507,0c0,9.888,4.944,16.146,12.709,16.146,7.73,0,12.674-6.258,12.674-16.146,0-9.927-4.944-16.216-12.674-16.216S254.041,379.975,254.041,389.9Z" fill="#6c4d23"/>
      <path id="Path_211" data-name="Path 211" d="M266.75,365.432c13.984,0,22.8,9.4,22.8,24.47,0,15.032-8.814,24.431-22.8,24.431-14.019,0-22.8-9.4-22.8-24.431,0-15.068,8.779-24.47,22.8-24.47m0,40.616c7.73,0,12.674-6.258,12.674-16.146,0-9.927-4.944-16.216-12.674-16.216s-12.709,6.289-12.709,16.216c0,9.888,4.944,16.146,12.709,16.146m0-41.582c-7.156,0-13.159,2.383-17.362,6.892-4.188,4.492-6.4,10.9-6.4,18.544,0,7.623,2.213,14.025,6.4,18.511,4.2,4.505,10.208,6.886,17.362,6.886s13.14-2.381,17.348-6.885,6.415-10.893,6.415-18.512c0-7.635-2.218-14.048-6.414-18.544s-10.207-6.892-17.349-6.892Zm0,40.617c-7.244,0-11.744-5.817-11.744-15.181,0-9.407,4.5-15.251,11.744-15.251,7.222,0,11.709,5.844,11.709,15.251,0,9.364-4.487,15.181-11.709,15.181Z" fill="#fff"/>
      <path id="Path_212" data-name="Path 212" d="M303.952,413.516V366.248h20.57c8.875,0,14.444,4.555,14.444,11.792a10.424,10.424,0,0,1-8.875,10.255v.262c6.42.489,11.137,5.175,11.137,11.433,0,8.316-6.259,13.526-16.347,13.526Zm9.892-27.614h7.106c5.276,0,8.289-2.324,8.289-6.32,0-3.8-2.655-5.962-7.271-5.962h-8.124Zm8.517,20.246c5.7,0,8.778-2.428,8.778-6.944,0-4.424-3.179-6.782-9.01-6.782h-8.285v13.726Z" fill="#6c4d23"/>
      <path id="Path_213" data-name="Path 213" d="M324.522,366.249c8.875,0,14.444,4.554,14.444,11.791a10.424,10.424,0,0,1-8.875,10.255v.262c6.42.489,11.137,5.175,11.137,11.433,0,8.316-6.259,13.526-16.347,13.526H303.952V366.249h20.57M313.844,385.9h7.106c5.276,0,8.289-2.324,8.289-6.32,0-3.8-2.655-5.962-7.271-5.962h-8.124V385.9m0,20.246h8.517c5.7,0,8.778-2.428,8.778-6.944,0-4.424-3.179-6.782-9.01-6.782h-8.285v13.726m10.678-40.865H302.987v49.2h21.894c10.678,0,17.312-5.553,17.312-14.492a12.218,12.218,0,0,0-8.7-11.75,11.422,11.422,0,0,0,6.441-10.2c0-7.749-6.048-12.757-15.409-12.757Zm-9.712,9.3h7.158c5.487,0,6.306,3.13,6.306,5,0,4.659-4.589,5.354-7.324,5.354h-6.14v-10.35Zm0,18.8h7.319c5.338,0,8.045,1.957,8.045,5.817,0,3.967-2.629,5.979-7.813,5.979H314.81v-11.8Z" fill="#fff"/>
      <path id="Path_214" data-name="Path 214" d="M354.912,413.516V366.248H364.8v47.268Z" fill="#6c4d23"/>
      <path id="Path_215" data-name="Path 215" d="M364.8,366.249v47.267h-9.892V366.249H364.8m.965-.966H353.946v49.2h11.823v-49.2Z" fill="#fff"/>
      <path id="Path_216" data-name="Path 216" d="M380.715,413.516V366.248h8.254l22.077,30.79h.262v-30.79h9.465v47.268h-8.189l-22.108-30.952h-.3v30.952Z" fill="#6c4d23"/>
      <path id="Path_217" data-name="Path 217" d="M420.773,366.249v47.267h-8.189l-22.108-30.952h-.3v30.952h-9.464V366.249h8.254l22.077,30.789h.262V366.249h9.465m.965-.966h-11.4V394.4l-20.589-28.715-.289-.4H379.75v49.2h11.395v-29.32L411.8,414.077l.289.4h9.651v-49.2Z" fill="#fff"/>
      <path id="Path_218" data-name="Path 218" d="M458,413.516V366.248h20.57c8.875,0,14.443,4.555,14.443,11.792a10.424,10.424,0,0,1-8.874,10.255v.262c6.42.489,11.136,5.175,11.136,11.433,0,8.316-6.258,13.526-16.346,13.526Zm9.892-27.614H475c5.276,0,8.289-2.324,8.289-6.32,0-3.8-2.655-5.962-7.272-5.962h-8.123Zm8.516,20.246c5.7,0,8.779-2.428,8.779-6.944,0-4.424-3.179-6.782-9.01-6.782h-8.285v13.726Z" fill="#6c4d23"/>
      <path id="Path_219" data-name="Path 219" d="M478.572,366.249c8.875,0,14.443,4.554,14.443,11.791a10.424,10.424,0,0,1-8.874,10.255v.262c6.42.489,11.136,5.175,11.136,11.433,0,8.316-6.258,13.526-16.346,13.526H458V366.249h20.57M467.894,385.9H475c5.276,0,8.289-2.324,8.289-6.32,0-3.8-2.655-5.962-7.272-5.962h-8.123V385.9m0,20.246h8.516c5.7,0,8.779-2.428,8.779-6.944,0-4.424-3.179-6.782-9.01-6.782h-8.285v13.726m10.678-40.865H457.037v49.2h21.894c10.678,0,17.312-5.553,17.312-14.492a12.218,12.218,0,0,0-8.7-11.75,11.422,11.422,0,0,0,6.441-10.2c0-7.749-6.048-12.757-15.409-12.757Zm-9.713,9.3h7.158c5.487,0,6.307,3.13,6.307,5,0,4.659-4.589,5.354-7.324,5.354h-6.141v-10.35Zm0,18.8h7.32c5.338,0,8.044,1.957,8.044,5.817,0,3.967-2.628,5.979-7.813,5.979h-7.551v-11.8Z" fill="#fff"/>
      <path id="Path_220" data-name="Path 220" d="M553.081,389.9c0,15.032-8.813,24.431-22.8,24.431-14.019,0-22.8-9.4-22.8-24.431,0-15.068,8.778-24.47,22.8-24.47C544.268,365.432,553.081,374.834,553.081,389.9Zm-35.507,0c0,9.888,4.944,16.146,12.709,16.146,7.73,0,12.675-6.258,12.675-16.146,0-9.927-4.945-16.216-12.675-16.216S517.574,379.975,517.574,389.9Z" fill="#6c4d23"/>
      <path id="Path_221" data-name="Path 221" d="M530.283,365.432c13.985,0,22.8,9.4,22.8,24.47,0,15.032-8.813,24.431-22.8,24.431-14.019,0-22.8-9.4-22.8-24.431,0-15.068,8.778-24.47,22.8-24.47m0,40.616c7.73,0,12.675-6.258,12.675-16.146,0-9.927-4.945-16.216-12.675-16.216s-12.709,6.289-12.709,16.216c0,9.888,4.944,16.146,12.709,16.146m0-41.582c-7.155,0-13.159,2.383-17.362,6.892-4.187,4.492-6.4,10.9-6.4,18.544,0,7.623,2.214,14.025,6.4,18.511,4.2,4.505,10.208,6.886,17.362,6.886s13.14-2.381,17.349-6.885,6.414-10.893,6.414-18.512c0-7.635-2.218-14.048-6.414-18.544s-10.206-6.892-17.349-6.892Zm0,40.617c-7.244,0-11.743-5.817-11.743-15.181,0-9.407,4.5-15.251,11.743-15.251,7.223,0,11.709,5.844,11.709,15.251,0,9.364-4.486,15.181-11.709,15.181Z" fill="#fff"/>
      <path id="Path_222" data-name="Path 222" d="M567.485,413.516V366.248h20.571c8.874,0,14.443,4.555,14.443,11.792a10.424,10.424,0,0,1-8.875,10.255v.262c6.42.489,11.137,5.175,11.137,11.433,0,8.316-6.258,13.526-16.347,13.526Zm9.893-27.614h7.106c5.275,0,8.289-2.324,8.289-6.32,0-3.8-2.656-5.962-7.272-5.962h-8.123Zm8.516,20.246c5.7,0,8.778-2.428,8.778-6.944,0-4.424-3.179-6.782-9.009-6.782h-8.285v13.726Z" fill="#6c4d23"/>
      <path id="Path_223" data-name="Path 223" d="M588.056,366.249c8.874,0,14.443,4.554,14.443,11.791a10.424,10.424,0,0,1-8.875,10.255v.262c6.42.489,11.137,5.175,11.137,11.433,0,8.316-6.258,13.526-16.347,13.526H567.485V366.249h20.571M577.378,385.9h7.106c5.275,0,8.288-2.324,8.288-6.32,0-3.8-2.655-5.962-7.271-5.962h-8.123V385.9m0,20.246h8.516c5.7,0,8.778-2.428,8.778-6.944,0-4.424-3.179-6.782-9.009-6.782h-8.285v13.726m10.678-40.865H566.52v49.2h21.894c10.679,0,17.312-5.553,17.312-14.492a12.217,12.217,0,0,0-8.7-11.75,11.42,11.42,0,0,0,6.441-10.2c0-7.749-6.048-12.757-15.408-12.757Zm-9.713,9.3H585.5c5.487,0,6.306,3.13,6.306,5,0,4.659-4.588,5.354-7.323,5.354h-6.141v-10.35Zm0,18.8h7.32c5.337,0,8.044,1.957,8.044,5.817,0,3.967-2.629,5.979-7.813,5.979h-7.551v-11.8Z" fill="#fff"/>
      <path id="Path_224" data-name="Path 224" d="M618.445,413.516V366.248h9.892v47.268Z" fill="#6c4d23"/>
      <path id="Path_225" data-name="Path 225" d="M628.337,366.249v47.267h-9.892V366.249h9.892m.965-.966H617.48v49.2H629.3v-49.2Z" fill="#fff"/>
      <path id="Path_226" data-name="Path 226" d="M644.248,413.516V366.248H652.5l22.077,30.79h.262v-30.79h9.464v47.268h-8.189l-22.108-30.952h-.3v30.952Z" fill="#6c4d23"/>
      <path id="Path_227" data-name="Path 227" d="M684.306,366.249v47.267h-8.189l-22.108-30.952h-.3v30.952h-9.465V366.249H652.5l22.077,30.789h.262V366.249h9.464m.965-.966h-11.4V394.4l-20.589-28.715-.289-.4h-9.715v49.2h11.395v-29.32l20.654,28.915.288.4h9.651v-49.2Z" fill="#fff"/>
    </g>
    <g id="Group_24" data-name="Group 24">
      <g id="Group_23" data-name="Group 23">
        <path id="Path_228" data-name="Path 228" d="M410.662,528.79h-5.724v-9.239h5.724v1.036H406.09v2.965h4.335v1.025H406.09v3.176h4.572Z"/>
        <path id="Path_229" data-name="Path 229" d="M414.47,526.248c.109,1,1.057,1.658,2.376,1.658,1.248,0,2.157-.66,2.157-1.568,0-.782-.543-1.262-1.786-1.582l-1.185-.307c-1.7-.436-2.458-1.184-2.458-2.439,0-1.537,1.344-2.613,3.265-2.613,1.838,0,3.17,1.088,3.221,2.638h-1.152a1.869,1.869,0,0,0-2.107-1.6c-1.2,0-2.03.621-2.03,1.524,0,.7.513,1.114,1.768,1.441l.966.256c1.915.48,2.689,1.216,2.689,2.541,0,1.691-1.332,2.748-3.457,2.748-1.96,0-3.317-1.063-3.425-2.7Z"/>
        <path id="Path_230" data-name="Path 230" d="M425.45,528.79v-8.2h-2.913v-1.036h6.979v1.036H426.6v8.2Z"/>
        <path id="Path_231" data-name="Path 231" d="M431.448,528.124a.73.73,0,1,1,.73.73A.721.721,0,0,1,431.448,528.124Z"/>
        <path id="Path_232" data-name="Path 232" d="M442.778,519.4a2.744,2.744,0,0,1,2.952,2.536c0,1.03-.468,1.8-2.01,3.393l-2.338,2.414v.026h4.5v1.024h-6.1V528l3.253-3.425c1.242-1.306,1.537-1.8,1.537-2.568a1.72,1.72,0,0,0-1.832-1.6,1.821,1.821,0,0,0-1.9,1.813v.006H439.73v-.006A2.868,2.868,0,0,1,442.778,519.4Z"/>
        <path id="Path_233" data-name="Path 233" d="M448.61,524.167c0-2.894,1.261-4.77,3.406-4.77s3.394,1.863,3.394,4.764c0,2.92-1.242,4.783-3.394,4.783S448.61,527.087,448.61,524.167Zm5.64,0c0-2.273-.806-3.759-2.234-3.759s-2.248,1.5-2.248,3.753c0,2.3.8,3.777,2.248,3.777S454.25,526.472,454.25,524.167Z"/>
        <path id="Path_234" data-name="Path 234" d="M458.136,524.167c0-2.894,1.261-4.77,3.406-4.77s3.394,1.863,3.394,4.764c0,2.92-1.243,4.783-3.394,4.783S458.136,527.087,458.136,524.167Zm5.641,0c0-2.273-.807-3.759-2.235-3.759s-2.247,1.5-2.247,3.753c0,2.3.8,3.777,2.247,3.777S463.777,526.472,463.777,524.167Z"/>
        <path id="Path_235" data-name="Path 235" d="M470.7,519.4a2.745,2.745,0,0,1,2.952,2.536c0,1.03-.468,1.8-2.011,3.393L469.3,527.74v.026h4.5v1.024h-6.1V528l3.252-3.425c1.243-1.306,1.537-1.8,1.537-2.568a1.72,1.72,0,0,0-1.831-1.6,1.82,1.82,0,0,0-1.9,1.813v.006h-1.114v-.006A2.868,2.868,0,0,1,470.7,519.4Z"/>
      </g>
    </g>
    <g id="Group_27" data-name="Group 27">
      <g id="Group_25" data-name="Group 25">
        <circle id="Ellipse_9" data-name="Ellipse 9" cx="2.387" cy="2.387" r="2.387" transform="translate(432.038 486.602)" fill="#6c4d23"/>
        <circle id="Ellipse_10" data-name="Ellipse 10" cx="2.387" cy="2.387" r="2.387" transform="translate(441.929 496.493)" fill="#6c4d23"/>
        <rect id="Rectangle_13" data-name="Rectangle 13" width="13.987" height="1.166" transform="translate(434.837 488.577) rotate(45)" fill="#6c4d23"/>
      </g>
      <g id="Group_26" data-name="Group 26">
        <circle id="Ellipse_11" data-name="Ellipse 11" cx="2.387" cy="2.387" r="2.387" transform="translate(441.929 486.602)" fill="#6c4d23"/>
        <circle id="Ellipse_12" data-name="Ellipse 12" cx="2.387" cy="2.387" r="2.387" transform="translate(432.038 496.493)" fill="#6c4d23"/>
        <rect id="Rectangle_14" data-name="Rectangle 14" width="13.987" height="1.166" transform="translate(444.728 489.401) rotate(135)" fill="#6c4d23"/>
      </g>
    </g>
    <g id="Group_28" data-name="Group 28">
      <path id="Path_236" data-name="Path 236" d="M344.019,239.989c-1.7-.158-7.4,5.062-8.276,7.843C337.766,244.424,341.147,242.464,344.019,239.989Z"/>
      <path id="Path_237" data-name="Path 237" d="M373.269,269.265l-.038.007c.014.007.029.017.044.023Z"/>
      <path id="Path_238" data-name="Path 238" d="M373.231,269.272c-.213-.108-.426-.283-.631-.269-1.941.13-3.877.292-5.814.475-.2.018-.369.246-.554.377.219.11.431.317.641.311a20.306,20.306,0,0,0,2.365-.2C370.57,269.762,371.9,269.506,373.231,269.272Z"/>
      <path id="Path_239" data-name="Path 239" d="M389.454,236.874c-.02-.065-.041-.131-.062-.194a5.011,5.011,0,0,0-1.187.607c-.259.232-.529.758-.428.985a1.436,1.436,0,0,0,.977.655,3.656,3.656,0,0,0,1.664-.111c.377-.127.934-.565.927-.851-.009-.346-.483-.763-.852-.992C390.229,236.808,389.8,236.9,389.454,236.874Zm1.365,1.575-2.813.03c1.1-1.058,2.125-1.109,2.846-.379C390.844,238.216,390.827,238.333,390.819,238.449Z"/>
      <path id="Path_240" data-name="Path 240" d="M353.246,239.31a5.927,5.927,0,0,0-2,.5c-.294.125-.45.567-.671.867.281.177.554.353.8.514a14.808,14.808,0,0,0,2.054-.426c.3-.1.494-.493.729-.752C353.859,239.761,353.54,239.295,353.246,239.31Zm-2.285,1.6c.809-1.188,1.174-1.263,2.53-.527C352.557,240.574,351.861,240.719,350.961,240.908Z"/>
      <path id="Path_241" data-name="Path 241" d="M346.836,241.515c.181-.073.312-.41.327-.638.007-.1-.336-.348-.487-.324a11.623,11.623,0,0,0-1.948.47c-.215.073-.338.4-.5.618.233.153.457.3.7.47C345.612,241.908,346.241,241.759,346.836,241.515Z"/>
      <path id="Path_242" data-name="Path 242" d="M363.343,238.266c-.243-.123-.477-.259-.73-.359-.048-.021-.186.143-.225.121-.845-.5-1.315-.362-2.036.657a2.431,2.431,0,0,0,2.592.259C363.134,238.85,363.209,238.5,363.343,238.266Z"/>
      <path id="Path_243" data-name="Path 243" d="M355.5,236.588a2.721,2.721,0,0,0-1.225.424c-.131.075-.154.65-.072.688a3.715,3.715,0,0,0,1.068.275,4.067,4.067,0,0,0,.6-.035c.737-.006,1-.378.866-1.03A4.317,4.317,0,0,0,355.5,236.588Z"/>
      <path id="Path_244" data-name="Path 244" d="M396.562,237.205a10.652,10.652,0,0,0-2.086.159c-.265.069-.4.641-.6.986a4.663,4.663,0,0,0,1.811.431C396.184,238.683,397.074,238.4,396.562,237.205Zm-1.983,1.209c-.038-.165-.078-.333-.116-.5a10.551,10.551,0,0,1,1.187-.224c.042-.005.117.359.179.553C395.415,238.3,394.993,238.357,394.579,238.414Z"/>
      <path id="Path_245" data-name="Path 245" d="M345.871,278.335l5.1.348C350.382,278.083,347.123,277.772,345.871,278.335Z"/>
      <path id="Path_246" data-name="Path 246" d="M395.377,241.7a9.822,9.822,0,0,0-1.585.779c.285.226.571.452,1.047.833.45-.327.8-.591,1.163-.853C395.786,242.189,395.487,241.661,395.377,241.7Z"/>
      <path id="Path_247" data-name="Path 247" d="M408.242,243.6a4.42,4.42,0,0,0-1.372.476c0,.138-.01.274-.019.41.308.146.623.424.919.406a3.781,3.781,0,0,0,1.126-.445C408.674,244.151,408.452,243.6,408.242,243.6Z"/>
      <path id="Path_248" data-name="Path 248" d="M348.723,247.334l2.638.7C350.676,247.048,349.694,247.214,348.723,247.334Z"/>
      <path id="Path_249" data-name="Path 249" d="M355.217,243.4l2.808.567c.025-.134.051-.268.077-.4l-2.82-.492C355.265,243.177,355.242,243.287,355.217,243.4Z"/>
      <path id="Path_250" data-name="Path 250" d="M399.63,241.78c-.116.1.033.493.036.575.354-.173.639-.422.77-.356.243.114.4.419.652.726.053-.027.262-.153.673-.4C400.9,241.97,400.477,241.018,399.63,241.78Z"/>
      <path id="Path_251" data-name="Path 251" d="M404.344,241.741l.133.268,1.9-.7c-.026-.112-.043-.225-.062-.336-.275-.135-.549-.269-1-.5C405.726,241.6,404.79,241.446,404.344,241.741Z"/>
      <path id="Path_252" data-name="Path 252" d="M365.663,272.32l1.412.259c.038-.17.083-.339.12-.51-.439-.08-.875-.18-1.316-.219C365.821,271.845,365.733,272.156,365.663,272.32Z"/>
      <path id="Path_253" data-name="Path 253" d="M405.411,273.443c-.643-.133-1.288-.265-1.931-.4-.024.11-.048.22-.081.331.632.176,1.265.352,1.889.528C405.332,273.75,405.367,273.6,405.411,273.443Z"/>
      <path id="Path_254" data-name="Path 254" d="M421.668,287.88c-.011-.09-.025-.181-.037-.272l-5.738.679c.034.171.067.342.1.512C417.9,288.6,419.861,288.707,421.668,287.88Z"/>
      <path id="Path_255" data-name="Path 255" d="M431.343,298.981a1.018,1.018,0,0,0-.727-.389c-1.289.016-2.582.074-3.873.106-3.687.09-7.373.163-11.062.269-.921.026-1.842.151-2.768.23.008.159.013.318.028.477C419.058,299.155,425.212,299.711,431.343,298.981Z"/>
      <path id="Path_256" data-name="Path 256" d="M339.278,294.756c2.01-1.24,4.027-2.492,6.2-3.835C343.976,290.9,339.231,293.978,339.278,294.756Z"/>
      <path id="Path_257" data-name="Path 257" d="M347.88,291.672l-.267-.152q-2.611,1.686-5.233,3.372c.066.125.134.25.2.374a3.347,3.347,0,0,0,.754-.257c1.442-.878,2.874-1.764,4.285-2.682C347.775,292.219,347.8,291.9,347.88,291.672Z"/>
      <path id="Path_258" data-name="Path 258" d="M399.486,293.013c-1.48.723-2.967,1.438-4.434,2.184-.1.052-.089.334-.126.51.174.033.407.155.521.086.418-.244.769-.6,1.2-.827,1-.541,2.02-1.033,3.033-1.544C399.61,293.284,399.553,293.15,399.486,293.013Z"/>
      <path id="Path_259" data-name="Path 259" d="M363.49,292.712c-1.7.856-3.59,1.365-5.007,2.747.044.088.1.176.141.262q2.526-1.34,5.044-2.682C363.609,292.929,363.549,292.822,363.49,292.712Z"/>
      <path id="Path_260" data-name="Path 260" d="M406.7,289.732q1.679-1.35,3.356-2.709C408.451,286.86,406.3,288.843,406.7,289.732Z"/>
      <path id="Path_261" data-name="Path 261" d="M411.75,289.532a.857.857,0,0,0,.6-.1c.389-.286.731-.638,1.112-.948.565-.47,1.145-.928,1.725-1.39-.1-.142-.2-.284-.315-.427-1.072.792-2.159,1.577-3.223,2.391C411.586,289.1,411.684,289.52,411.75,289.532Z"/>
      <path id="Path_262" data-name="Path 262" d="M389.138,295.408c1.8-.974,3.406-1.842,4.883-2.64C393.022,292.565,389.71,294.132,389.138,295.408Z"/>
      <path id="Path_263" data-name="Path 263" d="M370.357,292.637l-4.694,2.557c.051.109.111.217.17.327,1.587-.8,3.164-1.61,4.751-2.414C370.512,292.95,370.43,292.794,370.357,292.637Z"/>
      <path id="Path_264" data-name="Path 264" d="M390.07,293.032q-2.367,1.213-4.752,2.427c.067.123.126.248.193.371,1.585-.8,3.179-1.594,4.765-2.391C390.21,293.3,390.136,293.167,390.07,293.032Z"/>
      <path id="Path_265" data-name="Path 265" d="M407.339,286.886c-.835-.375-2.763,1.052-2.994,2.5C405.343,288.552,406.332,287.719,407.339,286.886Z"/>
      <path id="Path_266" data-name="Path 266" d="M405.111,286.788a3.521,3.521,0,0,0-3.353,2.5C402.89,288.447,403.963,287.643,405.111,286.788Z"/>
      <path id="Path_267" data-name="Path 267" d="M396.958,287.112a2.79,2.79,0,0,0-3.184,2.046C394.789,288.507,395.822,287.847,396.958,287.112Z"/>
      <path id="Path_268" data-name="Path 268" d="M385.373,286.756c-.012-.1-.025-.2-.036-.3-.259-.012-.68-.123-.744-.018-.451.748-1.815.79-1.675,1.976l.29.23Z"/>
      <path id="Path_269" data-name="Path 269" d="M409.088,295.512l3.778-2.147C410.907,293.506,409.213,294.545,409.088,295.512Z"/>
      <path id="Path_270" data-name="Path 270" d="M409.049,289.408c.071.078.151.159.231.238.953-.755,1.914-1.506,2.859-2.275.061-.044.023-.319-.019-.332-.156-.048-.395-.112-.5-.032a17.656,17.656,0,0,0-1.612,1.3A12.263,12.263,0,0,0,409.049,289.408Z"/>
      <path id="Path_271" data-name="Path 271" d="M386.57,288.6c.149.038.361.159.439.1.69-.489,1.348-1.011,2.015-1.524-.054-.091-.11-.183-.164-.275-.689.3-1.4.576-2.064.942C386.625,287.931,386.64,288.335,386.57,288.6Z"/>
      <path id="Path_272" data-name="Path 272" d="M389.083,289.036c.821-.6,1.641-1.2,2.5-1.83-.763-.33-1.35-.109-2.261.851a3.6,3.6,0,0,0-.466.913C388.934,288.992,389.009,289.014,389.083,289.036Z"/>
      <path id="Path_273" data-name="Path 273" d="M396.737,289.261l2.605-2.206c-1.51-.084-2.061,1.054-2.78,1.993C396.617,289.12,396.672,289.189,396.737,289.261Z"/>
      <path id="Path_274" data-name="Path 274" d="M399.524,288.978c.781-.661,1.562-1.324,2.352-1.985-.063-.09-.124-.18-.187-.271a3.87,3.87,0,0,0-2.355,2.016Z"/>
      <path id="Path_275" data-name="Path 275" d="M393.962,287.35a2.254,2.254,0,0,0-2.535,1.783C392.273,288.537,393.066,287.979,393.962,287.35Z"/>
      <path id="Path_276" data-name="Path 276" d="M387.055,287.088c-.9-.523-1.9.2-1.914,1.5C385.756,288.106,386.371,287.622,387.055,287.088Z"/>
      <path id="Path_277" data-name="Path 277" d="M402.3,294.987c.085.094.17.189.248.282.67-.626,1.349-1.252,2.02-1.88-.071-.075-.14-.15-.211-.226A3.755,3.755,0,0,0,402.3,294.987Z"/>
      <path id="Path_278" data-name="Path 278" d="M318.649,289.984l2.324-1.7c-.062-.073-.132-.148-.194-.221C319.709,288.287,319.229,289.2,318.649,289.984Z"/>
      <path id="Path_279" data-name="Path 279" d="M321.062,289.8c.119.114.236.229.345.343.661-.6,1.313-1.211,1.966-1.815-.1-.109-.211-.219-.313-.327C322.392,288.6,321.723,289.2,321.062,289.8Z"/>
      <path id="Path_280" data-name="Path 280" d="M324.615,288.771a1.639,1.639,0,0,0-1.029,1.466c.793-.594,1.4-1.055,2.019-1.514,0-.073-.015-.146-.019-.219A4.752,4.752,0,0,0,324.615,288.771Z"/>
      <path id="Path_281" data-name="Path 281" d="M404.776,310.708l3.762,1.147c.033-.11.065-.219.1-.33-1.054-1-2.467-.892-3.743-1.2C404.852,310.449,404.818,310.579,404.776,310.708Z"/>
      <path id="Path_282" data-name="Path 282" d="M404.287,312.484c1.406.368,2.622.684,4.028,1.05C407.666,312.509,405.886,312.092,404.287,312.484Z"/>
      <path id="Path_283" data-name="Path 283" d="M409.415,310.4l-3.2-1.235c-.05.114-.091.23-.142.346q1.586.68,3.155,1.357C409.286,310.713,409.355,310.558,409.415,310.4Z"/>
      <path id="Path_284" data-name="Path 284" d="M410.5,309.35c-.11-.21-.164-.526-.335-.61-.542-.264-1.124-.442-1.7-.654-.041.091-.088.181-.136.27.5.336.973.7,1.5.99C410,309.442,410.273,309.355,410.5,309.35Z"/>
      <path id="Path_285" data-name="Path 285" d="M331.235,310.057a6.84,6.84,0,0,0-2.784-1.739c-.058.075-.116.152-.181.228q1.389.9,2.77,1.807C331.1,310.254,331.169,310.156,331.235,310.057Z"/>
      <path id="Path_286" data-name="Path 286" d="M329.246,307.792c.882.589,1.757,1.179,2.654,1.779C332.088,308.873,330.6,307.782,329.246,307.792Z"/>
      <path id="Path_287" data-name="Path 287" d="M326.593,311.431c1.069.26,2.067.507,3.058.751A2.386,2.386,0,0,0,326.593,311.431Z"/>
      <path id="Path_288" data-name="Path 288" d="M327.417,309.83c.954.492,1.9.985,2.79,1.442C330.093,310.446,329.188,309.889,327.417,309.83Z"/>
      <path id="Path_289" data-name="Path 289" d="M326.752,312.919l2.378.566A1.636,1.636,0,0,0,326.752,312.919Z"/>
      <path id="Path_290" data-name="Path 290" d="M564.325,238.666c-.081-.962.145-2.028-.7-2.861-.736-.7-1.224-1.886-2.056-2.187a11.807,11.807,0,0,0-4.212-.443c-1.663.032-3.252.4-4.986-.006-2.664-.632-5.414-.874-8.134-1.293-1.152-.177-2.275-.479-3.437-.6-1.561-.179-3.15-.234-4.74-.341-.176-.972-.313-1.788-.476-2.6a20.21,20.21,0,0,0-.576-2.495,15.643,15.643,0,0,0-.939-1.734c-1.488-2.91-2.935-5.842-4.465-8.732-.981-1.857-1.8-3.838-3.721-5.048a8.623,8.623,0,0,1-2.05-2.476h0a7.231,7.231,0,0,1-.606-1.668c-.145-.7,1.049-1.815,1.089-1.848a12.552,12.552,0,0,1,2.518-2.058,15.8,15.8,0,0,1,3.25-.694c1.534-.339,3.278.28,4.426-.964.436-.474.656-.833.264-2.469a1.121,1.121,0,0,1,.111-.711,10.2,10.2,0,0,0,.936-4.591,1.289,1.289,0,0,1,.459-.85,3.086,3.086,0,0,0,1.149-1.936,1.294,1.294,0,0,0-.618-1.515,4.263,4.263,0,0,1-1.222-1.381,10,10,0,0,1-.836-3.914c0-.429-.226-.851-.255-1.284a4.027,4.027,0,0,1,.034-1.858,13.26,13.26,0,0,0,.655-3.439,4.393,4.393,0,0,0-.844-3.09,8.386,8.386,0,0,0-5.294-3.244c-1.6-.3-3.214-.484-4.809-.767A18.608,18.608,0,0,0,518,169.38a17.136,17.136,0,0,0-5.781,1.781c-1.06.586-2.27.929-2.97,2.082a.787.787,0,0,0,1.276.022,7.746,7.746,0,0,1,3.556-1.727c1.835-.516,3.722-.866,5.594-1.232a12.14,12.14,0,0,1,2.359-.23,18.345,18.345,0,0,1,3.087.221,20.4,20.4,0,0,1,4.049.96,14.115,14.115,0,0,1,3.08,1.907,13.2,13.2,0,0,1,1.56,1.693c-.058.06-.117.118-.174.178-1.309-.537-2.423-1.567-3.946-1.6,1.041.857,2.574,1.056,3.241,2.487-.329-.1-.582-.181-.836-.262-.047.073-.086.137-.126.2l.962,1.063a8.478,8.478,0,0,1-1.551-.85c-.453-.27-.927-.5-1.39-.75-.033.071-.067.141-.1.212,2.52,1.876,3.825,3.1,3.795,3.578-.048-.008-.131.009-.155-.018a12.52,12.52,0,0,0-3.971-2.815,3.84,3.84,0,0,0-1.187-.356c-.107-.027-.257.132-.387.2a1.11,1.11,0,0,0,.257.361,2.223,2.223,0,0,0,.478.143,9.548,9.548,0,0,1,3.54,2,.216.216,0,0,1-.252,0c-.85-.939-2.109-.989-3.179-1.432a1.141,1.141,0,0,0-1.5.76c-.027.756-.021,1.518-.022,2.271a6.143,6.143,0,0,0,.616-1.121c.184-.6.576-.952,1.155-.867a4.523,4.523,0,0,1,2.913,1.384,10.126,10.126,0,0,1,1.385,1.947,4.121,4.121,0,0,1,.465,1.917,5.865,5.865,0,0,0,2.023,5.318c.857.7.762,1.828-.321,2.867a1.678,1.678,0,0,0-.557,1.6c.117,1.039.032,1.115-1.047,1.125-.543,0-1.1-.01-1.646-.016-.046-.081-.083-.168-.128-.249-.073.212-.287.546-.212.629a3,3,0,0,0,.934.724c.19.1.5-.036.718.038.384.131.6.333.413.857a4.7,4.7,0,0,0-.252,1.817,2.025,2.025,0,0,1-1.482,2.016,26.286,26.286,0,0,1-3.173.764,22.272,22.272,0,0,1-2.637.415,8.055,8.055,0,0,1-3.752-.986c-.9-.39-1.823-.735-2.734-1.094-.114-.034-.245.006-.438.209l.988.494c1.28.639,2.557,1.271,3.808,1.893a1.046,1.046,0,0,1-1.262.116c-.961-.46-1.946-.871-2.928-1.294-.043-.017-.111.016-.261.036.907.554,1.723,1.118,2.6,1.574.572.293.665.6.252,1.187-.769-.4-1.55-.8-2.33-1.2-.034.055-.067.111-.1.165.721.612,1.441,1.223,2.154,1.841-.027.079-.045.151-.071.23-.3.044-.582.081-.913.132.072.342,1.282.569.172,1.084.08.258.168.509.277.814-1.545.035-3.018.057-4.5.086-.052.08-.1.162-.156.243.144.176.291.359.446.554l-.112,0-.134.258c.255.343.509.685.826,1.139-.286.236-.617.54-.99.812-1.393,1.01-1.812,2.548-2.263,4.082-.175.58-.453,1.125-.579,1.714-.281,1.4.72,2.544.914,3.871a15,15,0,0,0,.691,2.194c.091-.014.181-.028.28-.05-.149-.814-.242-1.65-.441-2.454a8.021,8.021,0,0,1-.2-4.017,5.006,5.006,0,0,1,.275-.636l0,.037a2.691,2.691,0,0,1,.1-1.026c.647-1.191,1.274-2.423,2.606-2.981a2.906,2.906,0,0,1,1.132.03c.172.015.4.1.526.038,2.469-1.225,4.639-.2,6.36,2.055a21.527,21.527,0,0,1,2.453,4.729c.607,1.387,1.312,2.733,2,4.082.729,1.445,1.528,2.852,2.244,4.3a.982.982,0,0,1-.117.9c-.715.685-1.5,1.283-2.326,1.962-.452-.458-.979-1.026-1.514-1.586l-.271.237c.3.456.6.918.912,1.367a1.491,1.491,0,0,1-.211,2.265c-.208.207-.457.381-.812.675-3.22-4.971-6.833-9.6-8.338-15.444-.144.055-.3.118-.439.174a13.643,13.643,0,0,0,.769,2.992c1.381,2.674,2.894,5.28,4.414,7.876.843,1.427,1.814,2.777,2.707,4.174.645,1.01.544,1.31-.834,2.569-.233-.547-.407-1.074-.671-1.552-1.432-2.543-2.854-5.092-4.354-7.593a22.656,22.656,0,0,1-2.7-6c-.273-1.105-.793-2.157-.954-3.269a23.065,23.065,0,0,1,.018-3.413c-.66-.059-1.023.19-.832.967a.107.107,0,0,1,.025.083c-.331,3.406,1.366,6.287,2.611,9.22.916,2.165,2.476,4.052,3.687,6.1.976,1.656,1.867,3.367,2.764,5.07.294.567.129,1.055-.666,1.4-.416-.891-.848-1.784-1.27-2.682-1.627-3.519-3.3-7.008-5.932-9.925a2.292,2.292,0,0,0-1.03-.629c3.788,4.212,5.7,9.433,8.1,14.378l-.245.179a29.482,29.482,0,0,1-2.334-3.264c-1.441-2.642-2.711-5.377-4.132-8.029a20.744,20.744,0,0,0-1.842-2.546c-.719.346-.995.718-.358,1.382-.408.053-.622.075-.848.1.078.428.168.819.23,1.124-.548.323-1.009.594-1.321.779l2.968,3.591c-.652.235-1.418-.692-2.048.219,2.521,1.411,3.647,3.937,5.112,6.166a43.363,43.363,0,0,1,3.113,5.387,37.909,37.909,0,0,1,2.486,11.454,2.547,2.547,0,0,1-.485,1.4.623.623,0,0,1-.278.387,19.906,19.906,0,0,1-5.691,2.491,4.624,4.624,0,0,1-.788.2c-.142.034-.282.07-.425.1-1.421.316-2.789.694-4.144,1.114-1.291.551-2.635,1-3.942,1.518-.55.219-1.1.429-1.641.657a.874.874,0,0,1-1.248-.656c-.154-.793-.376-1.573-.573-2.371-.675.313-.706.478-.357,1.458.2.57.4,1.135.629,1.784-1.369.33-.986-1.229-1.878-1.581.09.632.163,1.159.23,1.692-.046.052-.1.11-.141.163a3.38,3.38,0,0,1-.62-.667,4.393,4.393,0,0,1-.275-.954l.622-.036c.105-.412.1-.393.206-.806-.385-.236-.773-.469-1.156-.707-.124.042-.242.078-.365.119.132-.827.207-1.665.4-2.474.42-1.75,1.027-3.468,1.339-5.243.46-2.654.735-5.34,1.068-8.018a2.451,2.451,0,0,0-.221-1.349c-.272,1.966-.458,3.953-.845,5.9-.6,3.037-1.344,6.043-2.02,9.067a5.07,5.07,0,0,0-.134.978,6.3,6.3,0,0,0,.091.884c-1.006.376-1.286.2-1.1-.793.227-1.213.582-2.4.876-3.6.535-2.218,1.111-4.434,1.584-6.668a31.425,31.425,0,0,0,.586-4.1,9.625,9.625,0,0,0-.277-2.748c.051,6.137-2.271,11.759-3.69,17.581a5.972,5.972,0,0,1-.106-3.291c.473-1.557,1.026-3.087,1.42-4.667.67-2.723,1.49-5.427,1.124-8.31-.108-.867-.007-1.754-.186-2.649.141,6.044-1.735,11.622-3.9,17.192a1.653,1.653,0,0,1-.042-.562c.491-1.82,1.083-3.623,1.49-5.462a33.273,33.273,0,0,0,.6-4.362c.127-1.345.109-2.7.184-4.046.009-.216.247-.426.255-.643.075-1.337.1-2.674.165-4.01.034-.756.115-1.514.188-2.483.339.315.51.462.543.5.186-3.509.448-7.069.533-10.637.086-3.984.984-7.868,1.388-11.8a5.612,5.612,0,0,1,1.58-3.146,92.678,92.678,0,0,0-2.394,26.65l.249.014c.079-1.793.161-3.585.234-5.375.126-2.894.037-5.811.422-8.676.571-4.314,1.452-8.588,2.222-12.872.22-1.2.559-1.386,1.488-1.407.764-.01.709.364.584.847-.322,1.3-.706,2.6-1,3.916-.253,1.088-.395,2.184-.586,3.275-.239,1.368-.486,2.724-.706,4.1a21.033,21.033,0,0,0-.287,3.512c.17-.588.377-1.166.5-1.762.185-.956.317-1.925.466-2.889.233-1.5.371-3.024.713-4.5.48-2.046,1.117-4.059,1.7-6.138.526.231.962.424,1.5.656a22.99,22.99,0,0,0-1.976,10.069c.224-1.122.414-2.266.7-3.381.455-1.776.939-3.55,1.492-5.3.259-.814.582-1.639,1.748-1.656.321,0,.644-.49,1.051-.826l-.042-.12-.2-.012a2.606,2.606,0,0,0,.453-.306c-.775-.6-2.468-.374-2.948-1.707.956.194,1.808.4,2.656.546a2.069,2.069,0,0,0,.717-.209c-.16-.193-.288-.442-.5-.553-.716-.406-1.463-.753-2.181-1.161-.177-.1-.244-.393-.471-.752,1.325.6,2.426,1.109,3.535,1.609.026-.063.068-.141.1-.211-1.079-.621-2.149-1.249-3.278-1.91.277-.342.453-.564.658-.815,1.1.827,2.118,1.724,3.549,1.81-.888-.549-1.787-1.081-2.651-1.666-.225-.156-.515-.585-.441-.749.239-.537.635-.3,1.018-.062a13.063,13.063,0,0,0,4.466,2.176c.128.018.243.1.327.038-1.52-.863-3.063-1.689-4.558-2.6-.3-.2-.4-.746-.59-1.13.088-.087.168-.168.255-.256q2.074,1.2,4.14,2.415c.038-.05.069-.093.1-.135-.53-.4-1.053-.809-1.581-1.208-.716-.529-1.45-1.032-2.124-1.607a3.743,3.743,0,0,1-.56-.943,2.979,2.979,0,0,0,2.406-1.626,4.215,4.215,0,0,0,.394-1.091,2.017,2.017,0,0,1,.861-1.576c.545-.415.184-.737-.179-1.046a7.918,7.918,0,0,1-.59-.636c.068-.063.13-.119.191-.174a3.134,3.134,0,0,0,.836.384.977.977,0,0,0,.638-.3,4.455,4.455,0,0,0,.687-.767,4.855,4.855,0,0,0,.345-.744,17.1,17.1,0,0,1-1.885-.186.773.773,0,0,1-.514-.476c-.019-.453.127-.909.136-1.361a1.625,1.625,0,0,0-.236-.615c-.141.137-.349.246-.419.416a3.026,3.026,0,0,0,.087,3.2.4.4,0,0,1-.059.4c-.1.059-.376.032-.41-.037a25.557,25.557,0,0,1-1.241-2.8c-.164-.489.879-1.973,1.362-2.163a3.079,3.079,0,0,1,2.163.957c.45.944.911,1.885,1.364,2.833.127.017.241.05.368.067a6.714,6.714,0,0,0,1.05-1.537,3.6,3.6,0,0,1,1.959-2.321,2.618,2.618,0,0,0,1.3-1.783c.343-1.208.871-2.367,1.264-3.55a2.117,2.117,0,0,0-.048-.855l-1.367,2.62c-.284-.36-.521-.668-.757-.975-.08.05-.167.108-.247.158.245.519.492,1.037.731,1.563-.084.031-.175.069-.259.1a8.622,8.622,0,0,0-.646-1.083c-.089-.129-.351-.126-.531-.186a1.373,1.373,0,0,0,.032.5c.224.448.524.857.733,1.3.073.173-.046.427-.084.647a1.772,1.772,0,0,0-.219-.042c-.074-1.129-1.715-3.359-2.537-3.312.112.185.185.343.283.483.466.653.974,1.276,1.4,1.958a2.066,2.066,0,0,1,.068.831c-.073,0-.154,0-.235,0-1.509-2.577-1.509-2.577-2-2.537.451,1.008.948,2.019,1.364,3.064a2.173,2.173,0,0,1-.873,2.164c-.183.091-.531.184-.616.09a6.726,6.726,0,0,0-1.53-1.412c-.444-.229-.724-.754-1.117-1.1a1.243,1.243,0,0,0-1.6-.075,3.065,3.065,0,0,0-1.342,2.71c-.062.888.012,1.786.03,2.732-1.086-1.972-1.086-1.972-1.519-1.725.735,1.937,1.459,3.847,2.2,5.759a1.152,1.152,0,0,1-.148,1.3c-.706-1.69-1.39-3.386-2.132-5.053-.12-.256-.491-.4-.751-.6a9.509,9.509,0,0,0,.255.944c.529,1.31,1.072,2.618,1.612,3.924-.11.048-.228.1-.337.151a8.11,8.11,0,0,1-.41-.791c-.472-1.154-.9-2.324-1.415-3.46-.118-.285-.5-.447-.911-.791.935,2.6,2.354,4.821,2,7.716a26.019,26.019,0,0,0-2.378-5.757,1.31,1.31,0,0,0-.032,1.012c.492,1.237,1.1,2.435,1.513,3.691a2.588,2.588,0,0,1,.13,2.194l-1.337-3.173a8.182,8.182,0,0,0-1.614-2.847c-.083.047-.158.087-.234.126.7,1.481,1.39,2.97,2.015,4.309l-.849,1.019c-.711-1.295-1.014-2.893-2.414-3.793-.082.14-.142.2-.135.236a.7.7,0,0,0,.15.289c1.086,1.093,1.368,2.576,1.912,3.932a1.654,1.654,0,0,1-.494,1.952c-.471-1.955-2.123-5.152-2.837-5.386.1,1.253,1.475,2.169.928,3.706-.291-.49-.483-.857-.726-1.187a7.181,7.181,0,0,0-.7-.8l-.1.1c.5,1.137.99,2.281,1.488,3.418l-.311.21a3.208,3.208,0,0,1-.519-.573c-.707-1.352-1.394-2.712-2.1-4.063a14.621,14.621,0,0,1-1.512-2.857,17.068,17.068,0,0,1-.625-7.226c.112-.677.258-1.349.38-2.016.213,1.87.13,3.72.347,5.531a8.94,8.94,0,0,0,1.741,5.039,11.208,11.208,0,0,0-.507-1.886,16.96,16.96,0,0,1-.484-9.768,10.21,10.21,0,0,0-.234-4.281c-.131-.87-.16-1.75-.231-2.63.1-.026.2-.051.3-.071.221.337.434.68.671,1a3.327,3.327,0,0,0,.465.436c.132-.177.35-.338.367-.519a14.812,14.812,0,0,1,1.525-4.712c.052-.112-.054-.321-.088-.483-.142.091-.339.15-.416.281-.591,1-1.157,2-1.755,3.055-.258-.424-.5-.863-.777-1.322-1.34.863-1.395,2.282-1.669,3.5-.306,1.358.463,2.931-.855,4.1-.015.014-.008.053-.021.085a13.815,13.815,0,0,1-.777,2.5c-1.019,1.957-.869,4.049-.684,6.087a10.8,10.8,0,0,0,2.431,6.109c1.587,1.846,2.13,2.051,2.372,4.461a13.743,13.743,0,0,0,2.741,1.805c.579.271,1.794.667,1.333,1.958s-1.292,1.355-3.424,1.858a8.121,8.121,0,0,1-.682.459,10.115,10.115,0,0,0-3.185,3.654c-.435.707-.737,1.487-1.184,2.181a21.234,21.234,0,0,0-2.975,6.517,37.091,37.091,0,0,1-3.449,8.61,1.588,1.588,0,0,0-.07,1.223c.166.4.62.68,1.1,1.167-.639,1.165-1.058,2.633-2.015,3.5-1.286,1.156-1.655,2.73-2.537,4.043-.411.608-.373,1.487-.681,2.183a25.762,25.762,0,0,0-2.1,5.325,4.5,4.5,0,0,1-.384.89q-.687,1.512-1.366,3.021v0l-.005.015c-.173.383-.347.766-.519,1.149l.041.045c-.83,1.85-2.08,4.584-2.693,4.75-1.448.389-3.211.27-4.688.562s-2.751.205-3.758,1.321c-.872.973-1.972,1.419-1.894,3.067a.849.849,0,0,1-.128.518c-1.047,1.314-1.123,2.923-1.266,4.47-.092,1.006-.282,2.14.537,3,.348.368.841.888,1.227.854a.625.625,0,0,0,.138-.054c-.414.473-.838.937-1.289,1.371-2.647,2.546-5.4,4.989-8.1,7.476-1.626,1.495-3.266,2.974-4.869,4.491-3.683,3.484-7.26,6.059-10.919,9.566-.473.454-.865.994-1.3,1.5l0,0c-.025-.016-.042-.045-.062-.049a.088.088,0,0,0-.073.018l-1.69,1.84c.952-.293,1.9-.592,2.846-.881.583-.175,1.165-.335,1.748-.5.025.082.058.165.082.246q-2.553.973-5.107,1.942c-.04-.058-.088-.118-.128-.177l.567-.646c-1.089.645-1.717,1.334-1.668,1.73,1.47-.594,3.26-.458,4.505-1.838.032.88-.513,1.148-1.139,1.353-.881.289-1.768.569-2.643.87-.4.138-.785.318-1.382.566.22-.426.339-.645.449-.865a.858.858,0,0,0-.231-.144l-1.568,1.737c.032.063.065.125.1.188l2.89-1.092c-.107.772-.107.772-3.581,1.894.042-.182.09-.355.191-.762-.474.522-10.376,11.669-11.5,12.676a4.12,4.12,0,0,1-2.606,1.068c-.012,0-.818.168-.83.173a1.178,1.178,0,0,1-1.047-.853c-.927-2.1-1.854-4.234-3.665-5.78-.594-.507-1.228-.968-2-1.57.443-.057.692-.11.946-.12a18.885,18.885,0,0,0,8.587-1.9,7.752,7.752,0,0,0,3.112-2.386,10.448,10.448,0,0,0,1.144-3.3c.549-2.01,1.361-3.705,3.818-3.914a1.586,1.586,0,0,0,1.058-1.094,31.64,31.64,0,0,0,.268-4.675c-.012-.768.152-1.614-.625-2.3a6.134,6.134,0,0,0-3.492-1.34c-.519-.063-1.049.083-1.566.032-1.334-.131-2.665-.418-4-.464-3.665-.127-7.334-.159-11-.233q-3.038-.06-6.077-.128a4.559,4.559,0,0,1,1.239-1.358c1.055-1.247,2.109-2.475,3.149-3.716A20.818,20.818,0,0,0,420.054,272a15.538,15.538,0,0,0,.946-1.893c.255-1.05.064-2.232,1.062-3.021a.448.448,0,0,0,.127-.149c.42-1.4.922-2.779,1.226-4.2a37.609,37.609,0,0,0,.568-4.215c.034-.274-.4-.664-.311-.854a5.628,5.628,0,0,0-.269-4.863,22.9,22.9,0,0,0-3.206-5.63,40.468,40.468,0,0,0-8.7-7.967,27.091,27.091,0,0,0-2.438-1.227c-1.062-.572-2.084-1.258-3.174-1.763a32.385,32.385,0,0,0-9.966-2.569,43.9,43.9,0,0,0-10.317.479,33.178,33.178,0,0,0-11.258,3.47,1.834,1.834,0,0,1-1.968-.045,18.215,18.215,0,0,0-7.66-2.12c-1.14-.115-2.319.174-3.469.108a27.612,27.612,0,0,0-10.374,1.328c-1.177.389-2.31.907-3.468,1.367.037.1.065.2.1.3a3.2,3.2,0,0,0,.587-.08c.671-.223,1.327-.512,2.012-.694a57.575,57.575,0,0,1,5.772-1.436,16.727,16.727,0,0,1,7.167.184c1.816.5,3.705.756,5.491,1.344a18.777,18.777,0,0,1,3.194,1.817c-1.08,1.327-1.947,2.457-2.895,3.52a2.05,2.05,0,0,1-1.186.694c-1.839.161-3.678.214-5.521.317-.617.035-1.236.107-1.855.163.015.043.021.087.035.132l6.539,1.4c-3.358.952-6.836-.367-10.187.594,3.171.362,6.382.363,9.438,1.41-.1.184-.193.252-.277.254a33.881,33.881,0,0,1-9.584-.491,4.225,4.225,0,0,0-1.94.329c-.155.042-.226.4-.332.61a2.769,2.769,0,0,0,.667.13c.744-.042,1.326-.623,2.228-.363,1.715.5,3.515.706,5.281,1.063,1.015.205,2.018.462,3.025.695a9.609,9.609,0,0,1-2.835.351c-.775-.014-1.545-.222-2.312-.219-1.467.005-2.924.151-4.39.136-.9-.006-1.789-.246-2.7-.291a5.723,5.723,0,0,0-1.336.251c0,.158.005.315.005.472,3.313.528,6.793.1,9.995,1.368a.762.762,0,0,1-.537.244c-1.579-.07-3.161-.244-4.747-.216-2.007.033-4.023.216-6.028.367-.221.017-.428.247-.638.378.028.1.047.205.074.309l5.726.338c0,.041-.013.082-.015.121l-7.516,1.015c.006.177.021.353.028.529l5.5.324c-1.141.336-2.271.37-3.356.609a28.176,28.176,0,0,0-3.033,1.013c.036.1.072.2.1.3l1.409.083c.013.088.023.179.027.266-.383.215-.774.431-1.211.673.207.073.381.135.562.2-.183.234-.374.471-.61.778.484.2.635.51,1.263.149.689-.4,1.737-.178,2.743-.233-.2.612-.29.921-.311.974-1.355.848-3.048.253-3.989,1.512.358.357.626.659.932.908a.964.964,0,0,0,.539.141c.606.017,1.215-.022,1.819.02a2.4,2.4,0,0,1,.707.293,3.843,3.843,0,0,1-.814.386c-.6.129-1.216.19-1.947.3.22.543.368.9.435,1.046.956-.055,1.742-.1,2.587-.145.081.619.147,1.08.2,1.463a5.519,5.519,0,0,0-.942-.033c-.06.007-.156.377-.108.417a5.044,5.044,0,0,0,.8.495c.425.236.858.463,1.29.7-.045.078-.093.157-.131.236-.417.067-.825.131-1.531.242.524.554.855.937,1.222,1.287.279.273.839.477.873.759.159,1.306,1.449,1.583,2.164,2.033a56.693,56.693,0,0,0,6.718,3.227c.451.207.979.246,1.422.466,1.514.75,3.046,1.479,4.495,2.34,2.426,1.444,7.182.641,8.937-1.245a1.321,1.321,0,0,1,.857-.381c1.408-.019,2.812.026,4.218.042a29.188,29.188,0,0,0,9.777-1.338,66.126,66.126,0,0,0,8.3-3.592,13.587,13.587,0,0,0,6.641-7.469c1.31-3.349.534-6.345-1.537-9.082a12.309,12.309,0,0,0-3.727-3.379c-2.054-1.17-4.069-2.4-6.467-2.759a11.773,11.773,0,0,0-2.1-.253c-1.976.074-4.028-1-5.942.317a.5.5,0,0,1-.391.059,2.6,2.6,0,0,0-1.88.173,40.9,40.9,0,0,1-4.059,1.1l2.9,1.554c-.026.14-.051.28-.076.42a4.219,4.219,0,0,1-1.142-.051c-.7-.226-1.337-.622-2.042-.813a3.677,3.677,0,0,0-1.262.116c0,.134,0,.268,0,.4,1.017.34,2.024.678,3.065,1.023-.12.038-.289.049-.3.1-.3,1.118-.888,1.063-1.761.567a5.669,5.669,0,0,0-1.655-.359c-.023.109-.047.217-.078.325.252.155.5.309.755.467.35.224.7.45,1.057.675-.276.382-.543.765-.873,1.222a2.12,2.12,0,0,0-3.006-.6,13.74,13.74,0,0,1,1.676.289c.322.1.884.445.86.549a2.349,2.349,0,0,1-.674,1.153,1.176,1.176,0,0,1-1.009-.051,3.255,3.255,0,0,0-2.876.075l3.5.531c-.383,1.348-1.041,1.806-2.288,1.647a20.809,20.809,0,0,0-3.5-.006,3.479,3.479,0,0,0-1.016.377c.029.074.067.148.1.221l5.307.313c.037.087.074.177.1.263-.424.332-.83.917-1.27.948-1.192.077-2.391-.16-3.59-.12-.659.023-1.548-.2-1.951.791,1.363-.106,2.642-.233,3.925-.288a4.8,4.8,0,0,1,1.48.211c.141.042.28.4.268.6a.634.634,0,0,1-.374.482c-.569.084-1.155.028-1.725.119-1.124.185-2.242.448-3.367.642a2.378,2.378,0,0,1-.75-.127c-.161.3-.33.609-.539.988,2.158-.3,4.179-.578,6.482-.9-.221,1.027-.329,1.725-.537,2.39-.219.707-.7.057-1.069.133-1.238.266-2.489.473-3.725.73a7.445,7.445,0,0,0-1.024.359c.026.133.06.267.094.4l5.981-.991c-.262.79-.483,1.425-.7,2.061.74.218.857.711.208,1.067a15.422,15.422,0,0,1-2.994,1.213,18.184,18.184,0,0,1-2.1.234,2.643,2.643,0,0,0-.777.451c.27.144.534.389.81.409.8.057,1.6.029,2.408.023.607,0,1.215-.019,1.822-.029,0,.1.005.192.017.29a16.593,16.593,0,0,1-6.49,1.027c-.488.007-1.078-.271-1.143.665l7.373.435c0,.09.014.183.017.275a6.5,6.5,0,0,1-4.805.755,11.825,11.825,0,0,1-1.858-.632,3.126,3.126,0,0,1-1.183-.528,9.827,9.827,0,0,1-2.768-6.2c-.223-2.911-.565-5.835.486-8.792.909-2.563,1.471-5.237,2.564-7.769a26.009,26.009,0,0,1,4.091-6.933,10.445,10.445,0,0,1,2.178-2.208c2.874-1.752,5.766-3.488,8.769-4.98a28.273,28.273,0,0,1,8.284-2.6,37.03,37.03,0,0,1,11.892-.347,28.625,28.625,0,0,1,8.694,3.146,27.708,27.708,0,0,1,8.585,7.84c.5.65,1.3,1.306.547,2.309-.027.041.184.316.321.426.449.356.92.684,1.387,1.025-.076.149-.152.3-.219.447l-2.7-.432c-.017.135-.034.271-.042.407.787.083,1.572.217,2.362.233.859.016,1.185.5,1.391,1.278-1.721-.671-2.99-.577-3.608.313,1.075.064,2.1.1,3.123.2.536.052,1.165.109,1.006.948-1.365.27-2.819-.64-4.05.4.854.211,1.724.171,2.55.328,2.023.387,2.021.425,2.178.921-1.561.167-3.2-.238-4.67.468,1.515.161,3,.229,4.494.359a1.041,1.041,0,0,1,.553.482c-.2.334-.481.882-.717.876-1.034-.03-2.058-.252-3.1-.354-.553-.057-1.111-.013-1.668-.016-.005.094-.011.187-.008.28a2.945,2.945,0,0,0,.548.131c1.53.08,3.068.124,4.594.248.244.018.458.384.682.588-.247.19-.485.521-.749.541-.515.043-1.045-.13-1.575-.136-1.238-.012-2.477,0-3.71.054-.187.009-.363.286-.54.439.194.141.389.407.574.4,1.459-.018,2.916-.152,4.372-.12,1.64.032,1.645.091,1.382,1.688-.01.053-.08.1-.118.146l-6.329-.373c-.184.383-.309.653-.434.913,2.189.008,4.329.015,6.477.024l.045.542a15.277,15.277,0,0,1-2.257.409c-1.4.053-2.812-.034-4.212-.013-.177,0-.346.306-.516.472.188.1.379.284.573.282,2.013-.012,4.022-.054,6.147-.09-.074.39-.121.619-.146.753-.995-.413-1.692.418-2.513.46-.9.049-1.8.164-2.705.164-2.03,0-2.029-.018-2.492.553l5.491.324c-.656.4-1.233.746-1.828,1.113.693-.019,1.333-.035,1.975-.051a1.63,1.63,0,0,1-1.08.59c-1.835-.007-3.675-.1-5.521-.1-.2,0-.407.349-.613.538.245.14.555.456.711.393,2.062-.831,4.122.385,6.2-.053a1.012,1.012,0,0,1-.507.306,18.528,18.528,0,0,1-6.594.819,4.462,4.462,0,0,0-1.376.316c.018.137.035.275.061.411l4.021.237c-.063.074-.171.187-.342.387l3.542-.359c.011.094.031.189.043.283a16.062,16.062,0,0,1-2.753.679c-1.389.106-2.8-.034-4.2,0-.692.014-1.5-.116-2.06.915,2.069.074,4.116-.638,5.828,1.189a22.125,22.125,0,0,1-3.124.54c-1.275.042-2.543-.175-3.821-.2-.278-.007-.566.3-.845.467.25.176.47.447.745.508a3.537,3.537,0,0,0,2.372-.07c.276-.125.664.016,1,.036a2.345,2.345,0,0,1,0,.251l-4.457.575a.429.429,0,0,0,.011.106l3.687.044c0,.121,0,.242,0,.362-1.987.137-3.976.275-5.956.414-.009.165-.028.33-.037.494q2.691.432,5.375.859c-.008.132-.015.267-.023.4-2.164.114-4.335.207-6.493.366a4,4,0,0,0-1.158.488,3.17,3.17,0,0,0,.941.471c.92.113,1.856.13,2.786.185.012.1.031.2.042.3a5.889,5.889,0,0,1-1.252.376c-2.031.158-4.061.266-6.1.385-.118.006-.3-.006-.349-.082-.852-1.255-2.229-.63-3.376-.883l2.327.95-4.681.668c.093.133.193.285.327.467-2.7.168-5.291.409-7.89.476-3.949.1-7.9.078-11.844.12-3.415.037-6.835.171-10.252.114-3.477-.057-6.959-.283-10.444-.472a5.994,5.994,0,0,1-1.35-.4c.014-.092.036-.181.059-.273.293.018.577.053.872.048,1.856-.028,3.71-.053,5.559-.106a3.321,3.321,0,0,0,1.075-.218c.171-.065.279-.3.486-.539-1.438-.2-2.629-.988-3.98-.089-.43.289-1.231.023-1.871.014-1.768-.019-3.552.075-5.3-.1a10.027,10.027,0,0,1-2.6-1.07c.272-.191.413-.3.835-.593a16.055,16.055,0,0,1-2.727-.34,11.051,11.051,0,0,1-1.992-1.093c.049-.108.106-.217.154-.326l8.6.508c.016-.119.031-.238.046-.357a3.729,3.729,0,0,0-.7-.176c-2.693-.173-5.387-.374-8.077-.474-1.227-.046-1.734-.887-2.586-1.866l6.021.766c.017-.146.034-.291.059-.437a44.089,44.089,0,0,0-5.3-.774c-1.674-.051-2.3-1.051-3.015-2.442,2.421.391,4.624,1.152,6.944.968a.68.68,0,0,0-.418-.352c-1.907-.364-3.814-.75-5.734-1.049-1.436-.225-1.823-.52-2.277-2.243l5.772,1.414c.032-.115.064-.231.088-.347l-6.275-1.737c-.074-.338-.184-.884-.349-1.648,1.371.456,2.552.846,3.726,1.238.048-.092.086-.184.134-.275a4.046,4.046,0,0,0-.73-.483,13.045,13.045,0,0,0-2.388-.789c-1.068-.178-1.281-.85-1.4-1.953,1.067.356,2,.666,3.066,1.02-.078-.246-.086-.55-.192-.587-.949-.34-1.911-.61-2.851-.951-.206-.074-.341-.351-.508-.535.054-.058.117-.116.17-.174.542.1,1.076.2,1.617.31.032-.106.055-.211.085-.315-.434-.189-.879-.374-1.314-.569-.23-.1-.45-.227-.68-.341.18-.183.352-.368.406-.433a6.886,6.886,0,0,1-.713-1.482,12.392,12.392,0,0,1,.072-1.492c-.339-3.247.963-6.072,2.21-8.921a4.151,4.151,0,0,0,.123-1.212c-.394.243-.8.471-1.174.739a.964.964,0,0,0-.228.438c-.61,1.931-1.279,3.845-1.8,5.8a12.237,12.237,0,0,0-.453,3.385c.073,3.327.294,6.59,1.863,9.712a41.327,41.327,0,0,0,4.464,7.169c1.176,1.482,2.671,2.7,3.971,4.091a3.157,3.157,0,0,1,.476.687,34.523,34.523,0,0,1,3.157,1.564h-3.437a5.663,5.663,0,0,1-.949.462,1.864,1.864,0,0,1-.771.069c-.944-.037-1.891-.141-2.838-.131-1.982.022-3.963.131-5.946.149-3.026.024-6.042.024-9.072-.008-1.921-.021-3.85-.136-5.777-.175a2.178,2.178,0,0,0-2.543,2.32c-.013.207-.085.411-.09.615a8.014,8.014,0,0,0,.976,4.1c.422.748,1.272.736,1.688,1.235a11.3,11.3,0,0,1,2.218,3.41,15.406,15.406,0,0,0,3.622,5.976,4.681,4.681,0,0,0,1.183,1.1c1.7.779,3.441,1.457,5.111,2.151-5.782,4.338-6.464,10.187-3.994,15.167a11.69,11.69,0,0,0,12.873,5.763,12.23,12.23,0,0,0,5.582-2.829,11.442,11.442,0,0,0,3.37-6.774c.513-3.228-1.769-9.318-3.853-10.32-.083-.819.379-1.053,1.1-1.06.976-.01,1.955-.061,2.932-.072,4.166-.046,8.339-.073,12.507-.125,3.555-.045,7.106-.112,10.654-.171,2.477-.042,4.955-.133,7.427-.119,2.682.015,5.371.114,8.056.194,2.483.073,4.98.054,7.446.285,2.911.273,5.808.758,8.71,1.18.989.145,1.964.377,2.856.55a34.924,34.924,0,0,0-2.782,5.342,15.869,15.869,0,0,0-.475,5.123,7.658,7.658,0,0,0,.908,2.552,11.916,11.916,0,0,0,5.327,5.624,8.25,8.25,0,0,0,2.959.825,14.845,14.845,0,0,0,8.7-1.475c2.87-1.385,4.588-3.965,6.189-6.608a1.132,1.132,0,0,1,.667-.539l.5-.06c1.165-.408,3.011-.15,4.393-1.467,2.061-1.964,14.256-15.067,15.251-16.038,2.173-2.125,4.19-4.409,6.416-6.482,2.008-1.87,3.824-2.921,5.807-4.823q2.731-2.633,5.522-5.215c2.324-2.149,4.625-4.317,7.015-6.391,2.05-1.777,4.184-3.461,6.323-5.125a4.766,4.766,0,0,1,2.39-1.265,3.48,3.48,0,0,0,3.179-2.793c.048-.176.285-.343.469-.439.315-.16.656-.259,1.19-.46-.266-.182-.513-.41-.728-.572a5.761,5.761,0,0,0,2.409-1.111,33.294,33.294,0,0,0,7.169-7.624c1.428-2,2.338-2.479,3.448-4.067a15.432,15.432,0,0,1,1.433-1.572c.208-.224.42-.443.651-.687-.013.936-.005,1.742-.054,2.539s-.145,1.607-.252,2.407a35.4,35.4,0,0,0-.52,3.7,11.218,11.218,0,0,0,.634,3.608,9.741,9.741,0,0,1-.163,2.571,14.367,14.367,0,0,0,.045,5.363,8.469,8.469,0,0,0,.659,1.5,4.505,4.505,0,0,1,.554,1.939c-.228,1.421-.273,2.845-.4,4.265a13.7,13.7,0,0,0,.046,4.555,1.036,1.036,0,0,1-.584,1.312,5.845,5.845,0,0,0-2.387,3.646,3.658,3.658,0,0,1-.871,1.679,19.626,19.626,0,0,1-2.681,1.845,16.462,16.462,0,0,0-4.532,4.258c-1.333,1.79-2.136,3.9-3.825,5.512a7.729,7.729,0,0,1-5.069,2.372,5.467,5.467,0,0,0-2.584,1.006c-1.613.946-2.173,2.587-2.674,4.2a2.313,2.313,0,0,0,.387,1.914,43.308,43.308,0,0,0,3.455,3.226c1.136,1.025,2.325,2,3.431,3.064.811.783,1.462,1.736,2.288,2.5a15.132,15.132,0,0,0,3.516,2.825c1.818.856,3.873,1.89,6.009,1.917,2.281.029,4.265-.419,5.531-1.738.772-.8.931-1.953.03-2.563a14.785,14.785,0,0,1-4.835-5.851c-.493-1.171-1.053-2.312-1.538-3.489-.166-.416-.4-1.011-.235-1.329a9.474,9.474,0,0,1,5.2-4.46c1.652-.643,3.2-1.539,4.8-2.309.728-.353,1.478-.676,2.236-1.021.158.9.174.918.893.705a6.158,6.158,0,0,1,1-.367c2.386-.238,3.962-1.8,5.537-3.356a.9.9,0,0,0,.3-1.18,1.226,1.226,0,0,1,.287-1.021c1.265-1.505,2.66-2.908,3.863-4.462.819-1.061,1.2-2.441,2.357-3.281.152-.11.129-.452.228-.84a7.41,7.41,0,0,0,1.537,1.35,2.817,2.817,0,0,1,1.645,2.12,7.833,7.833,0,0,0,.409,2.036,13.123,13.123,0,0,0,2.053,2.768c.31.327,1.045.254,1.666.382a20.792,20.792,0,0,0,.729,9.492,11.851,11.851,0,0,1,.123,7.177,11.336,11.336,0,0,1-1.246,2.44c-.083.127-.249.22-.279.352a8.272,8.272,0,0,0-.486,2.126,11.852,11.852,0,0,0,.569,1.986c.333,1.551,3.149,2.69,4.541,2.236.809-.26,1.606-.532,2.425-.747a20.137,20.137,0,0,1,7.1-.885,3.168,3.168,0,0,0,1.325-.118c1.909-.68,6.4-1.463,7.825-3.069a22.86,22.86,0,0,0,2.627-2.991c.9-1.488.528-3.372-1.572-3.3-1.549.053-5.613.17-7.095-.286-.752-.228-1.437-.608-2.167-.865a3.794,3.794,0,0,1-2.391-3.1c-.135-2.522.718-4.9,1.122-7.339.281-1.67.663-3.323,1.033-4.975.281-1.186.562-2.376.944-3.525.258-.758.83-1.416,1.055-2.178a8.944,8.944,0,0,0,.561-3.122,2.874,2.874,0,0,0-2.911-2.326,1.2,1.2,0,0,1-.8-.453c-.528-.78-.988-1.608-1.448-2.424-.584-.99-3-15.719-3.684-16.622-.441-.58-.893-1.152-1.349-1.721a2.5,2.5,0,0,0-.059-.637c-1.012-2.778.669-5.966-.373-6.167a1.364,1.364,0,0,1-1.023-2.03.837.837,0,0,0,.041-.638c-.548-1.139-1.7-6.2-2.224-7.348a5.85,5.85,0,0,1-.29-1.267c1.431-.013,2.651.018,3.868-.026,1.619-.067,3.238-.153,4.848-.3,1.19-.111,2.366-.363,3.557-.509a12.957,12.957,0,0,0,1.86-.092c1.616-.442,3.2-1,4.8-1.492a2.393,2.393,0,0,1,1.026-.168c1.532.284,3.052.643,4.582.943a16.841,16.841,0,0,0,2.715.412,1.153,1.153,0,0,1,1.164.562,4.08,4.08,0,0,0,3.754,1.827c1.728.011,2.2-1.528,2.834-2.526C564.621,241.138,564.412,239.776,564.325,238.666Zm-42.737-7.609c-.553-1.093-1.107-2.185-1.649-3.282a.457.457,0,0,1,.091-.488l1.787,3.694C521.738,231.009,521.658,231.036,521.588,231.057Zm-17.419-14.5c.011,1.07.014,2.554.026,4.031l-.334-.034A6.1,6.1,0,0,1,504.169,216.558ZM382.314,269.507c2.181.307,4.194.591,6.216.874.044.125.087.25.138.375-.475.2-.962.614-1.407.573C385.552,271.176,383.544,271.793,382.314,269.507Zm-.1-2.031,8.289.886c.064.074.125.147.188.221-.324.223-.614.568-.972.647a4.664,4.664,0,0,1-3.406-.392,15.615,15.615,0,0,0-3.337-.975A1.273,1.273,0,0,1,382.214,267.476Zm10.909-15.809a6.922,6.922,0,0,0,.913.235,32.021,32.021,0,0,1,4.508.554,19.192,19.192,0,0,1,3.363,1.673,8.023,8.023,0,0,1,1.325.543,4.275,4.275,0,0,1,.9,1.155c1.391,2.125,2.3,4.377,1.744,6.986a4.579,4.579,0,0,1-.452,1.52c-1.94,3.052-4.028,6.022-7.433,7.6a27.427,27.427,0,0,1-10.937,2.6,5.524,5.524,0,0,1-.711-.089c1.132-.914,2.173-1.713,3.159-2.567a9.932,9.932,0,0,0,1.729-1.743,4.7,4.7,0,0,0,.912-2.609,9.742,9.742,0,0,0-.261-3.721c-.37-1.012-.3-2.074-.575-3.093-.314-1.122-.353-2.323-.725-3.417-.518-1.5-1.234-2.94-1.9-4.5C390.24,252.409,391.754,252.02,393.123,251.667ZM389.96,265c-1.679-.382-3.335-.891-5.02-1.307-.606-.151-1.245-.175-1.87-.29-.751-.14-1.49-.316-2.238-.478.025-.143.051-.286.076-.431l10.02,1.374C391.105,265.159,391.074,265.248,389.96,265Zm-.459-6.639c-.3.026-.593.056-.881.078-1.5.106-2.449-1.184-3.8-1.442.006-.1.02-.21.035-.317,1.325.241,2.653.435,3.958.759C389.1,257.507,389.276,258.038,389.5,258.358Zm-2.667-7.918c-1.119.981-1.245.969-2.266-.31Zm-3.139,8.078a5.376,5.376,0,0,1,1.072-.038c1.419.232,2.826.514,4.235.761.96.167,1.133.36,1.379,1.759l-6.742-2.091C383.654,258.779,383.67,258.648,383.7,258.518Zm.013,2.072c1.89.243,3.781.459,5.668.735,1.12.164,1.109.207,1.4,1.457a8.818,8.818,0,0,1-4.6-.948c.073.344.127.575.181.808-.2-.037-.579-.055-.584-.114-.134-1.161-1.231-.983-1.9-1.28-.96-.43-2.037-.59-3.047-1.047C381.793,260.332,382.747,260.465,383.708,260.59Zm-4.3,4.639c3.29.194,6.579.419,9.874.569,1.521.068,1.874.361,1.561,1.525-.793.177-1.761.722-2.276.443-1.5-.816-3.172-.628-4.716-1.152a24.382,24.382,0,0,0-4.128-.6c-.183-.028-.327-.316-.484-.483C379.294,265.431,379.35,265.33,379.407,265.229Zm-3.073,1.253c1.824,2.075,2.609,4.612,3.256,7.334a5.383,5.383,0,0,0-.839-.045c-.948.129-1.324.194-1.638-.141a6.657,6.657,0,0,0,1.078-.089,5.212,5.212,0,0,1,.832.052,17.149,17.149,0,0,0-2.766-6.8C376.283,266.69,376.307,266.587,376.334,266.482Zm-27.013-8.255c-.321-.837.1-.959,2.943-.474Zm12.934-1.307a27.573,27.573,0,0,0-.969,10.848c.046.493,0,.995,0,1.7-1.7-.79-3.217-1.444-4.681-2.2-2.217-1.134-3.347-3.121-4.311-5.335a2.474,2.474,0,0,1,.033-1.859,8.221,8.221,0,0,1,1.558-3.688,3.478,3.478,0,0,1,1.594-.89,9.507,9.507,0,0,1,2.886-.5,14.878,14.878,0,0,1,3.28.665A.872.872,0,0,1,362.255,256.92Zm58.718,52.727c.434-.03.87-.1,1.3-.091a1.667,1.667,0,0,1,.565.253c-.134.141-.262.386-.413.407-1.253.172-2.507.331-3.772.422-.2.015-.428-.319-.64-.491.021-.1.042-.2.07-.3C419.043,309.779,420.008,309.716,420.973,309.647Zm-89.551,10.687,6.819.423c0,.141-.01.283-.018.424a21.685,21.685,0,0,1-9.724-.694,2.5,2.5,0,0,1,.353-.283c.3-.088.607-.169.91-.251-.32-.119-.69-.4-.956-.324-1.192.352-1.624-.594-2.413-1.092a4.589,4.589,0,0,1-1.634-2.588,9.843,9.843,0,0,1-.232-3.354,4.058,4.058,0,0,1,.049-1.272,3.249,3.249,0,0,1,.664-1.456,42.187,42.187,0,0,1,4.566-4.217c.727-.542,1.936-.455,2.929-.63a5.378,5.378,0,0,1,3.917.739c.274.173.422.536.693.723.586.408,1.2.76,1.815,1.132.237.144.474.282.747.445.771-1.261,1.7-.138,2.58-.174.011.072.021.144.032.215-.368.038-.729.091-1.094.112-.442.026-.886-.013-1.322.051a8.015,8.015,0,0,0-1.144.33c.009.077.019.154.029.232l3.391-.026c.012.049.023.1.036.148-.655.212-1.314.4-1.948.652-.214.08-.356.321-.529.487.049.053.1.108.161.16.954-.13,1.9-.262,2.856-.394.021.117.044.233.067.35-.89.181-1.78.353-2.67.547-.363.079-.708.231-1.07.3-.4.079-1.009.3-1.163.126a2.3,2.3,0,0,0-2.625-.9c.133-.1.265-.206.532-.41-.466-.054-.872-.229-1.163-.113-1.085.435-2.136.94-3.175,1.471-.461.234-.589.606-.149.844-.221.193-.52.333-.623.56a3.163,3.163,0,0,0,.108,3.058,27.64,27.64,0,0,0,2.629,3.376c.2.229.765.167,1.157.194,2.063.136,4.118.259,6.206.468-1.264.1-2.542.28-3.807.261-1.734-.028-3.465-.228-5.2-.308-.216-.01-.442.267-.66.41C331.372,320.17,331.4,320.253,331.422,320.334Zm6.42-2.863c.178-.234.274-.474.379-.477.927-.035,1.849-.022,2.774-.039s1.85-.052,2.778,0C341.9,317.744,339.932,317.391,337.842,317.471Zm5.292-2.7c-1.224.143-2.467.135-3.689.259a11.614,11.614,0,0,0-1.71.427c.008.121.015.241.03.363l5.587-.362c.034.173.06.345.094.518-.535.11-1.059.264-1.6.32-1.11.119-2.227.215-3.339.258a12.115,12.115,0,0,1-1.329-.2,2.162,2.162,0,0,0-.9.1,4.049,4.049,0,0,1-3.417-1.02h1.089c.031-1-.9-.572-1.394-.946.478-.881,1.249.153,1.919-.431l-1.533-.758,1.759-.13q.042-.16.087-.321l-1.436-.635,1.522-.045c.034-.072.061-.144.095-.216-.268-.236-.535-.473-.8-.7,1.845-1.173,2.723-.546,3.536.995.219.43.583.787.841,1.2a3.593,3.593,0,0,1,.233.8l5.379-.493c.043.135.088.27.14.4A3.929,3.929,0,0,1,343.134,314.772Zm-3.954-1.6c1.617-1.085,3.394-.667,5.122-.682A6.733,6.733,0,0,1,339.18,313.174Zm4.784-2.062c.007.124.021.246.029.368-1.439.859-3.056-.075-4.514.6-.012-.177-.022-.355-.034-.534Zm59.76-8.228c.223-.369.365-.6.665-1.113-.493.125-.916.1-1.039.282a1.6,1.6,0,0,1-2.29.525c.133-.217.266-.443.522-.858-1.192.254-1.924,1.612-3.162.791.053-.141.135-.369.3-.822-1.034.343-1.748,1.4-2.863.648l.8-.463c-.017-.092-.034-.185-.05-.278a3.136,3.136,0,0,0-.9.169c-1.64.865-1.634.876-3.682.523.428-.292.723-.495,1.019-.7,0-.065-.007-.129-.011-.194a2.384,2.384,0,0,0-.85.145c-.357.221-.63.769-.974.8a7.108,7.108,0,0,1-2.508-.287c.319-.211.638-.42,1.135-.746a1.49,1.49,0,0,0-1.641.516c-.736.709-1.586.567-2.6.6.314-.383.525-.651.864-1.074-.831.069-1.2.57-1.7.855a5.779,5.779,0,0,1-1.925.3l.429-.793c-.031-.087-.055-.176-.087-.264-.976.6-1.86,1.626-3.179.8.255-.268.542-.564.827-.86-.032-.064-.058-.127-.091-.191-.339.175-.8.262-1,.539a1.5,1.5,0,0,1-1.9.521l.353-.662-3.6,1c-.059-.107-.114-.214-.173-.322.206-.209.406-.418.6-.627-.018-.08-.043-.161-.06-.242-1.048.2-1.774,1.7-3.033.874.033-.069.119-.251.246-.509-1.053.312-2.033.6-3,.887-.047-.086-.094-.171-.134-.255.087-.188.18-.377.361-.76-.353.154-.615.184-.728.328-.517.652-1.191.58-1.913.568-2.053-.034-4.112,0-6.16.009.166-.27.339-.559.522-.849-.051-.039-.1-.079-.149-.12a6.281,6.281,0,0,1-1.6.945,7.461,7.461,0,0,1-2.029-.085c.057-.186.1-.35.165-.6-.911.033-1.579,1.2-2.589.422.086-.182.172-.375.292-.623-.186-.012-.375-.082-.446-.019-1.826,1.58-3.975.554-6.175.948.289-.45.429-.662.6-.932l-2.937.982c-.046-.093-.094-.185-.14-.279.123-.17.238-.34.36-.51-.041-.062-.074-.122-.115-.183a3.647,3.647,0,0,1-2.693.886c-.024-.072-.05-.144-.075-.215.214-.209.428-.415.673-.65-.505-.634-.868-.045-1.165.173a2.87,2.87,0,0,1-2.543.768c.136-.266.263-.509.467-.928-2.071,1.442-4.088.81-6.1.4-.31-.064-.657.136-.993.156a12.86,12.86,0,0,1-1.654,0c-.1-.006-.2-.259-.337-.452-1.612.763-3.272-.223-5.22-.155l1.06-1.229c-.049-.054-.1-.108-.139-.161-.508.372-1.014.742-1.569,1.151-.376-.3-.789-.624-1.208-.957.254-.353.449-.633.784-1.1-.835.13-1.384,1.188-2.156.308-.884-1.013.7-1.147.58-2.045-.477.378-.893.7-1.308,1.033-1.122-.524-.174-1.168.036-1.9-.742.429-1.207.489-1.29-.444-.085-.916-.793-1.884.413-2.6.82-.489,1.413-1.4,2.527-1.344a1.478,1.478,0,0,1,.564.034q-.814.523-1.629,1.047c.014.02.027.041.041.062,1.417-.519,2.843-1.039,4.26-1.559.058.135.117.269.176.4-.87.45-1.746.9-2.616,1.351a7.2,7.2,0,0,0-.989.578c-.109.083-.1.319-.168.541,2.195-1.05,4.253-2.03,6.3-3.011.074.132.14.262.214.392-1.307.773-2.606,1.547-3.913,2.321.061.112.113.223.166.336a2.284,2.284,0,0,0,.561-.167c1.456-.884,2.864-1.859,4.372-2.638a6.3,6.3,0,0,1,2.133-.274c.024.085.057.17.081.255-.685.355-1.384.7-2.063,1.068-1.6.873-1.6.88-1.439,1.356a23.854,23.854,0,0,0,3.322-1.8,4.542,4.542,0,0,1,3.425-.824c-1.175.922-2.643,1.3-3.364,2.593,2.015-1.008,3.659-2.782,6.147-2.672-1.026.934-2.491,1.256-3.337,2.406.069.1.129.2.19.3.9-.553,1.79-1.124,2.7-1.655s1.867-1.04,2.809-1.556l-.087-.415c-.616-.038-1.236-.125-1.848-.1-2.217.069-4.437.2-6.66.255-2.843.07-5.692.119-8.53.114a24.463,24.463,0,0,1-4.4-.262,22.474,22.474,0,0,1-3.628-1.325c.895-.745,1.72-1.425,2.537-2.1-.076-.1-.152-.2-.234-.3-.941.731-1.887,1.464-2.881,2.231-.161-.163-.344-.344-.631-.628.878-.721,1.711-1.4,2.55-2.079-.512-.521-.512-.521-2.653,1.578a4.716,4.716,0,0,1-.817-3.644c.034-.42.094-.795.712-.8,4.255-.022,8.513-.091,12.775-.112,3.658-.018,7.326-.042,10.985.032,2.426.05,4.853.3,7.275.4,2.244.09,4.495.083,6.741.142,1.688.045,3.365.147,5.054.186,2.454.056,4.919.176,7.376.09,4.755-.17,9.506-.508,14.263-.7,2.561-.1,5.119-.019,7.683-.041,3.055-.026,6.108-.122,9.161-.1,3.261.023,6.514.182,9.775.218,2.218.024,4.438-.1,6.649-.084,1.333.006,2.663.178,3.994.2,1.95.041,3.9.006,5.838.036a9.68,9.68,0,0,1,1.155.239c.1.014.225-.136.318-.2.552,1.2,1.523-.3,2.283.3-.409.108-.757.2-1.105.3a.428.428,0,0,0,.008.1q3.492-.09,7-.177c.006.124.021.249.028.375a5.017,5.017,0,0,1-.781.105c-.737-.011-1.483-.114-2.216-.057-.314.024-.61.348-.92.537a3.2,3.2,0,0,0,1.039.3c1.526-.106,3.042-.281,4.564-.432.023.108.038.217.061.326q-2.574.606-5.148,1.213c.008.1.024.207.041.311q3.3-.258,6.6-.516c.017.105.032.209.048.314-1.086.2-2.159.453-3.255.6-.932.124-1.882.1-2.813.207a1.6,1.6,0,0,0-.761.495c-.435.417-.836.871-1.315,1.379,2.484-.158,4.764-.3,7.045-.445l-.005.077c-1.154.345-2.3.75-3.467,1.016s-2.471-.158-3.473.873l7.706-.545c.014.129.028.258.036.385-2.274.26-4.54.654-6.818.749-4.025.164-8.068.13-12.1.214-2.261.046-4.521.212-6.778.225-2.05.011-4.1-.136-6.157-.171-2.426-.042-4.855-.036-7.282-.056q-4.881-.042-9.753-.1c-3.557-.038-7.119.09-10.655-.187-2.134-.168-4.226.163-6.346-.014-2.141-.178-4.3-.113-6.464-.138-3.3-.037-6.589-.056-9.88-.087-1.123-.011-2.246-.042-3.371-.047a1.01,1.01,0,0,0-.7.279c.427.072.862.144,1.474.245-1.191.713-2.3,1.351-3.373,2.028a4.594,4.594,0,0,0-.792.757.991.991,0,0,0,.185.248c.309-.172.6-.37.914-.549a44.143,44.143,0,0,1,4.37-2.5c.644-.285,1.555.042,2.587.106-1.532,1.032-3.178,1.515-4.326,2.724.046.092.1.183.146.273.37-.177.744-.337,1.1-.535,1.42-.8,2.813-1.647,4.26-2.4a3.544,3.544,0,0,1,1.289-.119c.032.088.07.177.11.264-1.392.821-2.79,1.641-4.182,2.461.066.121.126.242.194.364,2.338-1.21,4.518-2.841,7.217-3.124.039.088.086.174.125.262-1.519.842-3.032,1.683-4.551,2.524.045.1.092.209.137.313a3.4,3.4,0,0,0,.676-.213c1.566-.867,3.086-1.821,4.7-2.59a5.025,5.025,0,0,1,1.979-.088,18.993,18.993,0,0,1,3.17.161c-.76.358-1.547.678-2.279,1.084s-1.428.9-2.14,1.363c.039.088.071.174.1.261a2.812,2.812,0,0,0,.83-.185c1.058-.61,2.131-1.207,3.128-1.909,1.8-1.273,3.8-.577,5.71-.676.105,0,.211.081.421.171-1.2.862-2.314,1.665-3.437,2.467.06.117.113.234.172.35a5.737,5.737,0,0,0,.919-.4c1.164-.753,2.261-1.628,3.477-2.262a5.21,5.21,0,0,1,2.358-.3c-1.016,1.134-2.73,1.267-3.439,2.729,2.2-1.241,4.222-2.858,6.91-2.716.046.1.1.2.145.3q-1.962,1.011-3.924,2.023c.045.114.09.227.135.342a1.81,1.81,0,0,0,.608-.079c1.561-.806,3.077-1.7,4.672-2.419a6.071,6.071,0,0,1,2-.168c.025.072.049.145.082.217l-3.206,1.989c.066.118.141.234.209.352.74-.407,1.507-.78,2.221-1.232.558-.351,1.048-.807,1.586-1.2a.675.675,0,0,1,.409-.1c.794.037,1.589.092,2.5.148-1.193,1.087-2.906,1.192-3.951,2.306.054.091.108.184.17.278,1.294-.692,2.562-1.445,3.9-2.055a6.441,6.441,0,0,1,2.331-.58c1.845-.08,3.7-.02,5.551-.013.2,0,.393.023.594.035.031.089.07.179.1.268-.761.38-1.529.75-2.284,1.144a16.9,16.9,0,0,0-1.606.919c-.124.084-.1.387-.141.588.211-.034.536.009.619-.113.67-.961,1.8-1.084,2.72-1.593.424-.234.814-.523,1.225-.782.194-.123.4-.327.609-.332,1.656-.043,3.318-.048,4.98-.062.025.085.05.17.082.256-.538.249-1.088.475-1.612.755a14.069,14.069,0,0,0-1.557.968c-.094.062-.014.355-.01.54.208-.023.467.023.623-.082.45-.3.846-.694,1.291-1.008.623-.434,1.266-.836,1.909-1.236a.91.91,0,0,1,.491-.134c1.427.076,2.844.168,4.21.253l-2.7,2.051.126.14c1.339-.7,2.673-1.416,4.032-2.074a2.609,2.609,0,0,1,1.343-.28,10.857,10.857,0,0,1,2.754.165c.852.3,1.931-.052,2.91-.1.127-.005.255.108.443.193-1.02.83-2.409.994-3.173,2.034l.143.217a31.994,31.994,0,0,1,3.674-2.072,8.894,8.894,0,0,1,2.623-.255c.017.1.041.194.056.29q-2.049.994-4.115,1.987c.032.084.063.166.1.248,1.321-.517,2.623-1.085,3.968-1.534a11.847,11.847,0,0,1,4.117-.8c1.473.045,2.946.074,4.421.2,1.408.117,2.868,0,4.2.794-4.261.129-8.53.26-12.784.392-.006.086,0,.176,0,.264,4.262-.02,8.517-.044,12.816-.064-.089.589-.383.783-1,.793q-5.28.09-10.558.276c-1.478.054-2.948.219-4.422.331,0,.079.012.157.015.234l15.552-.224c.049.047.106.094.163.142-.2.153-.385.433-.586.444-3.005.156-6.014.273-9.016.4q-3.238.139-6.463.3a4.207,4.207,0,0,0-.747.167c.01.092.018.185.028.278,5.468-.13,10.935-.26,16.545-.4-.232.759-.44,1.571-.748,2.339a.972.972,0,0,1-.762.405c-.91.009-1.819-.12-2.72-.106-3.571.056-7.143.123-10.719.236a11.488,11.488,0,0,0-3.112.562l16.1-.343c.033.077.072.156.1.233-.559.366-1.118.733-1.49.982a9.186,9.186,0,0,0-1.533-.28c-3.167.021-6.335.047-9.5.127-2.194.056-4.384.193-6.582.315a1.219,1.219,0,0,0-.786.418l17.509-.292c-1.163.384-2.208,1.116-3.556.769a7.77,7.77,0,0,0-1.982.135c-1.545.039-3.087.037-4.622.057-2.52.032-5.034.091-7.544.089-1.118,0-2.235-.128-3.036-.177a7.183,7.183,0,0,0-.874-.436C405.556,303.375,404.644,302.686,403.724,302.884Zm31.383-14.564c-1.623.709-3.366.584-5.066.73-.028-.151-.055-.3-.083-.457l5.12-.515C435.087,288.159,435.1,288.24,435.107,288.32Zm-23.686,32.907c-.008-.116-.015-.232-.023-.348.982-.46,2.015-.066,3.021-.07.009.105.009.211.01.317Zm2.887-1.143c-1.307-.058-2.614-.137-3.919-.251-1.206-.106-2.422-.214-3.608-.427a3.573,3.573,0,0,1-2.684-2.6,8.725,8.725,0,0,1,1.952-9.256,6.662,6.662,0,0,1,2.556-1.933,12.661,12.661,0,0,1,6.456-.215c.449.1.906.163,1.415.251l-1.118.729c.539.2.9.333,1.238.454.179.61.351,1.186.537,1.793l.991-.121c.017.088.026.175.044.264a5.14,5.14,0,0,1-.955.144c-2.514-.079-4.967.075-6.874,2a4.327,4.327,0,0,0-.971,4.255c.425,2.043,1.961,2.864,3.679,3.505a4.2,4.2,0,0,0,1.171.089l.057.169c-.277.135-.545.269-1.052.518l5.134.318A8.185,8.185,0,0,1,414.308,320.084Zm.63-1.146a13.372,13.372,0,0,1,5.42-.323C418.6,319.378,416.752,318.862,414.938,318.938Zm3.2-1.165c.023-.952.42-1.1,2.665-1.025C420.151,317.856,419.136,317.776,418.137,317.773Zm5.4-5.721c-1.6-.005-3.244-.536-4.68.519l4.146-.06c.035.145.071.291.107.437a12.58,12.58,0,0,1-1.2.423c-.823.193-1.784-.05-2.574.928l2.452-.269c-1.07,1.276-2.761.087-3.619,1.415l4.029-.117c.031.1.062.207.094.312-.292.133-.576.384-.866.38-1.057-.012-2.112-.173-3.171-.154a4.868,4.868,0,0,0-1.791.42,4.872,4.872,0,0,1-3.307.229c.245-.246.382-.39.525-.533,0-.082-.005-.163-.015-.244-.38,0-.76,0-1.147-.008-.2-.008-.407-.048-.614-.071a2.64,2.64,0,0,1,.54-.412,7.6,7.6,0,0,1,.962-.257c-.016-.106-.032-.213-.04-.318l-1.714-.107c0-.086-.012-.172-.014-.258.515-.13,1.029-.259,1.55-.387.006-.089.012-.178.017-.266-.412-.065-.825-.133-1.445-.232.417-.115.682-.191.946-.258a1.692,1.692,0,0,0,.884-.431l-1.116-.266c-.01-.067-.028-.133-.039-.2l2.317-.365-1.333-.61c1.489-.11,2.895-.928,4.248.326.3.272.9.214,1.514.34-.206-.661-.02-.892.552-.855,1.09.07,2.173.145,3.262.123C423.707,311.212,423.564,311.6,423.535,312.052ZM450.38,292.9c-.463.2-.933.391-1.4.575s-.93.349-1.518.567c.194-.377.327-.652.464-.92a7.568,7.568,0,0,0,1.08-.135c.824-.221,1.637-.487,2.454-.734.03.049.06.1.1.148C451.164,292.572,450.772,292.741,450.38,292.9Zm-1.522-.159c-.04-.073-.08-.148-.125-.221,1.093-.893,2.509-.912,3.753-1.4.033.092.065.184.1.277C451.343,291.846,450.1,292.3,448.858,292.745Zm1.2-1.187c.853-1.584,2.493-1.179,3.685-1.805.042.114.084.23.126.345Zm1.415-1.508c.461-.564.727-.94,1.388-.872.481.049.993-.159,1.512-.124Zm54.243-24.382c.993.207,1.182.915,1.425,1.685.78,2.518,1.318,5.148,2.977,7.313.227.3.447.61.742,1a4.79,4.79,0,0,1-3.167-3.027c-.742-1.8-1.3-3.675-1.894-5.536A5.97,5.97,0,0,1,505.717,265.668Zm8.645,17.822a27.947,27.947,0,0,1-4.44,6.547c-.538-.416-.856-.8-.25-1.4a18.434,18.434,0,0,0,4.151-7.076c.016-.047.1-.07.145-.1A1.332,1.332,0,0,1,514.362,283.49Zm1.06-.66c.107.5.364.94.242,1.215A32.179,32.179,0,0,1,510.8,291.5c-.674-.342-.659-.736-.3-1.2.607-.781,1.274-1.523,1.8-2.352C513.346,286.339,514.3,284.683,515.422,282.83Zm-2.242-.972a24.86,24.86,0,0,1-3.962,6.643,1.118,1.118,0,0,1-.259.153l-.841-.63c1.577-2.641,3.129-5.229,4.7-7.85C513.566,280.483,513.552,281.022,513.18,281.858Zm-1.379-1.209c-1.2,2.148-2.478,4.249-3.743,6.356-.128.206-.409.32-.613.476-.077-.067-.152-.134-.228-.2.721-1.312,1.508-2.593,2.144-3.944s1.114-2.781,1.69-4.233C512.286,279.552,512.377,279.621,511.8,280.649Zm-5.076,1.49c.1-.851.152-1.71.31-2.552.145-.814.394-1.609.6-2.413l.242.037v3.5L508,280.7c.265-1.032.523-2.065.781-3.1h.379a2.414,2.414,0,0,1,.1.992c-.446,1.4-.961,2.779-1.447,4.167-.121.347-.227.7-.34,1.049l.2.073c.4-.857.789-1.715,1.183-2.581.544,2.32-1.175,3.77-1.955,5.671a2.451,2.451,0,0,1-1.47-1.939,19.073,19.073,0,0,1,1.106-8.189,2.689,2.689,0,0,1,.219-.31C506.967,278.481,505.869,280.274,506.725,282.139Zm2.614-.343c.235-1.216.447-2.294.651-3.376C510.778,278.687,510.536,280.008,509.339,281.8Zm-5.223-22.41c.069-.171.728-.1,1.149-.133-.647.3-.653.331-.429,1.493-.2.049-.4.1-.785.2A4.516,4.516,0,0,1,504.116,259.386Zm-.035,6.047c.364,1.108.689,2.254,1.122,3.358.272.719.726,1.366,1.06,2.064s.614,1.422,1,2.329C505.058,271.565,503.051,266.392,504.081,265.433Zm-.507,16.907h-.364a10.049,10.049,0,0,1,0-5.364c.674.673.477,1.448.394,2.266A28.306,28.306,0,0,0,503.574,282.34Zm.81,4.151a4.614,4.614,0,0,0-2.91,3.04c-.643-.676-.538-1.216.38-2.233C502.664,286.395,503.785,286,504.384,286.491Zm-.311-4.868c.212-1.056.394-2.121.554-3.189.1-.7.135-1.421.2-2.131l.3.02c-.136,2.728-.273,5.456-.408,8.254A6.055,6.055,0,0,1,504.073,281.623Zm-.159-11.766a9,9,0,0,1-1.462-4.835C502.914,265.221,503.7,267.79,503.914,269.857Zm-.985,15.706c-.841.792-1.576,1.485-2.371,2.232A3.152,3.152,0,0,1,502.929,285.563Zm-2.347-47.634c-.345-1-.7-1.995-1.04-2.995l.33-.146q.526,1.511,1.058,3.015C500.81,237.848,500.7,237.888,500.582,237.929Zm-.326-7.363c.469-1.347.895-2.579,1.391-4.012C501.913,228.446,501.269,230.354,500.256,230.566ZM502.8,215.91a1.7,1.7,0,0,1,.16,1.956,11.29,11.29,0,0,0-.826,3.794,13.49,13.49,0,0,1-.759,3.214c-.458,1.525-.983,3.031-1.49,4.547a5.773,5.773,0,0,1-.3.627c-.741-.337-1.016-.61-.669-1.415a66.372,66.372,0,0,0,2.509-6.549C502.027,220.134,502.329,218.085,502.8,215.91Zm-5.041,11.212c.888-2.242,1.659-4.532,2.472-6.807q.92-2.569,1.823-5.13c.138.043.277.088.407.139-1.524,4.342-1.865,9.06-4.324,13.125C497.562,228.1,497.508,227.765,497.763,227.122Zm-1.675,5a3.919,3.919,0,0,1,2.479,1.311c-.037.073-.081.152-.119.225q-1.254-.624-2.5-1.253C495.99,232.314,496.038,232.218,496.088,232.123Zm-21.172,35.518a6.561,6.561,0,0,1,1.058-1.426,1.223,1.223,0,0,1-.17.317Q475.363,267.087,474.916,267.641Zm25.037-26.6c-.048.275-.1.555-.176.964-1.287-.272-2.512-.529-3.73-.79-.016.052-.038.109-.06.165,1.19.382,2.375.769,3.626,1.176-.1.34-.214.705-.338,1.126-1.43-.352-2.8-.684-4.157-1.022-.025.088-.051.177-.075.265q1.963.648,3.934,1.3c-.061.758-.487.861-1.11.642-1.212-.419-2.426-.83-3.641-1.243-.028.074-.057.146-.086.219,1.359.573,2.712,1.152,4.11,1.736-.018.728-.375.951-1.113.712a15.058,15.058,0,0,0-3.179-.742c1.177.472,2.353.942,3.566,1.436-.022.58-.365.76-.938.591-1.1-.314-2.2-.636-3.3-.955-.319-.087-.63-.18-.948-.267-.033.091-.066.183-.1.275,1.465.558,2.924,1.123,4.5,1.726.019.452-.27.6-.876.451-1.415-.357-2.84-.678-4.266-1.011-.021.07-.047.146-.074.219l4.327,1.525c-.168.6-.583.7-1.164.542-1.1-.292-2.207-.541-3.312-.807-.026.074-.046.145-.068.214,1.246.437,2.492.874,3.809,1.338-.122.269-.236.525-.346.769-.984-.2-1.912-.4-2.84-.593-.033.092-.06.177-.088.263.609.237,1.207.508,1.829.7.606.185.665.424.2.839a.589.589,0,0,0-.2.322c-.063.624-.262,1.05-1.024.9a.9.9,0,0,0-.727.321c.3.058.6.121.951.188a1.43,1.43,0,0,1-.119,1.586c-.094.065-3.206,4.349-4.953,5.622-.038-.036-1.086-.458-1.124-.494-.449.619-.623.863-.832,1.146-.59-.654-1.1-1.215-1.605-1.777-.046.038-.092.078-.145.116.432.591.864,1.183,1.3,1.782-.424.5-.758.488-1.167-.042a14.143,14.143,0,0,0-2.28-2.413c.712.988,1.432,1.975,2.143,2.962-.037.085-.083.171-.12.255a3.052,3.052,0,0,1-.917-.428c-.606-.587-1.136-1.251-1.719-1.862a1.662,1.662,0,0,0-.947-.5c.772.953,1.538,1.9,2.31,2.852-.462.036-.447.017-1.568-1.014-.417-.382-.825-1.129-1.591-.406.493.382.932.717,1.371,1.053-.007.1-.015.208-.015.313-1.431-.733-2.569-.069-3.826.363-.7.237-1.25.289-1.545,1.033a.883.883,0,0,1-.57.505c-.469.052-.8.619-1.008,1.225a.3.3,0,0,1-.589-.029c-.287-1.423-.1-3.49,1.205-4.444a5.749,5.749,0,0,0,1.136-1.233,2.469,2.469,0,0,0,.243-.772l-.72.124c-.151.026-.311.052-.462.076-.047-.09-.537-.309-.589-.4a2.762,2.762,0,0,1,1.219-1.677,9.026,9.026,0,0,1,4.689-1.353c1.772-.129,2.6.148,4.228-.624,1.4-.661,1.513-1.6,2.02-2.943,1.561-3.584,3.23-8.1,4.5-11.6.238-.656.683-1.706.99-2.333.682-1.392.872-3.02,2.186-4.121a12.406,12.406,0,0,0,1.717-2.358c1.054,1.072,2.807.981,3.477,2.411a4.985,4.985,0,0,1,.726,2.519l-.123.054a1.112,1.112,0,0,1,.224,1.053c.128-.081.258-.163.4-.242-.046.718-.078,1.345-.12,2.056-.8-.1-1.479-.184-2.157-.267-.02.071-.034.136-.055.208C498.677,240.69,499.275,240.855,499.953,241.044Zm-20.722,65.573c.076.335.219.614.144.7-.652.764-1.341,1.495-2.015,2.234C477.443,308.3,478.246,307.523,479.231,306.617Zm-1.425,4.663a3.652,3.652,0,0,1,1.622-3.08c.113-.043.265.022.4.038-.046.213-.024.473-.145.632C479.086,309.677,478.451,310.458,477.806,311.28Zm14.789.928c.712,1.342,1.424,2.689,2.054,4.074a7.856,7.856,0,0,0,3.614,3.469c1.064.56-2.5,2.207-4.125,2.072-1.4-.3-1.771-.574-2.218-.311.039-.678.069-1.109.1-1.614-.887.208-.628,1.7-1.886,1.155l.227-1.294c-.97-.2-.56,1.64-1.674,1.2.061-.436.121-.848.182-1.307-.606.24-.993.4-1.387.552-.053-.422-.106-.843-.166-1.285-.145.21-.319.464-.622.917-.288-.565-.507-1-.75-1.489-.1.144-.2.31-.287.44-1.781-.714-1.357-2.1-.956-3.48l-.3-.064c-.257.488-.514.978-.779,1.48-1.144-.629-.121-1.541-.258-2.522-.409.486-.7.83-.977,1.16-1.227-.585-.9-1.546-.493-2.527-.083-.023-.167-.048-.257-.071-.319.376-.645.753-.962,1.131l-.182-.04q.124-.968.25-1.937l-.327-.084c-.212.461-.424.92-.658,1.41-.561-.4-.326-.89-.106-1.344.106-.211.34-.359.439-.571a2.924,2.924,0,0,0,.137-.694c-.243.1-.562.134-.72.309a9.44,9.44,0,0,0-.8,1.21c-.288-.829.288-1.759,1.288-2.379,1.235,1.009,2.47,1.921,3.584,2.956a6.543,6.543,0,0,0,2.832,1.644c2.236.586,3.948.36,4.69-1.976a6.305,6.305,0,0,1,.683-1.191A6.53,6.53,0,0,1,492.6,312.208Zm12.266-13.515c-1.613.55-2.659,1.894-4.008,2.786a42.057,42.057,0,0,1-4.522,2.311,29.309,29.309,0,0,0-3.524,1.785,4.639,4.639,0,0,0-1.515,2,21.089,21.089,0,0,0-.682,2.962,10.613,10.613,0,0,1-.758,2.452c-.507.96-1.34.92-2.393.65-1.864-.475-3.091-1.91-4.69-2.765a2.382,2.382,0,0,1-.8-.937,12.275,12.275,0,0,1-1.348-5.005c.439.8.757,1.378,1.068,1.951l.235-.093c-.038-.233-.068-.466-.121-.851.6.559,1.114,1.042,1.726,1.621-.59-1.268-1.734-2.121-1.681-3.575.84,1.159,1.689,2.318,2.53,3.476.077-.049.152-.1.221-.147-.728-1.211-1.456-2.421-2.2-3.661.28-.265.5-.462.773-.717.7,1.042.976,2.429,2.569,2.9-.683-.925-1.243-1.647-1.751-2.4-.129-.186-.076-.489-.105-.739.263.064.6.048.779.207.523.476.986,1.021,1.469,1.538l.229-.168c-.326-.447-.637-.906-.978-1.34-.613-.778-.576-.921.2-1.483a6.073,6.073,0,0,0,.825-.95c.349-.39.645-.592,1.031.046a3.463,3.463,0,0,0,1.326,1.154c-.485-.933-1.963-1.494-.736-2.878.766.66,1.577,1.368,2.4,2.076l.136-.165c-.56-.585-1.152-1.143-1.659-1.768a2.694,2.694,0,0,1-.273-.934,3.124,3.124,0,0,1,.857.32,11.354,11.354,0,0,0,1.825,1.324c-.424-.462-.841-.939-1.28-1.386-.742-.76-.75-.795.174-1.5.8.764,1.606,1.531,2.418,2.3.06-.066.127-.13.2-.2-.507-.529-1.015-1.059-1.516-1.588-.128-.131-.309-.239-.37-.394-.13-.3-.356-.743-.235-.939.34-.563.773-.247,1.106.1.659.7,1.3,1.411,2.038,2.052a11.138,11.138,0,0,0-2.2-2.79c.554-.594,1.076-.494,1.8.305.53.588,1.083,1.166,1.667,1.709-.372-1.318-1.569-1.928-2.5-2.831l1.113-.677c.3.354.569.666.834.979.068-.049.129-.1.189-.146-.2-.359-.41-.717-.636-1.107.408-.525.871-.706,1.4-.132q1.524,1.656,3.016,3.342a3.421,3.421,0,0,0,.582.658c-.764-1.913-2.264-3.267-3.659-4.708.91-.863,1.015-.866,1.827.065.947,1.094,1.87,2.205,2.818,3.3a2.072,2.072,0,0,0,.318.256c.076-.073.151-.146.234-.218-1.257-1.455-2.507-2.91-3.765-4.376a1.194,1.194,0,0,1,1.909.1c.69.8,1.327,1.645,1.985,2.467.274.334.561.658.841.986.069-.057.137-.111.205-.166-.811-1.121-1.613-2.241-2.424-3.361.053-.07.1-.142.151-.212a11.823,11.823,0,0,1,1.606,1.12c.493.476.834,1.11,1.289,1.626a3.829,3.829,0,0,0,1.015.8,5.618,5.618,0,0,1,1.6,3.2C505.035,298.456,504.96,298.659,504.861,298.693Zm5.121-.084a29.04,29.04,0,0,1-2.977,1.4c-.431-1.485-.78-2.819-1.22-4.124a9.159,9.159,0,0,0-.75-1.206c-.273-.523-.015-1.3-.772-1.62a1.717,1.717,0,0,1,.2-.7,4,4,0,0,0,.576-1.042c-.349.265-.7.528-1.045.787-.107-.175-.024-.457.5-1.988-.463.4-.932.795-1.395,1.192-.075-.047-.158-.092-.235-.138a3.671,3.671,0,0,1,1.66-2.505c-.978.108-.978.108-2.288,1.645-.069-.1-.2-.231-.182-.273a12.555,12.555,0,0,1,1.454-2.433c.925-.985,1.41-.989,2.441-.164.734.59,1.81.939,1.894,2.131a.281.281,0,0,0,.105.145c2.371,1.975,2.5,4.846,2.933,7.565C510.952,297.68,510.414,298.353,509.982,298.609Zm1.213-6.955c1.409-1.976,2.878-3.908,4.281-5.885a8.016,8.016,0,0,0,.689-1.523c.47,1.353-3.288,7.464-5.28,8.495A3.454,3.454,0,0,1,511.2,291.654Zm.59,1.976,4.456-6.741c.068.047.143.1.212.143C515.331,289.524,514.249,292.047,511.785,293.63Zm10.979-5.939c-.773-.794-1.583-1.557-2.311-2.388-.91-1.036-1.742-2.135-2.621-3.2-.4-.489-.748-.966-.189-1.556,1.937,2.193,4.221,4.124,5.333,6.94C522.907,287.557,522.832,287.623,522.764,287.691Zm3.875,5.588c.023-.638-.253-1.453.809-1.545C527.257,292.348,527.38,293.056,526.639,293.279Zm2.74,26.388a6.489,6.489,0,0,1-.36-3.966.352.352,0,0,1,.27-.165.364.364,0,0,1,.236.2.646.646,0,0,1,0,.357,10.809,10.809,0,0,0-.124,1.795,11.434,11.434,0,0,0,.494,1.787C529.693,319.678,529.457,319.748,529.379,319.667Zm1.246-.275a13.656,13.656,0,0,1-.528-2.486c-.056-.692.36-.911,1.056-.407a3.776,3.776,0,0,0,.1,3.346C531.041,319.7,530.692,319.587,530.625,319.392Zm8.881-24.845c-.426,2.27-1.022,4.511-1.4,6.788a46.6,46.6,0,0,0-.528,5.305,3.643,3.643,0,0,0,1.415,3.095c.292.23.561.464.3.978a2.882,2.882,0,0,0-.079,1.325,20.676,20.676,0,0,1,.169,2.177,1.461,1.461,0,0,1-.685,1.054,10.391,10.391,0,0,1-3.986.955,8.677,8.677,0,0,0-2.074,0c.09.042,1.816.533,1.906.544a11.071,11.071,0,0,0,3.794-.269c.955-.237,1.314-.959,1.808-1.582a1.4,1.4,0,0,0,.078-1.081c-.325-1.491.045-2.617,1.258-3.042a3.814,3.814,0,0,1,1.561.054c.864.094,1.74.2,2.6.343.742.122,4.019.032,4.715.292.842.318.2,1.733-.534,2.549-.741.85-1.554,2.583-2.94,2.844a14.159,14.159,0,0,0-2.891.555c-.045-.076-.1-.15-.146-.227-.112.306-.247.612-.371.917l-1.01-.924a4.118,4.118,0,0,1,.157.879,2.691,2.691,0,0,1-.314.7c-.258-.452-.427-.751-.607-1.047-.089.015-.168.032-.257.048.044.342.089.683.145,1.033-.235.072-.235.072-.932-1.319v1.59c-.74,0-1.38.012-1.571-.951-.124.264-.247.527-.371.784-1.067.489-.617-.872-1.314-1.037-.078.34-.134.666-.2,1.042-.235.043-.482.091-.707.132-.213-.388-.4-.734-.584-1.081-.09.039-.179.079-.258.118a1.492,1.492,0,0,1-.09.51,2.175,2.175,0,0,1-.4.467,2.527,2.527,0,0,1-.359-.411c-.146-.256-.247-.536-.382-.839-.674.428.236,1.774-1.123,1.541-.1-.6-.2-1.192-.337-1.781a1.563,1.563,0,0,0-.381,0v2.081a.9.9,0,0,1-.988-.965,13.431,13.431,0,0,1,.359-2.073c.045-.293.056-.763-.112-.881a20.791,20.791,0,0,0-1.988-1.139c-.235-.135-.46-.3-.7-.444.023-.088.045-.176.068-.263.46,0,.909.031,1.369-.014.191-.02.371-.2.551-.306-.169-.119-.315-.3-.494-.345-.674-.157-1.37-.267-2.055-.395,0-.089.011-.178.011-.265h2.661c.011-.084.023-.168.034-.253-.842-.242-1.673-.485-2.515-.727.022-.107.045-.214.067-.32.831.068,1.662.136,2.5.2.011-.093.022-.188.033-.28l-2.189-.453v-2.668c0-.5.281-.678.753-.691.437-.014.887-.082,1.336-.126a2.545,2.545,0,0,1-.012-.3h-1.729c.214-1.768,1.819-.3,2.4-1.29-.6-.046-1.145-.125-1.7-.119s-.685-.242-.7-.719c-.011-.546.315-.56.719-.546a11.559,11.559,0,0,0,1.628-.052c-.786-.368-1.8-.032-2.459-.72.011-.11.011-.22.023-.331,1.055-.081,2.11-.164,3.155-.246a.653.653,0,0,0,.022-.145h-3.065c-.079-1.067.449-1.02,1.078-.978.864.059,1.729.015,2.6.015v-.271c-.988-.056-1.987-.174-2.975-.148-.64.018-.831-.183-.685-.86h5.132c0-.074.011-.147.011-.221l-5.086-.268c-.225-.646-.068-.929.628-.9,1.022.039,2.055.03,3.088.031a1.306,1.306,0,0,0,.853-.254l-4.446-.206-.135-.46a3.126,3.126,0,0,1,.955-.366c1.313-.042,2.627-.018,3.952-.018a3.124,3.124,0,0,1,.011-.32h-4.648c.034-.913.213-1.339,1.055-1.31.977.034,1.942-.065,2.908-.106v-.3H530.67c.157-.843.662-1.009,1.46-1.077a14.866,14.866,0,0,0,3.289-.715c1.426-.457,2.785-1.058,4.233-1.621C540.135,293.1,539.641,293.844,539.506,294.547Zm1.965-8.778c.55.728-.112,1.572-.505,2.056-1.842,2.256-3.941,4.263-6.894,4.977-.315.073-.719-.28-1.235-.5v.961c-.977.414-.887-.428-.966-1.072-.112,0-.213.006-.314.008-.157.4-.314.809-.505,1.291-.943.034-.169-.834-.685-1.255-.55-.191-.415.377-.449.8s-.1.874-.157,1.31c-.09.01-.2.019-.3.031q-.184-1.131-.37-2.258c-.068-.017-.146-.033-.213-.05-.169.56-.337,1.12-.562,1.842-.179-.135-.494-.251-.527-.419a2.331,2.331,0,0,1,2.11-2.675,33.238,33.238,0,0,0,4.952-1.509,32.832,32.832,0,0,0,3.884-1.808C539.652,287.01,540.505,286.383,541.471,285.769Zm-11.522-30.9c.4-.265.761.207.788.578.857,1.089-.117,6.4,1.126,6.688.062.105.124.209.187.312.236.373.606.665.809,1.044,1,1.794,3.93,17.258,4.873,19.075.461.868.831,1.777,1.224,2.605a11.826,11.826,0,0,1-5.726,3.883c-.281-.517-.64-1.171-1-1.826a.8.8,0,0,1-.124.042c.213.7.416,1.392.629,2.134-.528.2-.853.3-1.1-.4a9.747,9.747,0,0,0-1.291-2.345c-.179,1.254.843,2.106,1.112,3.306h-2.122c-1.044-2.166-1.729-4.639-3.714-6.43,1.075,2.13,2.12,4.21,3.175,6.29-.123.077-.236.155-.348.233-.157-.149-.359-.268-.449-.449a35.225,35.225,0,0,0-6.636-9.622,7.1,7.1,0,0,0-1.75-1.211,41.9,41.9,0,0,1,8.038,11.215c-.764.271-1.136.123-1.454-.543a29.839,29.839,0,0,0-2.531-4.784,18.565,18.565,0,0,0-4.7-4.938c2.447,2.922,5.235,5.6,6.531,9.46A2.27,2.27,0,0,1,523.855,288a41.185,41.185,0,0,0-2.818-4.505,52.94,52.94,0,0,0-4.053-4.184,2.939,2.939,0,0,0-.667-.383c-.062.076-.122.153-.19.228.507.461,1.007.921,1.507,1.381a1.305,1.305,0,0,1-1.6-.4c-.621-.68-1.249-1.361-1.917-2-.507-.485-1.129-.855-1.614-1.36a15.576,15.576,0,0,1-3.257-4.817,14.861,14.861,0,0,1-1.008-5.4c.233.023-.965-2.407-1.515-3.656,3-.809,5.786-1.725,9.48-2.923.01-.005,2.423-.239,2.433-.244a4.845,4.845,0,0,1,2.222-.485c1.43-.316,4.373-.982,5.763-1.439C528.451,257.212,528.75,255.664,529.949,254.87Zm31.572-11.632c.39-.637.74-1.2,1.139-1.846C562.924,242.434,562.51,243.1,561.521,243.238Zm.736-4.361c-.2.248.1.735.39,1.248a13.883,13.883,0,0,1-1.354,2.714c-.5-.717.154-.9.237-1.362a.35.35,0,0,0-.307-.407c-1.38-.148-2.7-.3-4.053-.451-.009-.188-.029-.546-.057-.9a1.367,1.367,0,0,1-.173-.032c-.161.44-.312.873-.492,1.378-.958-.613.047-1.318-.321-2.2-.36.764-.63,1.335-.93,1.977-.638-.014-.816-.3-.379-.934a1.862,1.862,0,0,0,.287-.535c.035-.115-.062-.268-.109-.4-.148.051-.394.071-.441.172-.176.4-.3.84-.487,1.385-.228-.1-.646-.183-.652-.277a7.764,7.764,0,0,1,.189-1.341c-.734-.06-.774.72-1.244,1.349a6.873,6.873,0,0,0-1.74-.941,12.211,12.211,0,0,0-2.312-.012,4.465,4.465,0,0,1-.91-.238c-.284.15-.742.389-1.321.693.005-.611.008-1.03.019-1.457-.1-.02-.2-.046-.3-.065-.127.5-.263,1-.419,1.59-.249.034-.561.08-.95.138.04-.709.077-1.318.12-1.935l-.227-.01c-.186.691-.373,1.381-.574,2.143-.324.031-.674.065-1.162.11.225-.892.43-1.7.628-2.5a1.9,1.9,0,0,0-.225-.1,4.955,4.955,0,0,0-.348.69,11.42,11.42,0,0,0-.383,1.4c-.112.64-.466.846-1.1.718q.333-1.394.671-2.782c-.122-.007-.235-.021-.349-.035-.217.742-.485,1.475-.643,2.235-.14.677-.485.911-.923.839.109-1.013.225-2.018.341-3.023-.165-.024-.33-.047-.487-.078-.18.61-.354,1.21-.512,1.813-.158.565.113,1.387-.979,1.494.144-1.149.274-2.206.413-3.272-.134-.021-.268-.043-.394-.071-.263,1.127-.528,2.252-.783,3.37l-.277-.018c.091-.983.2-1.981.288-2.964-.136-.025-.281-.041-.427-.058-.222,1.017-.454,2.04-.687,3.063-.1-.018-.2-.036-.314-.046.015-.476.021-.944.044-1.427-.07-.014-.15-.023-.221-.038-.193.471-.394.951-.6,1.43-.1-.019-.222-.022-.333-.032q.231-.646.437-1.27c-.1-.027-.2-.048-.3-.068-.133.421-.267.841-.4,1.265-.626,0-1.244-.007-1.98-.017.158-.971.289-1.765.419-2.559l-.267-.059c-.21.557-.411,1.107-.642,1.709-.865-.571-.1-1.2-.067-1.985L530.6,239.7a1.4,1.4,0,0,0-.171-.119,4.544,4.544,0,0,0,.413-.892,3.833,3.833,0,0,0,.039-.9c-.109-.007-.209-.023-.319-.032-.262.669-.534,1.345-.806,2.02-.094-.026-.179-.059-.274-.084.059-1.234.8-2.314,1.026-3.535-1.394.515-1.105,2.029-1.728,3-.086-.033-.171-.066-.265-.092.558-1.615,1.1-3.214,1.671-4.869-.221,0-.426,0-.623-.012a6.669,6.669,0,0,1,2.948-3.659c.924.553.433,1.3.018,2.189,1.061-.108,1.861-.233,2.678-.267,1.847-.057,3.705-.188,5.55-.071,2.508.162,5.013.46,7.5.842,1.4.219,2.723.869,4.133,1.127a5.724,5.724,0,0,0,1.819-.026,10.481,10.481,0,0,1,2.868.018,13.5,13.5,0,0,1,4,.981c.458.2,1.106.686,1.1,1.053,0,.737.527,1.024.812,1.51.1.175.319.356.3.538C563.258,238.7,562.506,238.566,562.257,238.877Z"/>
      <path id="Path_291" data-name="Path 291" d="M531.383,185.211a9.49,9.49,0,0,1,1.626.073,1.479,1.479,0,0,0-1.587-.985,11.181,11.181,0,0,0-2.5.608,2.891,2.891,0,0,0-1.26,1.182c-.2.35-.062.861.633.572.472-.2,1-.307,1.633-.5-.233.858-1.706.205-1.222,1.546.6-.03,1.251-.022,1.9-.111.463-.062.818-.222.25-.745A1.065,1.065,0,0,1,531.383,185.211Z"/>
      <path id="Path_292" data-name="Path 292" d="M528.309,182.51a16.866,16.866,0,0,0-1.419,1.311c.274.029.334.058.382.036,1.22-.573,2.413-1.253,3.823-.467.125.072.451-.2.669-.31-.1-.2-.159-.466-.327-.585A2.489,2.489,0,0,0,528.309,182.51Z"/>
      <path id="Path_293" data-name="Path 293" d="M535.733,189.874c-.689.269-1.222.481-1.958.772C534.818,191.157,535.338,190.934,535.733,189.874Z"/>
    </g>
    <g id="Group_30" data-name="Group 30">
      <g id="Group_29" data-name="Group 29">
        <path id="Path_294" data-name="Path 294" d="M366.362,464.967v-18.5h7.677c3.359,0,5.525,1.808,5.525,4.615a4.1,4.1,0,0,1-3.371,4.025v.1a4.464,4.464,0,0,1,4.268,4.5c0,3.256-2.4,5.255-6.345,5.255Zm3.307-10.7h3.025c2.307,0,3.6-.974,3.6-2.691,0-1.615-1.115-2.525-3.089-2.525h-3.537Zm3.691,8.127c2.436,0,3.73-1.013,3.73-2.91s-1.333-2.871-3.871-2.871h-3.55v5.781Z"/>
        <path id="Path_295" data-name="Path 295" d="M402.779,460.186h-6.806l-1.576,4.781h-3.41l6.563-18.5h3.729l6.562,18.5h-3.486Zm-6.037-2.55H402l-2.576-7.9h-.09Z"/>
        <path id="Path_296" data-name="Path 296" d="M419.266,464.967v-18.5h3.307v8.652h.115l7.383-8.652h3.807l-7.126,8.2,7.676,10.292H430.4l-6.011-8.075-1.82,2.128v5.947Z"/>
        <path id="Path_297" data-name="Path 297" d="M457.593,464.967H445.622v-18.5h11.971v2.795h-8.665v5h8.191v2.628h-8.191v5.281h8.665Z"/>
        <path id="Path_298" data-name="Path 298" d="M473.22,464.967h-3.306v-18.5h7.343c4,0,6.4,2.218,6.4,5.755a5.368,5.368,0,0,1-3.486,5.282l4.037,7.459h-3.768l-3.64-6.96H473.22Zm0-9.5h3.731c2.1,0,3.319-1.167,3.319-3.167,0-1.948-1.295-3.153-3.384-3.153H473.22Z"/>
        <path id="Path_299" data-name="Path 299" d="M500.73,464.967v-7.293l-6.486-11.2h3.628l4.485,8.05h.077l4.474-8.05h3.6l-6.485,11.2v7.293Z"/>
      </g>
    </g>
  </g>
</svg>
